<svg width="64" height="64" viewBox="0 0 64 64" fill="none" xmlns="http://www.w3.org/2000/svg">
<path d="M32.075 31.9996C32.075 26.1086 36.8506 21.333 42.7416 21.333C48.6326 21.333 53.4082 26.1088 53.4082 31.9996C53.4082 37.8908 48.6325 42.6663 42.7416 42.6663C36.8505 42.6663 32.075 37.8906 32.075 31.9996Z" fill="#00BCFF"/>
<path d="M10.7416 53.3338C10.7416 47.4428 15.5172 42.6671 21.4082 42.6671L27.0926 39.666L32.0748 42.6671V53.3338C32.0748 59.2249 27.2992 64.0004 21.4082 64.0004C15.5172 64.0004 10.7416 59.2248 10.7416 53.3338Z" fill="#00CF7F"/>
<path d="M32.0749 0L26.2706 10.0837L32.0749 21.3333H42.5919C48.483 21.3333 53.2585 16.5576 53.2585 10.6666C53.2585 4.77563 48.4829 0 42.5919 0H32.0749Z" fill="#FF7361"/>
<path d="M10.5918 10.6666C10.5918 16.5576 15.3674 21.3333 21.2584 21.3333L26.9168 23.5187L32.0747 21.3333V0H21.2583C15.3674 0 10.5918 4.77563 10.5918 10.6666Z" fill="#FF4D12"/>
<path d="M10.7416 31.9998C10.7416 37.8909 15.5172 42.6664 21.4082 42.6664H32.0748V21.333H21.4082C15.5172 21.333 10.7416 26.1088 10.7416 31.9998Z" fill="#B659FF"/>
</svg>
