<svg width="64" height="64" viewBox="0 0 64 64" fill="none" xmlns="http://www.w3.org/2000/svg">
<g clip-path="url(#clip0_450_904)">
<path d="M4.02952 2.11866L8.18325 55.2581C8.2456 56.0561 8.78573 56.7365 9.54876 56.9785L31.4058 63.9082C31.7923 64.0307 32.2073 64.0307 32.5938 63.9082L54.4508 56.9785C55.2138 56.7365 55.7539 56.0561 55.8163 55.2581L59.97 2.11866C60.0594 0.976185 59.1564 0 58.0106 0H5.98911C4.84325 0 3.94033 0.976185 4.02952 2.11866ZM49.3181 18.606H22.2474L23.0644 26.1397H48.7293L47.0504 47.6171L31.9998 52.3888L16.9493 47.6171L16.0722 36.3964H23.9719V41.9004L32.2109 44.1116L40.4008 41.9004L41.0361 33.1287H15.8167L14.1424 11.7076H49.8572L49.3181 18.606Z" fill="#FC490B"/>
</g>
<defs>
<clipPath id="clip0_450_904">
<rect width="64" height="64" fill="white"/>
</clipPath>
</defs>
</svg>
