<svg width="64" height="64" viewBox="0 0 64 64" fill="none" xmlns="http://www.w3.org/2000/svg">
<path d="M52.8328 31.9991C55.641 28.9297 57.6002 25.8603 58.3185 23.1828C58.9063 20.9623 58.7104 18.9379 57.7961 17.3052C55.4451 13.2562 49.4369 12.6685 42.4491 14.1705C40.2287 7.37868 36.7675 2.61133 32.0002 2.61133C27.6247 2.61133 23.9022 7.05214 21.5512 14.2358C20.7022 14.0399 19.9185 13.9093 19.0696 13.7787C12.6696 12.8644 8.03282 14.1052 6.20424 17.3705C5.28996 19.0032 5.09404 21.0277 5.6818 23.2481C6.40016 25.9909 8.35935 28.995 11.1675 32.0644C8.35935 35.1338 6.40016 38.2032 5.6818 40.8807C5.09404 43.1011 5.28996 45.1256 6.20424 46.7583C7.70629 49.3052 10.841 50.6113 15.2165 50.6113C16.392 50.6113 17.6981 50.4807 19.0696 50.2848C19.8532 50.1542 20.7022 50.0236 21.5512 49.8277C23.8369 57.0113 27.6247 61.4521 32.0002 61.4521C36.7675 61.4521 40.2287 56.6195 42.3838 49.8277C44.6696 50.3501 46.8247 50.6113 48.8492 50.6113C52.9634 50.6113 56.1634 49.4358 57.7961 46.693C58.7104 45.1256 58.9063 43.1011 58.3185 40.8807C57.6002 38.0726 55.641 35.1338 52.8328 31.9991ZM9.60016 44.7338C9.20833 44.0154 9.14302 43.0358 9.46955 41.8603C9.992 39.9664 11.494 37.4848 13.9104 34.7419C15.543 36.244 17.4369 37.746 19.3961 39.1828C19.6573 41.5991 19.9838 43.8848 20.5063 46.0399C14.89 47.2154 10.7757 46.7583 9.60016 44.7338ZM16.6532 31.9991C17.3716 31.346 18.2206 30.6277 19.0696 29.9746C19.0696 30.6277 19.0696 31.346 19.0696 31.9991C19.0696 32.7175 19.0696 33.3705 19.0696 34.0236C18.2206 33.3052 17.4369 32.6521 16.6532 31.9991ZM19.3961 24.8154C17.3716 26.2521 15.543 27.7542 13.9104 29.2562C11.4287 26.5787 9.992 24.097 9.46955 22.1379C9.14302 20.9624 9.20833 19.9828 9.60016 19.2644C10.3185 17.9583 12.343 17.3052 15.0859 17.3052C16.6532 17.3052 18.4818 17.5011 20.5063 17.9583C20.0491 20.1134 19.6573 22.3991 19.3961 24.8154ZM40.2287 21.8766C39.641 21.5501 39.0532 21.1583 38.4655 20.8317C37.8777 20.5705 37.29 20.244 36.7022 19.9175C37.6818 19.5256 38.7267 19.1991 39.641 18.8726C39.8369 19.9175 40.0328 20.897 40.2287 21.8766ZM26.0573 13.3868C27.7553 9.07663 29.9757 6.5297 32.0002 6.5297C34.0247 6.5297 36.2451 9.07663 37.943 13.3215C38.2042 13.9093 38.4002 14.5623 38.6614 15.2154C36.5063 15.8685 34.2859 16.7175 32.0655 17.697C29.8451 16.7175 27.5594 15.8685 25.4042 15.2154C25.6002 14.497 25.7961 13.9093 26.0573 13.3868ZM24.3594 18.9379C25.3389 19.1991 26.2532 19.5909 27.2981 19.9175C26.7104 20.244 26.1226 20.5705 25.5349 20.897C24.9471 21.2236 24.3594 21.6154 23.7716 21.9419C23.9675 20.897 24.1634 19.9175 24.3594 18.9379ZM23.7716 42.1215C24.3594 42.4481 24.9471 42.8399 25.5349 43.1664C26.1226 43.493 26.7104 43.8195 27.2981 44.146C26.3185 44.5379 25.3389 44.8644 24.3594 45.1256C24.1634 44.0807 23.9675 43.1011 23.7716 42.1215ZM37.943 50.8073C36.2451 55.0522 34.0247 57.5991 32.0002 57.5991C29.9757 57.5991 27.7553 55.0521 26.0573 50.7419C25.7961 50.1542 25.6002 49.5011 25.4042 48.8481C27.5594 48.195 29.7798 47.346 32.0655 46.3664C34.2859 47.346 36.5063 48.195 38.6614 48.8481C38.4002 49.5011 38.2042 50.1542 37.943 50.8073ZM39.641 45.0603C38.6614 44.7338 37.6818 44.4072 36.7022 44.0154C37.29 43.6889 37.8777 43.3624 38.4655 43.0358C39.0532 42.7746 39.641 42.3828 40.2287 42.0562C40.0328 43.1011 39.8369 44.0807 39.641 45.0603ZM40.8165 37.093C39.5104 38.0072 38.0736 38.9215 36.5063 39.7705C35.0042 40.6195 33.4369 41.4032 32.0002 42.1215C30.4981 41.4032 28.9961 40.6195 27.494 39.7705C25.9267 38.9215 24.5553 38.0072 23.1838 37.093C23.0532 35.4603 22.9879 33.7624 22.9879 32.0644C22.9879 30.3664 23.0532 28.6685 23.1838 27.0358C24.5553 26.1215 25.9267 25.2726 27.494 24.3583C28.9961 23.5093 30.4981 22.7256 32.0002 22.0072C33.5022 22.7256 35.0042 23.5093 36.5063 24.3583C38.0736 25.2072 39.4451 26.1215 40.8165 27.0358C40.9471 28.6685 41.0124 30.3664 41.0124 32.0644C41.0124 33.7624 40.9471 35.395 40.8165 37.093ZM48.8492 17.3052C51.6573 17.3052 53.6818 18.0236 54.4655 19.3297C54.8573 20.0481 54.9226 21.0277 54.5961 22.2032C54.0736 24.097 52.5716 26.5787 50.1553 29.3215C48.5226 27.8195 46.6287 26.3175 44.6043 24.8807C44.343 22.5297 43.9512 20.1787 43.494 18.0236C45.4532 17.5011 47.2818 17.3052 48.8492 17.3052ZM44.8655 30.0399C45.7145 30.693 46.4981 31.346 47.2818 31.9991C46.5634 32.6521 45.7145 33.3705 44.8655 34.0236C44.8655 33.3052 44.9308 32.6521 44.9308 31.9991C44.9308 31.346 44.9308 30.693 44.8655 30.0399ZM54.4002 44.7338C53.2247 46.7583 49.1104 47.2807 43.4287 46.1052C43.9512 43.8848 44.2777 41.5991 44.5389 39.2481C46.5634 37.8113 48.392 36.3093 50.09 34.8072C52.5716 37.4848 54.0083 39.9664 54.5308 41.9256C54.8573 43.1011 54.792 44.0807 54.4002 44.7338Z" fill="#61DAFB"/>
<path d="M52.8328 31.9991C55.641 28.9297 57.6002 25.8603 58.3185 23.1828C58.9063 20.9623 58.7104 18.9379 57.7961 17.3052C55.4451 13.2562 49.4369 12.6685 42.4491 14.1705C40.2287 7.37868 36.7675 2.61133 32.0002 2.61133C27.6247 2.61133 23.9022 7.05214 21.5512 14.2358C20.7022 14.0399 19.9185 13.9093 19.0696 13.7787C12.6696 12.8644 8.03282 14.1052 6.20424 17.3705C5.28996 19.0032 5.09404 21.0277 5.6818 23.2481C6.40016 25.9909 8.35935 28.995 11.1675 32.0644C8.35935 35.1338 6.40016 38.2032 5.6818 40.8807C5.09404 43.1011 5.28996 45.1256 6.20424 46.7583C7.70629 49.3052 10.841 50.6113 15.2165 50.6113C16.392 50.6113 17.6981 50.4807 19.0696 50.2848C19.8532 50.1542 20.7022 50.0236 21.5512 49.8277C23.8369 57.0113 27.6247 61.4521 32.0002 61.4521C36.7675 61.4521 40.2287 56.6195 42.3838 49.8277C44.6696 50.3501 46.8247 50.6113 48.8492 50.6113C52.9634 50.6113 56.1634 49.4358 57.7961 46.693C58.7104 45.1256 58.9063 43.1011 58.3185 40.8807C57.6002 38.0726 55.641 35.1338 52.8328 31.9991ZM9.60016 44.7338C9.20833 44.0154 9.14302 43.0358 9.46955 41.8603C9.992 39.9664 11.494 37.4848 13.9104 34.7419C15.543 36.244 17.4369 37.746 19.3961 39.1828C19.6573 41.5991 19.9838 43.8848 20.5063 46.0399C14.89 47.2154 10.7757 46.7583 9.60016 44.7338ZM16.6532 31.9991C17.3716 31.346 18.2206 30.6277 19.0696 29.9746C19.0696 30.6277 19.0696 31.346 19.0696 31.9991C19.0696 32.7175 19.0696 33.3705 19.0696 34.0236C18.2206 33.3052 17.4369 32.6521 16.6532 31.9991ZM19.3961 24.8154C17.3716 26.2521 15.543 27.7542 13.9104 29.2562C11.4287 26.5787 9.992 24.097 9.46955 22.1379C9.14302 20.9624 9.20833 19.9828 9.60016 19.2644C10.3185 17.9583 12.343 17.3052 15.0859 17.3052C16.6532 17.3052 18.4818 17.5011 20.5063 17.9583C20.0491 20.1134 19.6573 22.3991 19.3961 24.8154ZM40.2287 21.8766C39.641 21.5501 39.0532 21.1583 38.4655 20.8317C37.8777 20.5705 37.29 20.244 36.7022 19.9175C37.6818 19.5256 38.7267 19.1991 39.641 18.8726C39.8369 19.9175 40.0328 20.897 40.2287 21.8766ZM26.0573 13.3868C27.7553 9.07663 29.9757 6.5297 32.0002 6.5297C34.0247 6.5297 36.2451 9.07663 37.943 13.3215C38.2042 13.9093 38.4002 14.5623 38.6614 15.2154C36.5063 15.8685 34.2859 16.7175 32.0655 17.697C29.8451 16.7175 27.5594 15.8685 25.4042 15.2154C25.6002 14.497 25.7961 13.9093 26.0573 13.3868ZM24.3594 18.9379C25.3389 19.1991 26.2532 19.5909 27.2981 19.9175C26.7104 20.244 26.1226 20.5705 25.5349 20.897C24.9471 21.2236 24.3594 21.6154 23.7716 21.9419C23.9675 20.897 24.1634 19.9175 24.3594 18.9379ZM23.7716 42.1215C24.3594 42.4481 24.9471 42.8399 25.5349 43.1664C26.1226 43.493 26.7104 43.8195 27.2981 44.146C26.3185 44.5379 25.3389 44.8644 24.3594 45.1256C24.1634 44.0807 23.9675 43.1011 23.7716 42.1215ZM37.943 50.8073C36.2451 55.0522 34.0247 57.5991 32.0002 57.5991C29.9757 57.5991 27.7553 55.0521 26.0573 50.7419C25.7961 50.1542 25.6002 49.5011 25.4042 48.8481C27.5594 48.195 29.7798 47.346 32.0655 46.3664C34.2859 47.346 36.5063 48.195 38.6614 48.8481C38.4002 49.5011 38.2042 50.1542 37.943 50.8073ZM39.641 45.0603C38.6614 44.7338 37.6818 44.4072 36.7022 44.0154C37.29 43.6889 37.8777 43.3624 38.4655 43.0358C39.0532 42.7746 39.641 42.3828 40.2287 42.0562C40.0328 43.1011 39.8369 44.0807 39.641 45.0603ZM40.8165 37.093C39.5104 38.0072 38.0736 38.9215 36.5063 39.7705C35.0042 40.6195 33.4369 41.4032 32.0002 42.1215C30.4981 41.4032 28.9961 40.6195 27.494 39.7705C25.9267 38.9215 24.5553 38.0072 23.1838 37.093C23.0532 35.4603 22.9879 33.7624 22.9879 32.0644C22.9879 30.3664 23.0532 28.6685 23.1838 27.0358C24.5553 26.1215 25.9267 25.2726 27.494 24.3583C28.9961 23.5093 30.4981 22.7256 32.0002 22.0072C33.5022 22.7256 35.0042 23.5093 36.5063 24.3583C38.0736 25.2072 39.4451 26.1215 40.8165 27.0358C40.9471 28.6685 41.0124 30.3664 41.0124 32.0644C41.0124 33.7624 40.9471 35.395 40.8165 37.093ZM48.8492 17.3052C51.6573 17.3052 53.6818 18.0236 54.4655 19.3297C54.8573 20.0481 54.9226 21.0277 54.5961 22.2032C54.0736 24.097 52.5716 26.5787 50.1553 29.3215C48.5226 27.8195 46.6287 26.3175 44.6043 24.8807C44.343 22.5297 43.9512 20.1787 43.494 18.0236C45.4532 17.5011 47.2818 17.3052 48.8492 17.3052ZM44.8655 30.0399C45.7145 30.693 46.4981 31.346 47.2818 31.9991C46.5634 32.6521 45.7145 33.3705 44.8655 34.0236C44.8655 33.3052 44.9308 32.6521 44.9308 31.9991C44.9308 31.346 44.9308 30.693 44.8655 30.0399ZM54.4002 44.7338C53.2247 46.7583 49.1104 47.2807 43.4287 46.1052C43.9512 43.8848 44.2777 41.5991 44.5389 39.2481C46.5634 37.8113 48.392 36.3093 50.09 34.8072C52.5716 37.4848 54.0083 39.9664 54.5308 41.9256C54.8573 43.1011 54.792 44.0807 54.4002 44.7338Z" fill="#61DAFB"/>
<path d="M32.0006 26.1211C28.7353 26.1211 26.123 28.7333 26.123 31.9986C26.123 35.264 28.7353 37.8762 32.0006 37.8762C35.2659 37.8762 37.8781 35.264 37.8781 31.9986C37.8781 28.7333 35.2659 26.1211 32.0006 26.1211ZM32.0006 33.9578C30.8904 33.9578 30.0414 33.1089 30.0414 31.9986C30.0414 30.8884 30.8904 30.0395 32.0006 30.0395C33.1108 30.0395 33.9598 30.8884 33.9598 31.9986C33.9598 33.1089 33.1108 33.9578 32.0006 33.9578Z" fill="#61DAFB"/>
<path d="M32.0006 26.1211C28.7353 26.1211 26.123 28.7333 26.123 31.9986C26.123 35.264 28.7353 37.8762 32.0006 37.8762C35.2659 37.8762 37.8781 35.264 37.8781 31.9986C37.8781 28.7333 35.2659 26.1211 32.0006 26.1211ZM32.0006 33.9578C30.8904 33.9578 30.0414 33.1089 30.0414 31.9986C30.0414 30.8884 30.8904 30.0395 32.0006 30.0395C33.1108 30.0395 33.9598 30.8884 33.9598 31.9986C33.9598 33.1089 33.1108 33.9578 32.0006 33.9578Z" fill="#61DAFB"/>
</svg>
