<svg width="56" height="55" viewBox="0 0 56 55" fill="none" xmlns="http://www.w3.org/2000/svg">
<ellipse cx="27.8198" cy="27.5" rx="27.8198" ry="27.5" fill="#16313A"/>
<path d="M28.7634 48.5326C25.5889 48.5326 22.6439 48.0344 19.9284 47.0382C17.2511 46.0036 14.918 44.5475 12.9292 42.6699C10.9786 40.7923 9.44869 38.589 8.33953 36.06C7.23036 33.4926 6.67578 30.6762 6.67578 27.6108C6.67578 24.5453 7.23036 21.7481 8.33953 19.2191C9.44869 16.6517 10.9786 14.4293 12.9292 12.5517C14.918 10.6741 17.2511 9.23713 19.9284 8.24086C22.6439 7.20626 25.5889 6.68896 28.7634 6.68896C32.4734 6.68896 35.7818 7.34038 38.6885 8.6432C41.6336 9.94602 44.0814 11.8236 46.032 14.276L38.8033 20.8284C37.5029 19.2957 36.0686 18.127 34.5005 17.3223C32.9706 16.5176 31.2495 16.1153 29.3371 16.1153C27.6925 16.1153 26.1818 16.3835 24.8049 16.92C23.428 17.4564 22.2423 18.2419 21.2479 19.2765C20.2917 20.2728 19.5268 21.4798 18.9531 22.8976C18.4176 24.3154 18.1499 25.8864 18.1499 27.6108C18.1499 29.3351 18.4176 30.9061 18.9531 32.3239C19.5268 33.7417 20.2917 34.9679 21.2479 36.0025C22.2423 36.9988 23.428 37.7651 24.8049 38.3016C26.1818 38.838 27.6925 39.1063 29.3371 39.1063C31.2495 39.1063 32.9706 38.7039 34.5005 37.8992C36.0686 37.0946 37.5029 35.9258 38.8033 34.3931L46.032 40.9455C44.0814 43.3596 41.6336 45.2372 38.6885 46.5783C35.7818 47.8812 32.4734 48.5326 28.7634 48.5326Z" fill="white"/>
<ellipse cx="29.6748" cy="27.5002" rx="6.67674" ry="6.68919" fill="#EF4335"/>
</svg>
