<svg width="48" height="48" viewBox="0 0 48 48" fill="none" xmlns="http://www.w3.org/2000/svg">
<path d="M31.1799 24.52C36.8464 24.52 41.4399 19.9265 41.4399 14.26C41.4399 8.59357 36.8464 4 31.1799 4C25.5135 4 20.9199 8.59357 20.9199 14.26C20.9199 19.9265 25.5135 24.52 31.1799 24.52Z" stroke="#0360B2" strokeWidth="1.5" strokeMiterlimit="10"/>
<path d="M12.72 38.8806C16.1221 38.8806 18.8801 36.1226 18.8801 32.7206C18.8801 29.3185 16.1221 26.5605 12.72 26.5605C9.31796 26.5605 6.56006 29.3185 6.56006 32.7206C6.56006 36.1226 9.31796 38.8806 12.72 38.8806Z" stroke="#7DE2B7" strokeWidth="1.5" strokeMiterlimit="10"/>
<path d="M33.24 43.9998C36.0677 43.9998 38.36 41.7075 38.36 38.8798C38.36 36.0521 36.0677 33.7598 33.24 33.7598C30.4123 33.7598 28.12 36.0521 28.12 38.8798C28.12 41.7075 30.4123 43.9998 33.24 43.9998Z" stroke="#7DE2B7" strokeWidth="1.5" strokeMiterlimit="10"/>
</svg>
