<svg width="40" height="100" viewBox="0 0 40 100" fill="none" xmlns="http://www.w3.org/2000/svg">
<path d="M0 23.8639C0.320988 23.8752 0.64198 23.5452 0.788912 24.0583C1.09408 25.679 0.0180891 26.9811 0.323254 28.6019L0.840898 28.7194C0.61485 29.974 0.330033 31.2783 0.088162 32.6142C0.163511 35.0691 0.28708 37.5134 0.458877 39.9472C0.648757 39.8839 0.822817 39.8545 0.892892 40.0964C1.03078 41.1091 0.849944 42.5106 0.795693 43.9641C0.825079 44.1766 0.856722 44.3913 0.883848 44.6038C0.985238 44.7288 1.13103 44.8098 1.29074 44.8298C1.27265 45.4876 1.22292 46.0708 1.16867 46.6133C2.18815 53.7429 3.38846 60.9832 4.57521 68.8316C5.05217 70.4908 5.52913 72.1523 5.7484 73.7504C5.94732 76.1194 5.60825 79.1439 5.54948 81.4541C7.38047 81.0992 8.27788 86.7301 10.1292 85.6066C10.0908 87.146 10.0297 89.4494 10.5474 89.576C12.1003 89.9354 13.8929 91.1199 14.8287 95.2091C15.0548 96.8096 14.3947 99.278 14.7089 99.8318C15.2062 100.72 15.803 97.7567 16.3026 98.6451C16.8632 86.7504 16.1896 75.2966 16.2054 63.3206C15.3939 59.2517 15.0367 31.7484 15.3961 24.6867C15.3961 24.472 15.3825 24.2572 15.3735 24.0447C15.473 20.1906 15.3351 15.5114 14.6366 12.2518C14.2071 10.7554 13.6827 9.23632 13.1763 7.73084C12.8734 8.43385 12.5728 9.08712 12.2721 9.65224C12.3128 8.1106 12.3513 6.56895 12.0212 5.97671C11.2368 2.69675 10.3213 4.55486 9.08261 5.81621C8.53783 6.7204 7.69919 5.49748 7.14311 6.91933C7.17024 5.89533 7.18154 5.37994 7.21092 4.35142C6.69101 4.23388 7.4754 7.51609 6.62546 6.80178C6.82438 5.81395 6.50565 4.70631 6.53278 3.68232C5.82977 4.03721 6.26831 7.23579 5.5766 7.07304C5.41611 6.51922 6.51922 4.19093 5.65572 3.99201C5.48392 3.95358 5.4568 4.97983 5.44323 5.49296C5.17876 2.32829 4.35595 0.592247 3.4088 3.47662C3.43367 2.47523 3.79987 1.0579 3.68232 0L3.66876 0C3.63937 0.528952 3.46079 1.43993 3.44271 1.92819L3.49018 0.119805C3.36811 0.214745 3.25057 0.323247 3.13076 0.436271C3.01557 0.883892 2.94664 1.34216 2.92506 1.80386C2.92506 1.40601 2.94541 1.00591 2.95671 0.605807C2.66033 0.92442 2.38972 1.26607 2.14745 1.62754C1.59138 3.04938 0.775343 4.41245 0.754999 5.18102C0.345852 11.4109 0.0565119 17.6543 0 23.8639Z" fill="url(#paint0_linear_1247_2441)"/>
<path d="M23.0088 23.8639C23.3298 23.8752 23.6508 23.5452 23.8 24.0583C24.1029 25.679 23.0269 26.9811 23.332 28.6019L23.8519 28.7194C23.6259 29.974 23.3411 31.2783 23.097 32.6142C23.1723 35.0691 23.2966 37.5134 23.4699 39.9472C23.6598 39.8839 23.8339 39.8545 23.9017 40.0964C24.0418 41.1091 23.8587 42.5106 23.8045 43.9641C23.8361 44.1766 23.8655 44.3913 23.8949 44.6038C23.9954 44.7287 24.1405 44.8097 24.2995 44.8298C24.2837 45.4876 24.234 46.0708 24.1775 46.6133C25.1992 53.7429 26.3995 60.9832 27.584 68.8316C28.0632 70.4908 28.5402 72.1523 28.7595 73.7504C28.9584 76.1194 28.6193 79.1439 28.5583 81.4541C30.3915 81.0992 31.2867 86.7301 33.1403 85.6066C33.0996 87.146 33.0385 89.4494 33.5584 89.576C35.1114 89.9354 36.9017 91.1199 37.8375 95.2091C38.0636 96.8096 37.4035 99.278 37.7177 99.8318C38.215 100.72 38.8141 97.7567 39.3001 98.6451C39.8629 86.7504 39.1893 75.2966 39.2029 63.3206C38.3914 59.2517 38.0342 31.7484 38.3936 24.6867C38.3936 24.472 38.3801 24.2572 38.371 24.0447C38.4727 20.1906 38.3326 15.5114 37.6364 12.2518C37.2046 10.7554 36.6802 9.23632 36.1738 7.73084C35.8732 8.43385 35.5703 9.08712 35.2696 9.65224C35.3081 8.1106 35.3488 6.56895 35.0165 5.97671C34.2343 2.69675 33.3166 4.55486 32.0778 5.81621C31.5331 6.7204 30.6967 5.49748 30.1406 6.91933C30.1655 5.89533 30.179 5.37994 30.2062 4.35142C29.6885 4.23388 30.4706 7.51609 29.6207 6.80178C29.8196 5.81395 29.5031 4.70631 29.5303 3.68232C28.825 4.03721 29.2635 7.23579 28.5718 7.07304C28.4136 6.51922 29.5167 4.19093 28.6532 3.99201C28.4791 3.95358 28.4543 4.97983 28.4407 5.49296C28.174 2.32829 27.3512 0.592247 26.4063 3.47662C26.4334 2.47523 26.7996 1.0579 26.6798 0L26.6662 0C26.6369 0.528952 26.4583 1.43993 26.4402 1.92819C26.456 1.32916 26.4718 0.725614 26.4877 0.119805C26.3656 0.214745 26.2458 0.323247 26.126 0.436271C26.0104 0.883745 25.9423 1.34213 25.9226 1.80386C25.9226 1.40601 25.9429 1.00591 25.9519 0.605807C25.6563 0.924473 25.3865 1.26613 25.1449 1.62754C24.5866 3.04938 23.7706 4.41245 23.7502 5.18102C23.3569 11.4109 23.0676 17.6543 23.0088 23.8639Z" fill="url(#paint1_linear_1247_2441)"/>
<defs>
<linearGradient id="paint0_linear_1247_2441" x1="8.26293" y1="0" x2="8.26293" y2="100" gradientUnits="userSpaceOnUse">
<stop offset="0.25" stop-color="#1DBF73"/>
<stop offset="1" stop-color="#0071D7"/>
</linearGradient>
<linearGradient id="paint1_linear_1247_2441" x1="31.2668" y1="0" x2="31.2668" y2="100" gradientUnits="userSpaceOnUse">
<stop offset="0.25" stop-color="#1DBF73"/>
<stop offset="1" stop-color="#0071D7"/>
</linearGradient>
</defs>
</svg>
