<svg width="102" height="25" viewBox="0 0 102 25" fill="none" xmlns="http://www.w3.org/2000/svg">
<path d="M2.12543 17.3672V5.59014H7.27369C8.55234 5.59014 9.67396 5.8369 10.6386 6.33041C11.6032 6.82393 12.3546 7.50812 12.893 8.38298C13.4314 9.25785 13.7006 10.2897 13.7006 11.4787C13.7006 12.6564 13.4314 13.6883 12.893 14.5743C12.3546 15.4492 11.6032 16.1334 10.6386 16.6269C9.67396 17.1204 8.55234 17.3672 7.27369 17.3672H2.12543ZM4.3126 15.5165H7.17274C8.05882 15.5165 8.82153 15.3483 9.46085 15.0118C10.1114 14.6753 10.6105 14.2042 10.9582 13.5985C11.3171 12.9929 11.4966 12.2862 11.4966 11.4787C11.4966 10.6599 11.3171 9.95326 10.9582 9.3588C10.6105 8.75312 10.1114 8.28204 9.46085 7.94555C8.82153 7.60906 8.05882 7.44082 7.17274 7.44082H4.3126V15.5165ZM16.1598 17.3672V8.38298H18.2629V17.3672H16.1598ZM17.2198 6.90244C16.8272 6.90244 16.5019 6.77906 16.244 6.5323C15.9972 6.28555 15.8738 5.98832 15.8738 5.64061C15.8738 5.28169 15.9972 4.98446 16.244 4.74892C16.5019 4.50217 16.8272 4.37879 17.2198 4.37879C17.6123 4.37879 17.932 4.49656 18.1788 4.7321C18.4367 4.95642 18.5657 5.24244 18.5657 5.59014C18.5657 5.96028 18.4423 6.27433 18.1956 6.5323C17.9488 6.77906 17.6236 6.90244 17.2198 6.90244ZM26.8948 17.3672V15.5502L26.7771 15.1632V11.9834C26.7771 11.3665 26.592 10.8898 26.2218 10.5533C25.8517 10.2056 25.2909 10.0318 24.5394 10.0318C24.0347 10.0318 23.5356 10.1103 23.042 10.2673C22.5597 10.4243 22.1504 10.6431 21.8139 10.9235L20.9895 9.39244C21.4718 9.02231 22.0438 8.74751 22.7056 8.56805C23.3785 8.37738 24.0739 8.28204 24.7918 8.28204C26.0929 8.28204 27.0967 8.59609 27.8033 9.2242C28.5212 9.84109 28.8801 10.8001 28.8801 12.1012V17.3672H26.8948ZM24.0683 17.485C23.3954 17.485 22.8065 17.3728 22.3018 17.1485C21.797 16.9129 21.4045 16.5933 21.1241 16.1895C20.8549 15.7745 20.7203 15.309 20.7203 14.7931C20.7203 14.2883 20.8381 13.8341 21.0736 13.4303C21.3204 13.0265 21.7185 12.7068 22.2681 12.4713C22.8177 12.2358 23.5468 12.118 24.4553 12.118H27.0631V13.5144H24.6067C23.8889 13.5144 23.4066 13.6322 23.1598 13.8677C22.9131 14.092 22.7897 14.3725 22.7897 14.7089C22.7897 15.0903 22.9411 15.3931 23.2439 15.6175C23.5468 15.8418 23.9674 15.9539 24.5058 15.9539C25.0217 15.9539 25.4816 15.8362 25.8854 15.6006C26.3004 15.3651 26.5976 15.0174 26.7771 14.5575L27.1304 15.8193C26.9285 16.3465 26.5639 16.7559 26.0368 17.0475C25.5208 17.3391 24.8647 17.485 24.0683 17.485ZM31.9156 17.3672V4.88352H34.0186V17.3672H31.9156Z" fill="#0E100E"/>
<path d="M37.5023 17.3672V5.59014H38.8819L44.1648 14.4902H43.4245L48.64 5.59014H50.0196L50.0365 17.3672H48.4213L48.4045 8.13062H48.7915L44.1479 15.9371H43.374L38.6968 8.13062H39.1175V17.3672H37.5023ZM57.491 17.4681C56.5937 17.4681 55.7973 17.2718 55.1019 16.8793C54.4065 16.4867 53.8569 15.9483 53.4531 15.2641C53.0493 14.5687 52.8474 13.7836 52.8474 12.9087C52.8474 12.0227 53.0493 11.2375 53.4531 10.5533C53.8569 9.86913 54.4065 9.33636 55.1019 8.95501C55.7973 8.56244 56.5937 8.36616 57.491 8.36616C58.377 8.36616 59.1678 8.56244 59.8632 8.95501C60.5698 9.33636 61.1194 9.86913 61.512 10.5533C61.9158 11.2263 62.1177 12.0114 62.1177 12.9087C62.1177 13.7948 61.9158 14.58 61.512 15.2641C61.1194 15.9483 60.5698 16.4867 59.8632 16.8793C59.1678 17.2718 58.377 17.4681 57.491 17.4681ZM57.491 16.0549C58.063 16.0549 58.5733 15.9259 59.022 15.6679C59.4818 15.41 59.8408 15.0454 60.0987 14.5743C60.3567 14.092 60.4857 13.5368 60.4857 12.9087C60.4857 12.2694 60.3567 11.7198 60.0987 11.2599C59.8408 10.7889 59.4818 10.4243 59.022 10.1664C58.5733 9.90839 58.063 9.7794 57.491 9.7794C56.9189 9.7794 56.4086 9.90839 55.9599 10.1664C55.5113 10.4243 55.1524 10.7889 54.8832 11.2599C54.614 11.7198 54.4794 12.2694 54.4794 12.9087C54.4794 13.5368 54.614 14.092 54.8832 14.5743C55.1524 15.0454 55.5113 15.41 55.9599 15.6679C56.4086 15.9259 56.9189 16.0549 57.491 16.0549ZM66.78 17.3672L62.8767 8.45028H64.5592L68.025 16.526H67.2174L70.7505 8.45028H72.332L68.4288 17.3672H66.78ZM74.1759 17.3672V8.45028H75.791V17.3672H74.1759ZM74.9834 6.7342C74.6694 6.7342 74.4058 6.63325 74.1927 6.43136C73.9908 6.22947 73.8898 5.98271 73.8898 5.69109C73.8898 5.38825 73.9908 5.13588 74.1927 4.93399C74.4058 4.7321 74.6694 4.63115 74.9834 4.63115C75.2975 4.63115 75.5554 4.7321 75.7573 4.93399C75.9705 5.12467 76.077 5.36582 76.077 5.65744C76.077 5.96028 75.9761 6.21825 75.7742 6.43136C75.5723 6.63325 75.3087 6.7342 74.9834 6.7342ZM83.9726 8.36616C84.7017 8.36616 85.341 8.50636 85.8906 8.78677C86.4514 9.06717 86.8888 9.49339 87.2029 10.0654C87.517 10.6374 87.674 11.3609 87.674 12.2358V17.3672H86.0588V12.4208C86.0588 11.5572 85.8457 10.9066 85.4195 10.4692C85.0045 10.0318 84.4157 9.81305 83.653 9.81305C83.0809 9.81305 82.5818 9.92522 82.1556 10.1495C81.7294 10.3739 81.3985 10.7047 81.163 11.1422C80.9386 11.5796 80.8265 12.1236 80.8265 12.7741V17.3672H79.2113V8.45028H80.7592V10.8562L80.5068 10.2168C80.7984 9.63359 81.2471 9.17934 81.8528 8.85406C82.4584 8.52879 83.1651 8.36616 83.9726 8.36616ZM94.9028 20.7321C94.084 20.7321 93.2877 20.6143 92.5137 20.3787C91.751 20.1544 91.1285 19.8292 90.6462 19.4029L91.4202 18.1579C91.8352 18.5169 92.3455 18.7973 92.9512 18.9991C93.5569 19.2123 94.1906 19.3188 94.8523 19.3188C95.9067 19.3188 96.6806 19.0721 97.1741 18.5785C97.6676 18.085 97.9144 17.3335 97.9144 16.3241V14.4398L98.0826 12.6732L97.9985 10.8898V8.45028H99.5295V16.1558C99.5295 17.7261 99.1369 18.8814 98.3518 19.6217C97.5667 20.3619 96.417 20.7321 94.9028 20.7321ZM94.7009 16.9971C93.8373 16.9971 93.0633 16.8176 92.3791 16.4587C91.7062 16.0885 91.1678 15.5782 90.764 14.9277C90.3714 14.2771 90.1752 13.5256 90.1752 12.6732C90.1752 11.8095 90.3714 11.0581 90.764 10.4187C91.1678 9.76819 91.7062 9.26346 92.3791 8.90454C93.0633 8.54562 93.8373 8.36616 94.7009 8.36616C95.4636 8.36616 96.159 8.52319 96.7871 8.83724C97.4152 9.14008 97.9144 9.61116 98.2845 10.2505C98.6658 10.8898 98.8565 11.6974 98.8565 12.6732C98.8565 13.6378 98.6658 14.4398 98.2845 15.0791C97.9144 15.7184 97.4152 16.2007 96.7871 16.526C96.159 16.84 95.4636 16.9971 94.7009 16.9971ZM94.886 15.5838C95.4804 15.5838 96.0076 15.4604 96.4675 15.2137C96.9273 14.9669 97.2863 14.6248 97.5442 14.1874C97.8134 13.75 97.948 13.2452 97.948 12.6732C97.948 12.1012 97.8134 11.5964 97.5442 11.159C97.2863 10.7216 96.9273 10.3851 96.4675 10.1495C96.0076 9.90278 95.4804 9.7794 94.886 9.7794C94.2915 9.7794 93.7587 9.90278 93.2877 10.1495C92.8278 10.3851 92.4633 10.7216 92.1941 11.159C91.9361 11.5964 91.8071 12.1012 91.8071 12.6732C91.8071 13.2452 91.9361 13.75 92.1941 14.1874C92.4633 14.6248 92.8278 14.9669 93.2877 15.2137C93.7587 15.4604 94.2915 15.5838 94.886 15.5838Z" fill="#48CFAD"/>
<path d="M2.04492 23.7296L100.306 22.8281V23.7296L2.04492 24.6311V23.7296Z" fill="url(#paint0_linear_1310_4431)"/>
<defs>
<linearGradient id="paint0_linear_1310_4431" x1="1.59418" y1="23.8803" x2="100.306" y2="23.73" gradientUnits="userSpaceOnUse">
<stop stop-color="#48CFAD"/>
<stop offset="1" stop-color="#48CFAD" stop-opacity="0"/>
</linearGradient>
</defs>
</svg>
