<svg width="204" height="204" viewBox="0 0 204 204" fill="none" xmlns="http://www.w3.org/2000/svg">
<rect y="0.000976562" width="204" height="204" fill="#F8FBFF"/>
<path d="M95.4573 87.6879L99.3243 78.041H124.44L120.614 87.6879H95.4573Z" fill="#1D9FFF"/>
<path d="M87.5154 108.188L90.9552 98.541H113.296L109.893 108.188H87.5154Z" fill="#1D9FFF"/>
<path d="M54.167 77.957L34 126.857H44.728L57.4935 96.2528L68.2215 126.857H78.7416L97.9938 77.957H86.8915L74.7498 107.688L64.1049 77.957H54.167Z" fill="#1D9FFF"/>
<path d="M136.914 81.7306V78.1796H138.062V84.001H137.188L134.694 80.4416V84.001H133.546V78.1796H134.419L136.914 81.7306ZM143.133 82.3627H139.998C140.137 82.8838 140.528 83.1444 141.171 83.1444C141.581 83.1444 141.891 83.0058 142.102 82.7286L142.967 83.2276C142.557 83.8208 141.952 84.1174 141.154 84.1174C140.467 84.1174 139.915 83.9095 139.499 83.4937C139.083 83.0779 138.875 82.5539 138.875 81.9219C138.875 81.301 139.081 80.7798 139.491 80.3584C139.896 79.9371 140.422 79.7264 141.071 79.7264C141.686 79.7264 142.188 79.9371 142.576 80.3584C142.975 80.7798 143.175 81.301 143.175 81.9219C143.175 82.0383 143.161 82.1853 143.133 82.3627ZM139.981 81.531H142.102C142.041 81.2594 141.916 81.0515 141.728 80.9073C141.545 80.7632 141.326 80.6911 141.071 80.6911C140.783 80.6911 140.544 80.7659 140.356 80.9156C140.167 81.0598 140.042 81.2649 139.981 81.531ZM147.737 82.4043L148.444 79.8428H149.583L148.261 84.001H147.238L146.473 81.4811L145.707 84.001H144.685L143.362 79.8428H144.502L145.208 82.3959L145.965 79.8428H146.98L147.737 82.4043Z" fill="#1D9FFF"/>
<path d="M155.359 78.1796V78.9114H152.781V80.7992H155.251V81.531H152.781V84.001H152.008V78.1796H155.359ZM159.664 80.558V79.8428H160.388V84.001H159.664V83.2858C159.309 83.8347 158.785 84.1091 158.092 84.1091C157.505 84.1091 157.009 83.8984 156.604 83.4771C156.194 83.0501 155.988 82.5318 155.988 81.9219C155.988 81.3176 156.194 80.802 156.604 80.3751C157.014 79.9482 157.51 79.7347 158.092 79.7347C158.785 79.7347 159.309 80.0092 159.664 80.558ZM158.184 83.4105C158.605 83.4105 158.957 83.2691 159.24 82.9864C159.523 82.6925 159.664 82.3377 159.664 81.9219C159.664 81.5005 159.523 81.1485 159.24 80.8657C158.957 80.5774 158.605 80.4333 158.184 80.4333C157.768 80.4333 157.419 80.5774 157.136 80.8657C156.853 81.1485 156.712 81.5005 156.712 81.9219C156.712 82.3377 156.853 82.6925 157.136 82.9864C157.419 83.2691 157.768 83.4105 158.184 83.4105ZM163.438 84.1091C162.812 84.1091 162.291 83.9012 161.875 83.4854C161.459 83.064 161.251 82.5429 161.251 81.9219C161.251 81.301 161.459 80.7826 161.875 80.3668C162.291 79.9454 162.812 79.7347 163.438 79.7347C163.848 79.7347 164.217 79.8345 164.544 80.0341C164.871 80.2282 165.115 80.4915 165.276 80.8242L164.669 81.1734C164.564 80.9517 164.4 80.7743 164.178 80.6412C163.962 80.5081 163.715 80.4416 163.438 80.4416C163.022 80.4416 162.673 80.583 162.39 80.8657C162.113 81.154 161.975 81.5061 161.975 81.9219C161.975 82.3322 162.113 82.6815 162.39 82.9698C162.673 83.2525 163.022 83.3939 163.438 83.3939C163.715 83.3939 163.965 83.3301 164.187 83.2026C164.408 83.0696 164.578 82.8921 164.694 82.6704L165.309 83.028C165.126 83.3606 164.869 83.624 164.536 83.818C164.203 84.0121 163.837 84.1091 163.438 84.1091ZM169.959 82.2546H166.474C166.546 82.6205 166.715 82.9088 166.981 83.1195C167.248 83.3246 167.58 83.4272 167.979 83.4272C168.528 83.4272 168.927 83.2248 169.177 82.8201L169.792 83.1693C169.382 83.7958 168.772 84.1091 167.963 84.1091C167.309 84.1091 166.771 83.904 166.349 83.4937C165.939 83.0723 165.734 82.5484 165.734 81.9219C165.734 81.2899 165.936 80.7687 166.341 80.3584C166.746 79.9426 167.27 79.7347 167.913 79.7347C168.523 79.7347 169.019 79.9509 169.401 80.3834C169.79 80.8048 169.984 81.3204 169.984 81.9302C169.984 82.0356 169.975 82.1437 169.959 82.2546ZM167.913 80.4167C167.53 80.4167 167.209 80.5248 166.948 80.741C166.693 80.9572 166.535 81.2511 166.474 81.6225H169.252C169.191 81.24 169.038 80.9434 168.794 80.7327C168.55 80.522 168.257 80.4167 167.913 80.4167Z" fill="#1D9FFF"/>
</svg>
