<svg width="204" height="204" viewBox="0 0 204 204" fill="none" xmlns="http://www.w3.org/2000/svg">
<rect width="204" height="204" fill="#F8FBFF"/>
<mask id="mask0_467_978" style="mask-type:alpha" maskUnits="userSpaceOnUse" x="34" y="79" width="46" height="46">
<rect x="34" y="79" width="45.8652" height="45.8652" rx="5.29213" fill="#D9D9D9"/>
</mask>
<g mask="url(#mask0_467_978)">
<rect x="-32.8591" y="18.8428" width="179.472" height="179.472" rx="5.29213"/>
</g>
<path d="M97.428 107.112L93.0813 97.2337H94.6055L98.5993 106.35H97.7243L101.746 97.2337H103.158L98.8251 107.112H97.428ZM106.562 107.197C105.762 107.197 105.057 107.032 104.445 106.703C103.843 106.374 103.372 105.922 103.034 105.348C102.704 104.774 102.54 104.116 102.54 103.373C102.54 102.629 102.7 101.971 103.02 101.397C103.349 100.823 103.796 100.376 104.36 100.056C104.934 99.7268 105.579 99.5622 106.294 99.5622C107.018 99.5622 107.658 99.7221 108.213 100.042C108.768 100.362 109.201 100.813 109.511 101.397C109.831 101.971 109.991 102.643 109.991 103.415C109.991 103.471 109.986 103.537 109.977 103.612C109.977 103.688 109.972 103.758 109.963 103.824H103.598V102.85H109.257L108.707 103.189C108.716 102.709 108.618 102.281 108.411 101.905C108.204 101.529 107.917 101.237 107.55 101.03C107.192 100.813 106.774 100.705 106.294 100.705C105.823 100.705 105.405 100.813 105.038 101.03C104.671 101.237 104.384 101.533 104.177 101.919C103.97 102.295 103.866 102.728 103.866 103.217V103.443C103.866 103.942 103.979 104.389 104.205 104.784C104.44 105.17 104.765 105.471 105.179 105.687C105.593 105.903 106.068 106.012 106.604 106.012C107.046 106.012 107.446 105.936 107.804 105.786C108.171 105.635 108.491 105.409 108.763 105.108L109.511 105.983C109.173 106.378 108.749 106.68 108.241 106.887C107.743 107.093 107.183 107.197 106.562 107.197ZM115.443 99.5622C116.054 99.5622 116.591 99.6798 117.052 99.915C117.522 100.15 117.889 100.508 118.152 100.988C118.416 101.467 118.548 102.074 118.548 102.808V107.112H117.193V102.963C117.193 102.239 117.014 101.693 116.656 101.326C116.308 100.959 115.814 100.776 115.175 100.776C114.695 100.776 114.276 100.87 113.919 101.058C113.561 101.246 113.284 101.524 113.086 101.891C112.898 102.258 112.804 102.714 112.804 103.26V107.112H111.449V99.6328H112.747V101.651L112.536 101.115C112.78 100.625 113.157 100.244 113.665 99.9715C114.173 99.6986 114.765 99.5622 115.443 99.5622ZM123.722 107.197C122.998 107.197 122.348 107.037 121.775 106.717C121.21 106.397 120.763 105.95 120.434 105.376C120.105 104.803 119.94 104.135 119.94 103.373C119.94 102.61 120.105 101.947 120.434 101.383C120.763 100.809 121.21 100.362 121.775 100.042C122.348 99.7221 122.998 99.5622 123.722 99.5622C124.352 99.5622 124.922 99.7033 125.43 99.9856C125.938 100.268 126.342 100.691 126.643 101.256C126.954 101.82 127.109 102.526 127.109 103.373C127.109 104.219 126.958 104.925 126.657 105.489C126.366 106.054 125.966 106.482 125.458 106.774C124.95 107.056 124.371 107.197 123.722 107.197ZM123.835 106.012C124.305 106.012 124.729 105.903 125.105 105.687C125.491 105.471 125.792 105.165 126.008 104.77C126.234 104.365 126.347 103.899 126.347 103.373C126.347 102.836 126.234 102.375 126.008 101.99C125.792 101.594 125.491 101.289 125.105 101.072C124.729 100.856 124.305 100.748 123.835 100.748C123.355 100.748 122.927 100.856 122.551 101.072C122.174 101.289 121.873 101.594 121.648 101.99C121.422 102.375 121.309 102.836 121.309 103.373C121.309 103.899 121.422 104.365 121.648 104.77C121.873 105.165 122.174 105.471 122.551 105.687C122.927 105.903 123.355 106.012 123.835 106.012ZM126.389 107.112V105.094L126.474 103.358L126.333 101.623V96.6409H127.688V107.112H126.389ZM133.031 107.197C132.278 107.197 131.61 107.032 131.027 106.703C130.444 106.374 129.983 105.922 129.644 105.348C129.305 104.765 129.136 104.106 129.136 103.373C129.136 102.629 129.305 101.971 129.644 101.397C129.983 100.823 130.444 100.376 131.027 100.056C131.61 99.7268 132.278 99.5622 133.031 99.5622C133.774 99.5622 134.438 99.7268 135.021 100.056C135.614 100.376 136.075 100.823 136.404 101.397C136.743 101.961 136.912 102.62 136.912 103.373C136.912 104.116 136.743 104.774 136.404 105.348C136.075 105.922 135.614 106.374 135.021 106.703C134.438 107.032 133.774 107.197 133.031 107.197ZM133.031 106.012C133.511 106.012 133.939 105.903 134.315 105.687C134.701 105.471 135.002 105.165 135.219 104.77C135.435 104.365 135.543 103.899 135.543 103.373C135.543 102.836 135.435 102.375 135.219 101.99C135.002 101.594 134.701 101.289 134.315 101.072C133.939 100.856 133.511 100.748 133.031 100.748C132.551 100.748 132.123 100.856 131.747 101.072C131.371 101.289 131.07 101.594 130.844 101.99C130.618 102.375 130.505 102.836 130.505 103.373C130.505 103.899 130.618 104.365 130.844 104.77C131.07 105.165 131.371 105.471 131.747 105.687C132.123 105.903 132.551 106.012 133.031 106.012ZM138.362 107.112V99.6328H139.661V101.665L139.534 101.157C139.741 100.639 140.089 100.244 140.578 99.9715C141.067 99.6986 141.669 99.5622 142.384 99.5622V100.875C142.328 100.865 142.271 100.861 142.215 100.861C142.168 100.861 142.121 100.861 142.074 100.861C141.349 100.861 140.775 101.077 140.352 101.51C139.929 101.942 139.717 102.568 139.717 103.387V107.112H138.362ZM143.759 107.112V97.2337H148.191C149.329 97.2337 150.204 97.4642 150.816 97.9252C151.427 98.3768 151.733 98.9977 151.733 99.788C151.733 100.324 151.611 100.776 151.366 101.143C151.131 101.51 150.811 101.792 150.406 101.99C150.002 102.187 149.564 102.286 149.094 102.286L149.348 101.863C149.912 101.863 150.411 101.961 150.844 102.159C151.277 102.356 151.62 102.648 151.874 103.034C152.128 103.41 152.255 103.881 152.255 104.445C152.255 105.292 151.935 105.95 151.295 106.421C150.665 106.882 149.724 107.112 148.473 107.112H143.759ZM145.171 105.969H148.416C149.197 105.969 149.795 105.837 150.209 105.574C150.623 105.311 150.83 104.897 150.83 104.332C150.83 103.758 150.623 103.34 150.209 103.076C149.795 102.813 149.197 102.681 148.416 102.681H145.044V101.538H148.064C148.779 101.538 149.334 101.406 149.729 101.143C150.124 100.879 150.322 100.484 150.322 99.9573C150.322 99.4305 150.124 99.0353 149.729 98.7719C149.334 98.5085 148.779 98.3768 148.064 98.3768H145.171V105.969ZM158.462 107.112V105.532L158.392 105.235V102.54C158.392 101.966 158.222 101.524 157.884 101.213C157.554 100.893 157.056 100.734 156.388 100.734C155.945 100.734 155.513 100.809 155.089 100.959C154.666 101.1 154.308 101.293 154.017 101.538L153.452 100.522C153.838 100.211 154.299 99.9762 154.835 99.8162C155.381 99.6469 155.95 99.5622 156.543 99.5622C157.568 99.5622 158.359 99.8115 158.914 100.31C159.469 100.809 159.746 101.571 159.746 102.596V107.112H158.462ZM156.007 107.197C155.452 107.197 154.962 107.103 154.539 106.915C154.125 106.727 153.805 106.468 153.579 106.139C153.353 105.8 153.241 105.419 153.241 104.995C153.241 104.591 153.335 104.224 153.523 103.895C153.72 103.565 154.036 103.302 154.468 103.104C154.911 102.907 155.503 102.808 156.247 102.808H158.617V103.782H156.303C155.626 103.782 155.169 103.895 154.934 104.12C154.699 104.346 154.581 104.619 154.581 104.939C154.581 105.306 154.727 105.602 155.019 105.828C155.31 106.044 155.715 106.153 156.232 106.153C156.74 106.153 157.183 106.04 157.559 105.814C157.945 105.588 158.222 105.259 158.392 104.826L158.66 105.758C158.481 106.2 158.166 106.553 157.714 106.816C157.263 107.07 156.693 107.197 156.007 107.197ZM162.017 109.935C161.659 109.935 161.311 109.874 160.973 109.751C160.634 109.638 160.342 109.469 160.098 109.243L160.676 108.227C160.864 108.406 161.071 108.542 161.297 108.636C161.523 108.731 161.763 108.778 162.017 108.778C162.346 108.778 162.619 108.693 162.835 108.524C163.052 108.354 163.254 108.053 163.442 107.62L163.908 106.59L164.049 106.421L166.984 99.6328H168.311L164.684 107.86C164.468 108.387 164.223 108.801 163.95 109.102C163.687 109.403 163.395 109.615 163.075 109.737C162.755 109.869 162.403 109.935 162.017 109.935ZM163.795 107.352L160.38 99.6328H161.791L164.698 106.294L163.795 107.352Z" fill="#111827"/>
</svg>
