<svg width="68" height="26" viewBox="0 0 68 26" fill="none" xmlns="http://www.w3.org/2000/svg">
<path d="M4.06723 20.2051H0.435561V2.0594H4.06723V9.32273H11.3179V2.0594H14.9496V20.2051H11.3179V12.9544H4.06723V20.2051ZM22.0357 2.97048C22.0357 3.29105 21.9725 3.59052 21.8459 3.86891C21.7278 4.14729 21.5633 4.39194 21.3524 4.60283C21.1415 4.8053 20.8927 4.9698 20.6059 5.09634C20.3275 5.21444 20.028 5.27349 19.7074 5.27349C19.3869 5.27349 19.0832 5.21444 18.7964 5.09634C18.518 4.9698 18.2733 4.8053 18.0624 4.60283C17.86 4.39194 17.6955 4.14729 17.5689 3.86891C17.4508 3.59052 17.3918 3.29105 17.3918 2.97048C17.3918 2.65835 17.4508 2.3631 17.5689 2.08471C17.6955 1.79789 17.86 1.55325 18.0624 1.35078C18.2733 1.13989 18.518 0.975386 18.7964 0.857283C19.0832 0.730744 19.3869 0.667475 19.7074 0.667475C20.028 0.667475 20.3275 0.730744 20.6059 0.857283C20.8927 0.975386 21.1415 1.13989 21.3524 1.35078C21.5633 1.55325 21.7278 1.79789 21.8459 2.08471C21.9725 2.3631 22.0357 2.65835 22.0357 2.97048ZM21.441 20.2051H17.9612V6.65276H21.441V20.2051ZM38.9666 14.7639C38.9666 15.5147 38.8232 16.2191 38.5364 16.8771C38.2496 17.5351 37.8573 18.113 37.3596 18.6107C36.8703 19.1 36.2967 19.488 35.6387 19.7748C34.9807 20.0617 34.2763 20.2051 33.5255 20.2051H24.4526V2.0594H33.5255C34.2763 2.0594 34.9807 2.20281 35.6387 2.48963C36.2967 2.77646 36.8703 3.16873 37.3596 3.66645C37.8573 4.15573 38.2496 4.72937 38.5364 5.38738C38.8232 6.04538 38.9666 6.74978 38.9666 7.50057C38.9666 7.83801 38.9203 8.18388 38.8275 8.53819C38.7347 8.8925 38.6039 9.23416 38.4352 9.56316C38.2665 9.89216 38.064 10.1916 37.8278 10.4616C37.5916 10.7315 37.3301 10.9551 37.0433 11.1322C37.3385 11.2925 37.6042 11.5119 37.8405 11.7902C38.0767 12.0602 38.2791 12.3597 38.4478 12.6887C38.6166 13.0177 38.7431 13.3635 38.8275 13.7263C38.9203 14.0806 38.9666 14.4265 38.9666 14.7639ZM28.0843 16.5734H33.5255C33.7786 16.5734 34.0148 16.527 34.2341 16.4342C34.4534 16.3414 34.6432 16.2149 34.8035 16.0546C34.9722 15.8859 35.103 15.6919 35.1958 15.4725C35.2886 15.2532 35.335 15.017 35.335 14.7639C35.335 14.5108 35.2886 14.2746 35.1958 14.0553C35.103 13.836 34.9722 13.6461 34.8035 13.4859C34.6432 13.3171 34.4534 13.1864 34.2341 13.0936C34.0148 13.0008 33.7786 12.9544 33.5255 12.9544H28.0843V16.5734ZM28.0843 9.32273H33.5255C33.7786 9.32273 34.0148 9.27634 34.2341 9.18354C34.4534 9.09075 34.6432 8.96421 34.8035 8.80392C34.9722 8.63521 35.103 8.44118 35.1958 8.22185C35.2886 7.99408 35.335 7.75365 35.335 7.50057C35.335 7.2475 35.2886 7.01129 35.1958 6.79196C35.103 6.57262 34.9722 6.38281 34.8035 6.22253C34.6432 6.05381 34.4534 5.92306 34.2341 5.83026C34.0148 5.73747 33.7786 5.69107 33.5255 5.69107H28.0843V9.32273ZM44.6103 25.3679V21.888L46.5337 21.9134C46.8711 21.9134 47.1959 21.8585 47.508 21.7489C47.8202 21.6392 48.107 21.4873 48.3685 21.2933C48.6384 21.0993 48.8746 20.8673 49.0771 20.5973C49.2796 20.3358 49.4441 20.049 49.5706 19.7369C49.191 19.8972 48.8029 20.0574 48.4064 20.2177C48.0184 20.378 47.6261 20.4582 47.2296 20.4582C46.3945 20.4582 45.6099 20.3105 44.876 20.0153C44.1421 19.72 43.4967 19.3024 42.94 18.7625C42.3916 18.2142 41.9572 17.552 41.6366 16.7759C41.3245 15.9913 41.1684 15.114 41.1684 14.1439V6.65276H44.6103V14.1439C44.6103 14.6247 44.6778 15.0465 44.8127 15.4093C44.9562 15.7636 45.146 16.063 45.3822 16.3077C45.6184 16.5439 45.8925 16.721 46.2047 16.8391C46.5252 16.9572 46.8669 17.0163 47.2296 17.0163C47.5839 17.0163 47.9172 16.9362 48.2293 16.7759C48.5499 16.6072 48.8282 16.3878 49.0645 16.1179C49.3007 15.8479 49.4862 15.5442 49.6212 15.2068C49.7562 14.8609 49.8237 14.5066 49.8237 14.1439V6.65276H53.3035V18.4968C53.2951 19.4501 53.1095 20.3443 52.7467 21.1794C52.384 22.0146 51.8863 22.7443 51.2536 23.3686C50.6293 23.9928 49.8996 24.4863 49.0645 24.8491C48.2293 25.2118 47.3351 25.3932 46.3818 25.3932L44.6103 25.3679ZM61.3387 16.8898C61.4737 16.9319 61.6087 16.9615 61.7436 16.9783C61.8786 16.9868 62.0136 16.991 62.1486 16.991C62.486 16.991 62.8108 16.9446 63.1229 16.8518C63.4351 16.759 63.7261 16.6282 63.996 16.4595C64.2744 16.2824 64.5191 16.0715 64.73 15.8268C64.9493 15.5738 65.1265 15.2954 65.2614 14.9917L67.7922 17.5351C67.4716 17.9906 67.1005 18.3998 66.6787 18.7625C66.2653 19.1253 65.814 19.4332 65.3247 19.6863C64.8439 19.9393 64.3335 20.1292 63.7936 20.2557C63.2621 20.3907 62.7138 20.4582 62.1486 20.4582C61.1953 20.4582 60.2969 20.281 59.4533 19.9267C58.6181 19.5724 57.8842 19.0789 57.2515 18.4462C56.6273 17.8135 56.1338 17.0627 55.771 16.1938C55.4083 15.3165 55.2269 14.3548 55.2269 13.3087C55.2269 12.2373 55.4083 11.2588 55.771 10.373C56.1338 9.48723 56.6273 8.73222 57.2515 8.10796C57.8842 7.4837 58.6181 6.99864 59.4533 6.65276C60.2969 6.30689 61.1953 6.13395 62.1486 6.13395C62.7138 6.13395 63.2663 6.20144 63.8062 6.33642C64.3461 6.47139 64.8565 6.66542 65.3374 6.9185C65.8266 7.17157 66.2822 7.4837 66.704 7.85488C67.1258 8.21763 67.497 8.62677 67.8175 9.08231L61.3387 16.8898ZM63.1103 9.76562C62.95 9.70657 62.7897 9.66861 62.6294 9.65174C62.4776 9.63486 62.3173 9.62643 62.1486 9.62643C61.6762 9.62643 61.2291 9.715 60.8073 9.89216C60.3939 10.0609 60.0312 10.3055 59.719 10.6261C59.4153 10.9466 59.1749 11.3347 58.9978 11.7902C58.8206 12.2373 58.732 12.7435 58.732 13.3087C58.732 13.4352 58.7362 13.5787 58.7447 13.7389C58.7615 13.8992 58.7826 14.0637 58.8079 14.2324C58.8417 14.3927 58.8797 14.5488 58.9218 14.7006C58.964 14.8525 59.0188 14.9875 59.0863 15.1056L63.1103 9.76562Z" fill="#35D187"/>
</svg>
