<svg width="204" height="204" viewBox="0 0 204 204" fill="none" xmlns="http://www.w3.org/2000/svg">
<rect width="204" height="204" fill="#F8FBFF"/>
<path d="M43.1111 104.288C41.8328 104.288 40.7862 103.936 39.9713 103.233C39.1564 102.514 38.7489 101.515 38.7489 100.237C38.7489 98.9267 39.2043 97.92 40.1151 97.217C41.0259 96.5139 42.2643 96.1624 43.8302 96.1624C44.9647 96.1624 46.0033 96.3301 46.9461 96.6657V96.45C46.9461 95.0439 46.0832 94.3408 44.3575 94.3408C43.191 94.3408 42.0006 94.5805 40.7862 95.0598L39.8515 91.8481C41.4813 91.177 43.231 90.8414 45.1005 90.8414C47.3376 90.8414 48.9834 91.3687 50.038 92.4233C50.9648 93.3341 51.4281 94.7083 51.4281 96.5459V104H46.9221V102.658C45.9474 103.744 44.6771 104.288 43.1111 104.288ZM44.741 101.435C45.4121 101.435 45.9554 101.244 46.3708 100.86C46.7863 100.461 46.994 99.9414 46.994 99.3022V98.703C46.4667 98.4793 45.8755 98.3675 45.2204 98.3675C44.5652 98.3675 44.0539 98.5193 43.6864 98.8229C43.3189 99.1105 43.1351 99.5099 43.1351 100.021C43.1351 100.453 43.2789 100.796 43.5665 101.052C43.8701 101.308 44.2616 101.435 44.741 101.435ZM60.9587 104.312C59.0253 104.312 57.4114 103.656 56.1171 102.346C54.8228 101.02 54.1757 99.4141 54.1757 97.5286C54.1757 95.659 54.8308 94.0691 56.1411 92.7589C57.4514 91.4326 59.1132 90.7695 61.1265 90.7695C63.6032 90.7695 65.4488 91.7362 66.6632 93.6697L63.6192 95.8748C63.012 95.0279 62.229 94.6044 61.2703 94.6044C60.4554 94.6044 59.8082 94.8841 59.3289 95.4433C58.8495 96.0026 58.6098 96.6977 58.6098 97.5286C58.6098 98.3754 58.8495 99.0785 59.3289 99.6378C59.8082 100.197 60.4314 100.477 61.1984 100.477C61.7097 100.477 62.1411 100.365 62.4927 100.141C62.8602 99.9174 63.2437 99.5739 63.6432 99.1105L66.7351 101.34C65.3928 103.321 63.4674 104.312 60.9587 104.312ZM75.3801 104.312C73.3348 104.312 71.665 103.688 70.3708 102.442C69.0765 101.196 68.4293 99.5579 68.4293 97.5286C68.4293 95.6111 69.0445 94.0052 70.2749 92.7109C71.5053 91.4007 73.0712 90.7455 74.9727 90.7455C77.0979 90.7455 78.7197 91.4166 79.8382 92.7589C80.9568 94.1011 81.516 95.7949 81.516 97.8402C81.516 98.2556 81.508 98.5672 81.492 98.7749H72.8155C73.183 100.197 74.1178 100.908 75.6198 100.908C76.6425 100.908 77.6012 100.469 78.496 99.5898L81.0127 101.675C79.6225 103.433 77.745 104.312 75.3801 104.312ZM72.7436 96.45H77.2497C77.1698 95.7309 76.9301 95.1637 76.5306 94.7482C76.1311 94.3168 75.6198 94.1011 74.9966 94.1011C74.4054 94.1011 73.9101 94.3168 73.5106 94.7482C73.1271 95.1637 72.8714 95.7309 72.7436 96.45ZM92.9362 104.288C91.3702 104.288 90.052 103.664 88.9814 102.418V104H84.4274V86.5032H88.9814V92.7589C90.0839 91.4166 91.3942 90.7455 92.9122 90.7455C94.5101 90.7455 95.8683 91.3687 96.9868 92.6151C98.1053 93.8454 98.6646 95.4753 98.6646 97.5046C98.6646 99.5499 98.1053 101.196 96.9868 102.442C95.8843 103.672 94.534 104.288 92.9362 104.288ZM91.522 100.477C92.273 100.477 92.9042 100.197 93.4155 99.6378C93.9268 99.0785 94.1825 98.3595 94.1825 97.4806C94.1825 96.6337 93.9268 95.9387 93.4155 95.3954C92.9042 94.8361 92.273 94.5565 91.522 94.5565C90.787 94.5565 90.1638 94.8361 89.6525 95.3954C89.1412 95.9546 88.8855 96.6657 88.8855 97.5286C88.8855 98.3754 89.1412 99.0785 89.6525 99.6378C90.1638 100.197 90.787 100.477 91.522 100.477ZM105.898 104.288C104.524 104.288 103.445 103.864 102.662 103.017C101.879 102.17 101.488 101.004 101.488 99.5179V91.0332H106.042V98.0559C106.042 98.743 106.209 99.2782 106.545 99.6617C106.88 100.045 107.328 100.237 107.887 100.237C108.446 100.237 108.902 100.045 109.253 99.6617C109.605 99.2782 109.781 98.743 109.781 98.0559V91.0332H114.335V104H109.781V102.226C108.71 103.601 107.416 104.288 105.898 104.288ZM122.982 104.288C121.384 104.288 120.026 103.672 118.907 102.442C117.805 101.196 117.254 99.5579 117.254 97.5286C117.254 95.4833 117.805 93.8454 118.907 92.6151C120.01 91.3687 121.36 90.7455 122.958 90.7455C124.524 90.7455 125.85 91.3687 126.937 92.6151V86.5032H131.491V104H126.937V102.274C125.834 103.617 124.516 104.288 122.982 104.288ZM122.479 99.6378C123.006 100.197 123.637 100.477 124.372 100.477C125.107 100.477 125.73 100.197 126.242 99.6378C126.753 99.0785 127.009 98.3595 127.009 97.4806C127.009 96.6337 126.753 95.9387 126.242 95.3954C125.73 94.8361 125.107 94.5565 124.372 94.5565C123.621 94.5565 122.99 94.8361 122.479 95.3954C121.967 95.9546 121.712 96.6657 121.712 97.5286C121.712 98.3754 121.967 99.0785 122.479 99.6378ZM140.138 104.288C138.54 104.288 137.182 103.672 136.064 102.442C134.961 101.196 134.41 99.5579 134.41 97.5286C134.41 95.4833 134.961 93.8454 136.064 92.6151C137.166 91.3687 138.516 90.7455 140.114 90.7455C141.68 90.7455 143.006 91.3687 144.093 92.6151V86.5032H148.647V104H144.093V102.274C142.99 103.617 141.672 104.288 140.138 104.288ZM139.635 99.6378C140.162 100.197 140.793 100.477 141.528 100.477C142.263 100.477 142.886 100.197 143.398 99.6378C143.909 99.0785 144.165 98.3595 144.165 97.4806C144.165 96.6337 143.909 95.9387 143.398 95.3954C142.886 94.8361 142.263 94.5565 141.528 94.5565C140.777 94.5565 140.146 94.8361 139.635 95.3954C139.123 95.9546 138.868 96.6657 138.868 97.5286C138.868 98.3754 139.123 99.0785 139.635 99.6378ZM155.88 107.907C154.442 107.907 153.052 107.531 151.71 106.78L153.124 103.593C153.891 104.056 154.554 104.288 155.113 104.288C155.56 104.288 155.912 104.112 156.168 103.76L151.086 91.0332H155.856L158.445 98.8468L160.889 91.0332H165.563L160.818 103.688C160.242 105.222 159.595 106.309 158.876 106.948C158.157 107.587 157.158 107.907 155.88 107.907Z" fill="#0E100E"/>
<path d="M72.3092 116.446L70.3096 110.896H70.7662L72.4981 115.8L74.1119 110.88H74.4268L76.0406 115.8L77.7724 110.896H78.1975L76.198 116.446H75.8674L74.2536 111.659L72.6398 116.446H72.3092ZM91.5204 115.658C91.0009 116.22 90.3344 116.501 89.5209 116.501C88.7074 116.501 88.0436 116.223 87.5292 115.666C87.0149 115.105 86.7578 114.433 86.7578 113.651C86.7578 112.874 87.0176 112.205 87.5371 111.644C88.0567 111.082 88.7232 110.801 89.5366 110.801C90.3501 110.801 91.014 111.082 91.5283 111.644C92.0426 112.2 92.2998 112.869 92.2998 113.651C92.2998 114.428 92.04 115.097 91.5204 115.658ZM87.852 115.406C88.3033 115.889 88.8649 116.131 89.5366 116.131C90.2084 116.131 90.7647 115.892 91.2055 115.414C91.6516 114.937 91.8747 114.349 91.8747 113.651C91.8747 112.963 91.649 112.378 91.1977 111.895C90.7516 111.413 90.1927 111.171 89.5209 111.171C88.8491 111.171 88.2902 111.41 87.8441 111.888C87.4033 112.365 87.1829 112.953 87.1829 113.651C87.1829 114.338 87.4059 114.924 87.852 115.406ZM101.562 116.406V110.896H103.877C104.548 110.896 105.065 111.077 105.427 111.439C105.706 111.717 105.845 112.063 105.845 112.478C105.845 112.924 105.698 113.281 105.404 113.549C105.11 113.816 104.719 113.984 104.231 114.052L106.049 116.406H105.53L103.774 114.123H101.972V116.406H101.562ZM101.972 113.753H103.829C104.302 113.753 104.687 113.64 104.987 113.415C105.286 113.184 105.435 112.872 105.435 112.478C105.435 112.105 105.296 111.812 105.018 111.596C104.74 111.381 104.352 111.274 103.853 111.274H101.972V113.753ZM115.123 116.406V110.896H115.533V116.028H118.768V116.406H115.123ZM127.869 116.406V110.896H129.704C130.564 110.896 131.268 111.158 131.813 111.683C132.359 112.203 132.632 112.859 132.632 113.651C132.632 114.438 132.357 115.094 131.806 115.619C131.26 116.144 130.559 116.406 129.704 116.406H127.869ZM128.279 116.028H129.704C130.454 116.028 131.058 115.803 131.514 115.351C131.976 114.9 132.207 114.333 132.207 113.651C132.207 112.979 131.976 112.415 131.514 111.958C131.058 111.502 130.454 111.274 129.704 111.274H128.279V116.028Z" fill="#0E100E"/>
</svg>
