<svg width="99" height="27" viewBox="0 0 99 27" fill="none" xmlns="http://www.w3.org/2000/svg">
<path d="M1.9248 21.5596V6.69347H9.18796C11.0568 6.69347 12.4585 7.04743 13.3929 7.75534C14.3415 8.46324 14.8158 9.39769 14.8158 10.5587C14.8158 11.3374 14.6247 12.017 14.2424 12.5974C13.8602 13.1638 13.3363 13.6027 12.6709 13.9141C12.0054 14.2256 11.2409 14.3814 10.3772 14.3814L10.7808 13.5106C11.7152 13.5106 12.5434 13.6664 13.2655 13.9779C13.9876 14.2752 14.5468 14.7212 14.9433 15.3158C15.3538 15.9105 15.5591 16.6396 15.5591 17.5032C15.5591 18.7775 15.0565 19.7756 14.0513 20.4977C13.0461 21.2056 11.5665 21.5596 9.6127 21.5596H1.9248ZM5.34401 18.9686H9.35785C10.2498 18.9686 10.9223 18.827 11.3754 18.5439C11.8426 18.2466 12.0762 17.7793 12.0762 17.1422C12.0762 16.5193 11.8426 16.0591 11.3754 15.7618C10.9223 15.4503 10.2498 15.2946 9.35785 15.2946H5.08916V12.7886H8.76321C9.59854 12.7886 10.2357 12.647 10.6746 12.3638C11.1276 12.0665 11.3542 11.6205 11.3542 11.0259C11.3542 10.4454 11.1276 10.0136 10.6746 9.7304C10.2357 9.43308 9.59854 9.28442 8.76321 9.28442H5.34401V18.9686ZM21.5481 21.5596V15.4857L22.3338 17.567L15.7928 6.69347H19.4456L24.4576 15.0397H22.3551L27.3883 6.69347H30.765L24.224 17.567L24.9885 15.4857V21.5596H21.5481ZM38.7398 21.8144C37.5647 21.8144 36.4816 21.6304 35.4905 21.2622C34.5136 20.88 33.657 20.342 32.9208 19.6482C32.1987 18.9545 31.6324 18.1404 31.2218 17.2059C30.8254 16.2715 30.6272 15.245 30.6272 14.1265C30.6272 13.008 30.8254 11.9816 31.2218 11.0471C31.6324 10.1127 32.2058 9.29858 32.942 8.60483C33.6782 7.91108 34.5419 7.38014 35.533 7.01203C36.524 6.62976 37.6142 6.43862 38.8035 6.43862C40.1202 6.43862 41.3024 6.65808 42.3501 7.09698C43.412 7.53588 44.304 8.173 45.026 9.00834L42.8174 11.0471C42.2793 10.4808 41.6918 10.0631 41.0547 9.79411C40.4175 9.51095 39.7238 9.36937 38.9734 9.36937C38.2513 9.36937 37.593 9.48263 36.9983 9.70917C36.4037 9.9357 35.8869 10.2613 35.448 10.6861C35.0233 11.1108 34.6906 11.6134 34.4499 12.1939C34.2233 12.7744 34.1101 13.4186 34.1101 14.1265C34.1101 14.8203 34.2233 15.4574 34.4499 16.0379C34.6906 16.6184 35.0233 17.1281 35.448 17.567C35.8869 17.9917 36.3966 18.3173 36.9771 18.5439C37.5718 18.7704 38.223 18.8837 38.9309 18.8837C39.6105 18.8837 40.2689 18.7775 40.906 18.5651C41.5573 18.3386 42.1873 17.9634 42.7961 17.4395L44.75 19.9243C43.9429 20.5331 43.0014 21.0003 41.9254 21.326C40.8635 21.6516 39.8017 21.8144 38.7398 21.8144ZM41.6068 19.4783V13.8929H44.75V19.9243L41.6068 19.4783ZM55.124 21.8144C53.9489 21.8144 52.8658 21.6304 51.8747 21.2622C50.8978 20.88 50.0412 20.342 49.305 19.6482C48.583 18.9545 48.0166 18.1404 47.606 17.2059C47.2096 16.2715 47.0114 15.245 47.0114 14.1265C47.0114 13.008 47.2096 11.9816 47.606 11.0471C48.0166 10.1127 48.59 9.29858 49.3263 8.60483C50.0625 7.91108 50.9261 7.38014 51.9172 7.01203C52.9083 6.62976 53.9985 6.43862 55.1877 6.43862C56.5045 6.43862 57.6867 6.65808 58.7344 7.09698C59.7962 7.53588 60.6882 8.173 61.4103 9.00834L59.2016 11.0471C58.6636 10.4808 58.076 10.0631 57.4389 9.79411C56.8018 9.51095 56.108 9.36937 55.3576 9.36937C54.6356 9.36937 53.9772 9.48263 53.3826 9.70917C52.7879 9.9357 52.2712 10.2613 51.8323 10.6861C51.4075 11.1108 51.0748 11.6134 50.8341 12.1939C50.6076 12.7744 50.4943 13.4186 50.4943 14.1265C50.4943 14.8203 50.6076 15.4574 50.8341 16.0379C51.0748 16.6184 51.4075 17.1281 51.8323 17.567C52.2712 17.9917 52.7809 18.3173 53.3613 18.5439C53.956 18.7704 54.6073 18.8837 55.3152 18.8837C55.9948 18.8837 56.6531 18.7775 57.2902 18.5651C57.9415 18.3386 58.5716 17.9634 59.1804 17.4395L61.1342 19.9243C60.3272 20.5331 59.3857 21.0003 58.3096 21.326C57.2478 21.6516 56.1859 21.8144 55.124 21.8144ZM57.9911 19.4783V13.8929H61.1342V19.9243L57.9911 19.4783ZM64.3301 21.5596V6.69347H67.7705V21.5596H64.3301ZM74.378 21.5596V9.49679H69.6208V6.69347H82.5756V9.49679H77.8184V21.5596H74.378Z" fill="#0E100E"/>
<path d="M91.2329 21.1179C89.7372 21.1179 88.4529 20.8384 87.3802 20.2794C86.9388 20.0431 86.5395 19.7582 86.1825 19.4247L86.908 17.8397L88.4642 17.6115C88.6304 17.777 88.813 17.9185 89.0119 18.0358C89.6163 18.3833 90.3566 18.557 91.2329 18.557C92.1394 18.557 92.8873 18.3833 93.4765 18.0358C94.0808 17.6732 94.5341 17.1066 94.8362 16.3361C95.1384 15.5655 95.2895 14.5457 95.2895 13.2766C95.2895 12.0075 95.1384 10.9952 94.8362 10.2398C94.7491 10.0176 94.6494 9.81294 94.5371 9.6259L96.1199 9.37999L96.8742 7.79022C97.1402 8.12501 97.375 8.49585 97.5784 8.90273C98.1677 10.051 98.4623 11.5165 98.4623 13.2993C98.4623 15.8677 97.8353 17.8167 96.5813 19.1462C95.3424 20.4607 93.5596 21.1179 91.2329 21.1179Z" fill="#4CAF45"/>
<path d="M96.4446 7.30796C96.0532 6.91612 95.6077 6.58653 95.1082 6.31919C94.0355 5.74507 92.7437 5.45801 91.2329 5.45801C88.9364 5.45801 87.1612 6.12278 85.9072 7.45232C84.6683 8.76675 84.0488 10.7157 84.0488 13.2993C84.0488 15.067 84.3359 16.5325 84.91 17.6958C85.145 18.1658 85.4218 18.5877 85.7403 18.9615L86.5017 17.298L88.0341 17.0733C87.8977 16.8597 87.7779 16.6215 87.6749 16.3587C87.3727 15.5882 87.2216 14.5684 87.2216 13.2993C87.2216 12.0302 87.3727 11.0179 87.6749 10.2625C87.977 9.49196 88.4227 8.93295 89.0119 8.58545C89.6163 8.22285 90.3566 8.04155 91.2329 8.04155C92.1394 8.04155 92.8873 8.2153 93.4765 8.56279C93.7202 8.70295 93.9394 8.87752 94.134 9.08651L95.7175 8.84051L96.4446 7.30796Z" fill="#4CAF45"/>
<path d="M96.4446 7.30796C96.0532 6.91612 95.6077 6.58653 95.1082 6.31919C94.0355 5.74507 92.7437 5.45801 91.2329 5.45801C88.9364 5.45801 87.1612 6.12278 85.9072 7.45232C84.6683 8.76675 84.0488 10.7157 84.0488 13.2993C84.0488 15.067 84.3359 16.5325 84.91 17.6958C85.145 18.1658 85.4218 18.5877 85.7403 18.9615L86.5017 17.298L88.0341 17.0733C87.8977 16.8597 87.7779 16.6215 87.6749 16.3587C87.3727 15.5882 87.2216 14.5684 87.2216 13.2993C87.2216 12.0302 87.3727 11.0179 87.6749 10.2625C87.977 9.49196 88.4227 8.93295 89.0119 8.58545C89.6163 8.22285 90.3566 8.04155 91.2329 8.04155C92.1394 8.04155 92.8873 8.2153 93.4765 8.56279C93.7202 8.70295 93.9394 8.87752 94.134 9.08651L95.7175 8.84051L96.4446 7.30796Z" fill="#0E100E"/>
</svg>
