<svg width="204" height="204" viewBox="0 0 204 204" fill="none" xmlns="http://www.w3.org/2000/svg">
<rect width="204" height="204" fill="#F8FBFF"/>
<path d="M69.5859 110.397L73.4758 92.6641H88.2059L87.1477 97.4552H79.3393L78.996 99.0525H85.7176L84.6307 104.009H77.9092L77.5373 105.606H85.3457L84.3162 110.397H69.5859Z" fill="#121612"/>
<path d="M90.6087 110.397L93.4404 97.4552H88.7495L89.8079 92.6641H106.111L105.053 97.4552H100.362L97.5304 110.397H90.6087Z" fill="#121612"/>
<path d="M104.652 110.397L108.542 92.6641H123.272L122.214 97.4552H114.405L114.062 99.0525H120.784L119.697 104.009H112.975L112.603 105.606H120.412L119.382 110.397H104.652Z" fill="#121612"/>
<path d="M131.052 100.677H132.74C133.865 100.677 134.522 100.218 134.713 99.3001C134.732 99.2086 134.746 99.1259 134.756 99.0525C134.766 98.9791 134.771 98.9055 134.771 98.8322C134.771 98.1897 134.332 97.8683 133.455 97.8683H131.653L131.052 100.677ZM121.985 110.397L125.875 92.6641H136.229C138.021 92.6641 139.418 93.1416 140.419 94.0958C141.421 95.0506 141.921 96.2712 141.921 97.7581C141.921 98.2538 141.864 98.768 141.749 99.3001C141.501 100.494 140.991 101.535 140.219 102.426C139.447 103.316 138.479 104.064 137.316 104.67C137.621 104.908 137.812 105.211 137.888 105.578L139.003 110.397H131.796L130.852 106.46C130.776 106.074 130.547 105.881 130.165 105.881H129.88L128.907 110.397H121.985Z" fill="#121612"/>
<path d="M152.189 105.028C153.2 105.028 153.977 104.766 154.52 104.243C155.064 103.72 155.478 102.816 155.764 101.531C155.84 101.182 155.903 100.865 155.95 100.581C155.998 100.296 156.022 100.035 156.022 99.7958C156.022 99.1536 155.85 98.6992 155.507 98.4329C155.164 98.1669 154.573 98.0335 153.734 98.0335C152.723 98.0335 151.946 98.2952 151.402 98.8184C150.859 99.3416 150.444 100.246 150.158 101.531C150.082 101.88 150.025 102.196 149.987 102.481C149.948 102.765 149.929 103.027 149.929 103.265C149.929 103.89 150.101 104.339 150.444 104.615C150.788 104.89 151.369 105.028 152.189 105.028ZM150.931 110.673C149.29 110.673 147.856 110.461 146.626 110.039C145.396 109.617 144.442 108.943 143.766 108.015C143.089 107.089 142.75 105.863 142.75 104.339C142.75 103.513 142.865 102.577 143.094 101.531C143.589 99.2911 144.357 97.5062 145.396 96.1749C146.435 94.844 147.756 93.8804 149.357 93.2836C150.959 92.6874 152.837 92.3887 154.992 92.3887C156.67 92.3887 158.119 92.5952 159.34 93.0082C160.56 93.4213 161.504 94.0868 162.171 95.0046C162.839 95.9227 163.172 97.1343 163.172 98.6394C163.172 99.4839 163.058 100.448 162.829 101.531C162.333 103.752 161.571 105.533 160.541 106.873C159.511 108.213 158.2 109.181 156.608 109.778C155.016 110.375 153.123 110.673 150.931 110.673Z" fill="#121612"/>
<path d="M57.0671 97.1588L57.0802 97.1494C57.0753 97.153 57.0708 97.156 57.0671 97.1588Z" fill="#63C127"/>
<path d="M65.9993 89.6166L58.7648 94.7608C58.7648 94.7608 57.2877 95.811 57.2874 95.8112C57.5332 95.6365 57.7319 95.3946 57.8786 95.1381C57.9966 94.9318 57.8309 94.6731 57.5895 94.6731H54.557L53.8637 97.7499H54.561L43.3729 105.706L40.9568 107.424C41.0337 107.354 43.5025 105.112 43.8081 103.721L43.8084 103.72L47.126 88.5947H61.8333C63.4736 88.5947 64.8625 88.9355 65.9993 89.6166Z" fill="#63C127"/>
<path d="M58.0893 105.44C58.0893 105.514 58.0759 105.588 58.0509 105.662C57.8195 106.725 57.0882 107.256 55.8563 107.256H52.3913L53.0842 104.18H56.549C57.5755 104.18 58.0893 104.538 58.0893 105.254V105.44ZM67.5408 99.2497C68.1438 98.4099 68.5738 97.3965 68.8304 96.2104C68.933 95.7907 68.9844 95.3336 68.9844 94.8391C68.9844 93.5841 68.6043 92.5175 67.8443 91.6396C67.6866 91.4575 67.6737 91.1974 67.8131 91.0022C68.2367 90.409 68.9092 89.7645 68.9245 89.75L67.1751 90.9936L59.9129 96.158C59.9803 96.2994 60.014 96.4651 60.014 96.6552C60.014 96.8035 60.0007 96.9274 59.9758 97.0258C59.7447 98.0887 59.0133 98.6199 57.7813 98.6199H56.4507L43.5595 107.787L42.3423 113.335H51.8525L66.5347 102.895L67.0553 102.525L68.0169 101.841C67.7407 102.037 67.4973 102.153 67.2883 102.217C67.0565 102.288 66.803 102.234 66.6263 102.073C66.2847 101.762 65.8773 101.488 65.404 101.251C66.2251 100.757 66.9377 100.09 67.5408 99.2497Z" fill="#63C127"/>
<mask id="mask0_467_994" style="mask-type:alpha" maskUnits="userSpaceOnUse" x="51" y="103" width="19" height="13">
<path d="M51.9138 103.045H69.4352V115.503H51.9138V103.045Z" fill="white"/>
</mask>
<g mask="url(#mask0_467_994)">
<path d="M68.3177 104.305C68.1613 104.525 68.0888 104.79 68.1104 105.056C68.121 105.185 68.1262 105.318 68.1262 105.457C68.1262 105.679 68.1071 105.92 68.0686 106.179C68.0299 106.439 67.9849 106.704 67.9337 106.976C67.4457 109.225 66.3746 110.992 64.719 112.277C63.0634 113.561 60.7082 114.204 57.6542 114.204H55.1658C54.0436 114.204 51.9773 115.464 51.9133 115.503L53.7401 114.204L67.9153 104.124C67.9153 104.124 67.9156 104.125 67.9156 104.125L69.4347 103.045C69.4194 103.06 68.741 103.709 68.3177 104.305Z" fill="#63C127"/>
</g>
</svg>
