<svg width="204" height="204" viewBox="0 0 204 204" fill="none" xmlns="http://www.w3.org/2000/svg">
<rect width="204" height="204" fill="#F8FBFF"/>
<path d="M42.9181 105.286C41.6465 105.286 40.6053 104.936 39.7946 104.237C38.984 103.522 38.5786 102.528 38.5786 101.257C38.5786 99.9532 39.0317 98.9517 39.9377 98.2523C40.8438 97.5529 42.0757 97.2032 43.6334 97.2032C44.762 97.2032 45.7952 97.3701 46.7331 97.7039V97.4893C46.7331 96.0905 45.8747 95.3911 44.158 95.3911C42.9976 95.3911 41.8134 95.6296 40.6053 96.1064L39.6754 92.9114C41.2968 92.2438 43.0373 91.91 44.8971 91.91C47.1225 91.91 48.7597 92.4346 49.8089 93.4837C50.7308 94.3897 51.1918 95.7567 51.1918 97.5847V105H46.7092V103.665C45.7396 104.746 44.4759 105.286 42.9181 105.286ZM44.5395 102.449C45.2071 102.449 45.7475 102.258 46.1608 101.877C46.5741 101.479 46.7807 100.963 46.7807 100.327V99.7306C46.2562 99.5081 45.6681 99.3968 45.0163 99.3968C44.3646 99.3968 43.856 99.5478 43.4904 99.8498C43.1248 100.136 42.942 100.533 42.942 101.042C42.942 101.471 43.085 101.813 43.3711 102.067C43.6732 102.322 44.0626 102.449 44.5395 102.449ZM60.6727 105.31C58.7493 105.31 57.1438 104.658 55.8563 103.355C54.5688 102.035 53.925 100.438 53.925 98.5623C53.925 96.7025 54.5767 95.1209 55.8801 93.8175C57.1836 92.4981 58.8367 91.8385 60.8396 91.8385C63.3034 91.8385 65.1393 92.8002 66.3474 94.7235L63.3193 96.9171C62.7152 96.0746 61.9364 95.6534 60.9826 95.6534C60.1719 95.6534 59.5282 95.9316 59.0513 96.4879C58.5744 97.0443 58.336 97.7357 58.336 98.5623C58.336 99.4048 58.5744 100.104 59.0513 100.661C59.5282 101.217 60.1481 101.495 60.9111 101.495C61.4198 101.495 61.8489 101.384 62.1986 101.161C62.5642 100.939 62.9457 100.597 63.3431 100.136L66.4189 102.353C65.0837 104.324 63.1683 105.31 60.6727 105.31ZM75.0189 105.31C72.9843 105.31 71.3232 104.69 70.0356 103.45C68.7481 102.21 68.1043 100.581 68.1043 98.5623C68.1043 96.6548 68.7163 95.0573 69.9403 93.7698C71.1642 92.4664 72.722 91.8146 74.6136 91.8146C76.7277 91.8146 78.3411 92.4822 79.4538 93.8175C80.5664 95.1527 81.1228 96.8376 81.1228 98.8723C81.1228 99.2855 81.1148 99.5955 81.0989 99.8022H72.4677C72.8333 101.217 73.7631 101.924 75.2573 101.924C76.2746 101.924 77.2284 101.487 78.1185 100.613L80.6221 102.687C79.2392 104.436 77.3714 105.31 75.0189 105.31ZM72.3961 97.4893H76.8787C76.7992 96.774 76.5608 96.2098 76.1634 95.7965C75.766 95.3673 75.2573 95.1527 74.6374 95.1527C74.0493 95.1527 73.5565 95.3673 73.1591 95.7965C72.7776 96.2098 72.5233 96.774 72.3961 97.4893ZM92.4834 105.286C90.9256 105.286 89.6143 104.666 88.5493 103.426V105H84.019V87.5944H88.5493V93.8175C89.646 92.4822 90.9495 91.8146 92.4596 91.8146C94.0491 91.8146 95.4002 92.4346 96.5129 93.6744C97.6256 94.8984 98.182 96.5197 98.182 98.5385C98.182 100.573 97.6256 102.21 96.5129 103.45C95.4161 104.674 94.073 105.286 92.4834 105.286ZM91.0766 101.495C91.8237 101.495 92.4516 101.217 92.9603 100.661C93.4689 100.104 93.7233 99.3889 93.7233 98.5146C93.7233 97.6721 93.4689 96.9807 92.9603 96.4402C92.4516 95.8839 91.8237 95.6057 91.0766 95.6057C90.3454 95.6057 89.7255 95.8839 89.2169 96.4402C88.7082 96.9966 88.4539 97.7039 88.4539 98.5623C88.4539 99.4048 88.7082 100.104 89.2169 100.661C89.7255 101.217 90.3454 101.495 91.0766 101.495ZM105.377 105.286C104.01 105.286 102.937 104.865 102.159 104.022C101.38 103.18 100.99 102.02 100.99 100.541V92.1008H105.52V99.0869C105.52 99.7704 105.687 100.303 106.021 100.684C106.355 101.066 106.8 101.257 107.356 101.257C107.913 101.257 108.366 101.066 108.716 100.684C109.065 100.303 109.24 99.7704 109.24 99.0869V92.1008H113.77V105H109.24V103.236C108.175 104.603 106.888 105.286 105.377 105.286ZM122.373 105.286C120.783 105.286 119.432 104.674 118.319 103.45C117.223 102.21 116.674 100.581 116.674 98.5623C116.674 96.5277 117.223 94.8984 118.319 93.6744C119.416 92.4346 120.759 91.8146 122.349 91.8146C123.907 91.8146 125.226 92.4346 126.307 93.6744V87.5944H130.837V105H126.307V103.283C125.21 104.619 123.899 105.286 122.373 105.286ZM121.872 100.661C122.397 101.217 123.024 101.495 123.756 101.495C124.487 101.495 125.107 101.217 125.615 100.661C126.124 100.104 126.378 99.3889 126.378 98.5146C126.378 97.6721 126.124 96.9807 125.615 96.4402C125.107 95.8839 124.487 95.6057 123.756 95.6057C123.009 95.6057 122.381 95.8839 121.872 96.4402C121.363 96.9966 121.109 97.7039 121.109 98.5623C121.109 99.4048 121.363 100.104 121.872 100.661ZM139.439 105.286C137.85 105.286 136.499 104.674 135.386 103.45C134.289 102.21 133.741 100.581 133.741 98.5623C133.741 96.5277 134.289 94.8984 135.386 93.6744C136.483 92.4346 137.826 91.8146 139.415 91.8146C140.973 91.8146 142.293 92.4346 143.373 93.6744V87.5944H147.904V105H143.373V103.283C142.277 104.619 140.965 105.286 139.439 105.286ZM138.939 100.661C139.463 101.217 140.091 101.495 140.822 101.495C141.553 101.495 142.173 101.217 142.682 100.661C143.191 100.104 143.445 99.3889 143.445 98.5146C143.445 97.6721 143.191 96.9807 142.682 96.4402C142.173 95.8839 141.553 95.6057 140.822 95.6057C140.075 95.6057 139.447 95.8839 138.939 96.4402C138.43 96.9966 138.176 97.7039 138.176 98.5623C138.176 99.4048 138.43 100.104 138.939 100.661ZM155.099 108.886C153.669 108.886 152.286 108.513 150.95 107.766L152.357 104.595C153.12 105.056 153.78 105.286 154.336 105.286C154.781 105.286 155.131 105.111 155.385 104.762L150.331 92.1008H155.075L157.65 99.8737L160.082 92.1008H164.732L160.011 104.69C159.439 106.216 158.795 107.297 158.08 107.933C157.364 108.569 156.371 108.886 155.099 108.886Z" fill="black"/>
<path d="M72.1307 115.762L70.1416 110.241H70.5958L72.3186 115.12L73.924 110.225H74.2372L75.8426 115.12L77.5655 110.241H77.9883L75.9992 115.762H75.6703L74.065 111L72.4596 115.762H72.1307ZM91.2418 114.979C90.7249 115.537 90.0619 115.817 89.2527 115.817C88.4435 115.817 87.783 115.54 87.2714 114.987C86.7598 114.428 86.504 113.76 86.504 112.982C86.504 112.209 86.7624 111.543 87.2792 110.985C87.7961 110.426 88.4591 110.147 89.2684 110.147C90.0776 110.147 90.738 110.426 91.2496 110.985C91.7613 111.538 92.0171 112.204 92.0171 112.982C92.0171 113.754 91.7587 114.42 91.2418 114.979ZM87.5925 114.728C88.0415 115.208 88.6001 115.449 89.2684 115.449C89.9366 115.449 90.49 115.211 90.9286 114.736C91.3723 114.261 91.5942 113.676 91.5942 112.982C91.5942 112.298 91.3697 111.716 90.9207 111.235C90.477 110.755 89.9209 110.515 89.2527 110.515C88.5844 110.515 88.0284 110.752 87.5847 111.228C87.1461 111.703 86.9268 112.287 86.9268 112.982C86.9268 113.666 87.1487 114.248 87.5925 114.728ZM101.231 115.723V110.241H103.534C104.202 110.241 104.716 110.421 105.076 110.781C105.353 111.058 105.491 111.402 105.491 111.815C105.491 112.259 105.345 112.614 105.053 112.88C104.76 113.146 104.372 113.313 103.886 113.381L105.695 115.723H105.178L103.432 113.452H101.638V115.723H101.231ZM101.638 113.084H103.487C103.956 113.084 104.34 112.971 104.638 112.747C104.935 112.517 105.084 112.206 105.084 111.815C105.084 111.444 104.946 111.152 104.669 110.938C104.392 110.724 104.006 110.617 103.51 110.617H101.638V113.084ZM114.722 115.723V110.241H115.129V115.347H118.347V115.723H114.722ZM127.401 115.723V110.241H129.226C130.082 110.241 130.782 110.502 131.325 111.024C131.868 111.541 132.139 112.193 132.139 112.982C132.139 113.765 131.865 114.417 131.317 114.94C130.774 115.462 130.077 115.723 129.226 115.723H127.401ZM127.809 115.347H129.226C129.973 115.347 130.573 115.122 131.027 114.673C131.487 114.224 131.716 113.66 131.716 112.982C131.716 112.314 131.487 111.752 131.027 111.298C130.573 110.844 129.973 110.617 129.226 110.617H127.809V115.347Z" fill="black"/>
</svg>
