<svg width="81" height="81" viewBox="0 0 81 81" fill="none" xmlns="http://www.w3.org/2000/svg">
<path d="M35.9458 19.3996C37.3172 14.9128 43.6689 14.9128 45.0403 19.3995L47.3784 27.0489C47.5896 27.7399 47.9555 28.3737 48.4483 28.9021L53.9038 34.7516C57.1038 38.1827 53.9279 43.6834 49.3566 42.6277L41.563 40.8279C40.859 40.6653 40.1271 40.6653 39.4231 40.8279L31.6295 42.6277C27.0582 43.6834 23.8823 38.1827 27.0822 34.7516L32.5377 28.9021C33.0306 28.3737 33.3965 27.7399 33.6077 27.0489L35.9458 19.3996Z" fill="#EC5F5F"/>
<path d="M50.1782 26.6677L40.4935 43.442L30.8088 26.6677L50.1782 26.6677Z" stroke="white" stroke-width="0.704436"/>
<path d="M13.0542 53.8388H19.1779C20.3562 53.8388 21.2787 54.1304 21.9452 54.7136C22.6117 55.2968 22.945 56.1419 22.945 57.2488C22.945 57.8082 22.8141 58.32 22.5522 58.7842C22.2904 59.2365 21.9333 59.5876 21.481 59.8375C22.0999 60.0637 22.5641 60.4089 22.8736 60.873C23.183 61.3253 23.3378 61.9205 23.3378 62.6584C23.3378 63.4082 23.1652 64.0629 22.82 64.6223C22.4868 65.1698 22.0226 65.5923 21.4274 65.8899C20.8442 66.1755 20.1956 66.3184 19.4814 66.3184H13.0542V53.8388ZM18.6602 58.9092C19.1362 58.9092 19.5112 58.7901 19.7849 58.5521C20.0587 58.3141 20.1956 57.9332 20.1956 57.4095C20.1956 56.8382 20.0587 56.4454 19.7849 56.2311C19.5231 56.0169 19.1184 55.9098 18.5709 55.9098H15.7679V58.9092H18.6602ZM18.8208 64.2474C19.4041 64.2474 19.8444 64.1343 20.142 63.9081C20.4515 63.6701 20.6062 63.2595 20.6062 62.6763C20.6062 62.0811 20.4455 61.6527 20.1241 61.3908C19.8147 61.1289 19.3505 60.998 18.7316 60.998H15.7679V64.2474H18.8208ZM29.9638 66.5862C28.3213 66.5862 27.0299 66.1934 26.0896 65.4078C25.1493 64.6104 24.6791 63.4975 24.6791 62.0692C24.6791 60.6529 25.0957 59.534 25.9289 58.7128C26.774 57.8915 27.9761 57.4809 29.5353 57.4809C30.5589 57.4809 31.4278 57.6713 32.1419 58.0522C32.856 58.4331 33.3976 58.9627 33.7666 59.6412C34.1355 60.3077 34.32 61.0635 34.32 61.9086V62.9976H27.25C27.4405 64.0926 28.4641 64.6401 30.3208 64.6401C30.8684 64.6401 31.4337 64.5925 32.0169 64.4973C32.6001 64.4021 33.106 64.2712 33.5345 64.1045V65.997C33.1179 66.1755 32.5823 66.3184 31.9277 66.4255C31.273 66.5326 30.6184 66.5862 29.9638 66.5862ZM31.767 61.248C31.7313 60.6767 31.517 60.2363 31.1243 59.9268C30.7315 59.6055 30.1899 59.4448 29.4996 59.4448C28.8212 59.4448 28.2856 59.6055 27.8928 59.9268C27.5 60.2482 27.2858 60.6886 27.25 61.248H31.767ZM40.7922 66.5862C39.7567 66.5862 38.8462 66.4017 38.0606 66.0327C37.287 65.6518 36.6859 65.1222 36.2574 64.4437C35.8408 63.7534 35.6325 62.95 35.6325 62.0335C35.6325 61.1409 35.8408 60.3493 36.2574 59.659C36.6859 58.9687 37.287 58.4331 38.0606 58.0522C38.8462 57.6713 39.7567 57.4809 40.7922 57.4809C41.8158 57.4809 42.7144 57.6713 43.4881 58.0522C44.2736 58.4331 44.8747 58.9687 45.2913 59.659C45.7198 60.3493 45.934 61.1409 45.934 62.0335C45.934 62.95 45.7198 63.7534 45.2913 64.4437C44.8747 65.1222 44.2796 65.6518 43.5059 66.0327C42.7323 66.4017 41.8277 66.5862 40.7922 66.5862ZM40.7922 64.4795C41.5182 64.4795 42.0955 64.2593 42.524 63.8189C42.9525 63.3666 43.1667 62.7715 43.1667 62.0335C43.1667 61.2718 42.9525 60.6767 42.524 60.2482C42.1074 59.8078 41.5301 59.5876 40.7922 59.5876C40.0542 59.5876 39.471 59.8078 39.0426 60.2482C38.6141 60.6767 38.3998 61.2718 38.3998 62.0335C38.3998 62.7715 38.6141 63.3666 39.0426 63.8189C39.4829 64.2593 40.0662 64.4795 40.7922 64.4795ZM51.9722 66.5862C50.9367 66.5862 50.0262 66.4017 49.2406 66.0327C48.467 65.6518 47.8659 65.1222 47.4374 64.4437C47.0209 63.7534 46.8126 62.95 46.8126 62.0335C46.8126 61.1409 47.0209 60.3493 47.4374 59.659C47.8659 58.9687 48.467 58.4331 49.2406 58.0522C50.0262 57.6713 50.9367 57.4809 51.9722 57.4809C52.9958 57.4809 53.8945 57.6713 54.6681 58.0522C55.4537 58.4331 56.0547 58.9687 56.4713 59.659C56.8998 60.3493 57.114 61.1409 57.114 62.0335C57.114 62.95 56.8998 63.7534 56.4713 64.4437C56.0547 65.1222 55.4596 65.6518 54.686 66.0327C53.9123 66.4017 53.0077 66.5862 51.9722 66.5862ZM51.9722 64.4795C52.6983 64.4795 53.2755 64.2593 53.704 63.8189C54.1325 63.3666 54.3467 62.7715 54.3467 62.0335C54.3467 61.2718 54.1325 60.6767 53.704 60.2482C53.2874 59.8078 52.7102 59.5876 51.9722 59.5876C51.2343 59.5876 50.6511 59.8078 50.2226 60.2482C49.7941 60.6767 49.5799 61.2718 49.5799 62.0335C49.5799 62.7715 49.7941 63.3666 50.2226 63.8189C50.663 64.2593 51.2462 64.4795 51.9722 64.4795ZM58.803 57.7487H61.4096V58.802C61.8024 58.3617 62.2666 58.0343 62.8022 57.8201C63.3497 57.594 63.921 57.4809 64.5161 57.4809C65.6825 57.4809 66.5514 57.7963 67.1227 58.4271C67.7059 59.046 67.9975 59.8852 67.9975 60.9445V66.3184H65.3017V61.248C65.3017 60.1411 64.7899 59.5876 63.7663 59.5876C63.314 59.5876 62.8914 59.7007 62.4987 59.9268C62.1059 60.1411 61.7726 60.4624 61.4989 60.8909V66.3184H58.803V57.7487Z" fill="#EC5F5F"/>
</svg>
