<svg width="109" height="29" viewBox="0 0 109 29" fill="none" xmlns="http://www.w3.org/2000/svg">
<g clip-path="url(#clip0_1310_4389)">
<path d="M25.1632 14.5C26.7325 12.8013 27.7165 10.7267 27.9477 8.61126C28.2017 6.28823 27.5247 4.19198 26.0414 2.70868C24.5581 1.22544 22.462 0.548391 20.1388 0.802236C18.0234 1.03348 15.9487 2.01743 14.25 3.58673C12.5513 2.01743 10.4766 1.03348 8.36123 0.802236C6.03842 0.548445 3.94195 1.22538 2.4587 2.70868C0.975405 4.19198 0.29836 6.28818 0.552258 8.61126C0.783501 10.7266 1.76745 12.8013 3.33675 14.5C1.76751 16.1987 0.783501 18.2733 0.552258 20.3887C0.29836 22.7117 0.975351 24.808 2.45865 26.2913C3.73778 27.5705 5.47266 28.2499 7.41581 28.2499C7.72594 28.2499 8.04146 28.2327 8.36123 28.1977C10.4766 27.9664 12.5513 26.9824 14.25 25.4131C15.9486 26.9824 18.0233 27.9664 20.1387 28.1977C20.4586 28.2326 20.7739 28.2499 21.0841 28.2499C23.0271 28.2499 24.7622 27.5703 26.0412 26.2913C27.5245 24.808 28.2016 22.7117 27.9476 20.3887C27.7164 18.2733 26.7325 16.1986 25.1632 14.5ZM21.8133 18.1927C23.7216 20.101 24.7766 22.5886 24.7147 24.9648C22.3385 25.0266 19.8509 23.9712 17.9429 22.0632C17.7217 21.8419 17.51 21.6107 17.3099 21.3722C18.3803 19.9183 19.6683 18.6302 21.1223 17.5598C21.3609 17.76 21.5922 17.9716 21.8133 18.1927ZM14.9421 22.0265C14.5568 22.6769 14.0869 23.2872 13.546 23.8439C13.1752 23.3694 12.7939 22.9 12.403 22.4364C12.8521 21.9042 13.2528 21.3392 13.5978 20.7464C14.2914 19.5534 15.1123 18.4428 16.0408 17.4324L17.3717 18.7633C16.4526 19.7614 15.6362 20.8551 14.9421 22.0265ZM3.78535 24.9648C3.72696 22.7262 4.66065 20.3889 6.36464 18.5301C7.71701 19.7402 9.00964 21.0327 10.22 22.3848C8.36139 24.089 6.02432 25.023 3.78535 24.9648ZM6.72343 13.8078C7.89481 13.1137 8.98849 12.2974 9.98665 11.3782L11.3176 12.7092C10.3072 13.6378 9.19654 14.4588 8.00368 15.1526C7.41016 15.498 6.84489 15.8987 6.31303 16.3473C5.84931 15.9566 5.37983 15.5753 4.90529 15.2047C5.46227 14.6636 6.07286 14.1934 6.72343 13.8078ZM6.68689 10.8071C4.77883 8.89901 3.72362 6.41152 3.78519 4.03533C6.16149 3.97344 8.64903 5.02843 10.5573 6.9367C10.7784 7.15783 10.99 7.38907 11.1902 7.62774C10.1197 9.08171 8.83179 10.3697 7.37781 11.4401C7.13936 11.24 6.90817 11.0284 6.68689 10.8071ZM13.5578 6.97346C13.9433 6.32284 14.4135 5.71225 14.9547 5.15527C15.3254 5.62986 15.7066 6.09929 16.0973 6.56301C15.6487 7.09481 15.248 7.66014 14.9025 8.25377C14.2088 9.44658 13.3878 10.5572 12.4591 11.5676L11.1282 10.2366C12.0474 9.23853 12.8637 8.14485 13.5578 6.97346ZM24.7148 4.03527C24.7728 6.27408 23.8389 8.61131 22.1349 10.47C20.7828 9.25962 19.4904 7.96699 18.2802 6.61462C20.139 4.91057 22.4763 3.97688 24.7148 4.03527ZM20.9523 11.5782C20.5489 11.9026 20.1256 12.1957 19.6848 12.4521C18.3711 13.2159 17.1493 14.1221 16.0399 15.1484L13.6016 12.7101C14.6278 11.6008 15.534 10.3791 16.2981 9.06567C16.5549 8.62418 16.848 8.20065 17.1721 7.79736C18.3628 9.12024 19.6296 10.3872 20.9523 11.5782ZM7.54733 17.422C7.95062 17.0979 8.37414 16.8049 8.81553 16.5481C10.129 15.7841 11.3508 14.8778 12.46 13.8516L14.8983 16.2899C13.8721 17.3992 12.966 18.6209 12.2022 19.9346C11.9457 20.3755 11.6527 20.7988 11.3282 21.2023C10.1373 19.8795 8.87032 18.6128 7.54733 17.422ZM18.5133 17.6217L17.1823 16.2908C18.1928 15.3622 19.3036 14.5413 20.4966 13.8476C21.0893 13.5028 21.6543 13.1021 22.1863 12.653C22.65 13.0438 23.1194 13.4252 23.5939 13.7959C23.0371 14.3368 22.4268 14.8067 21.7765 15.1921C20.6051 15.8862 19.5115 16.7025 18.5133 17.6217ZM26.3428 8.43577C26.1846 9.88344 25.5976 11.316 24.6604 12.5802C24.2208 12.2382 23.7858 11.887 23.3558 11.5272C24.8197 9.91767 25.7895 7.99007 26.1612 6.0197C26.3729 6.7603 26.4368 7.57608 26.3428 8.43577ZM20.3142 2.40716C20.5727 2.3789 20.8272 2.36491 21.0769 2.36491C21.6571 2.36491 22.2109 2.44111 22.7285 2.58884C20.7589 2.96059 18.8322 3.93023 17.2232 5.39345C16.8635 4.96347 16.5125 4.52843 16.1706 4.08898C17.4345 3.15201 18.8668 2.56537 20.3142 2.40716ZM8.18579 2.40716C9.95382 2.60041 11.6996 3.43255 13.1429 4.7622C12.7818 5.20306 12.4554 5.66694 12.1689 6.15047C12.152 6.17899 12.1346 6.20719 12.1176 6.2356C11.9816 6.08551 11.842 5.93838 11.6988 5.79518C10.0103 4.10658 7.9151 2.99331 5.76983 2.58873C6.51043 2.37702 7.32615 2.31314 8.18579 2.40716ZM2.33875 6.01975C2.74349 8.16513 3.85681 10.2603 5.54531 11.9488C5.68857 12.092 5.8357 12.2315 5.98573 12.3675C5.95726 12.3846 5.92901 12.402 5.90049 12.4189C5.41696 12.7054 4.95308 13.0318 4.51228 13.393C3.18262 11.9496 2.35054 10.2039 2.15723 8.43582C2.06322 7.57608 2.1271 6.76035 2.33875 6.01975ZM3.8397 16.4211C4.27894 16.7628 4.71376 17.1137 5.14353 17.4732C3.68009 19.0824 2.71056 21.0095 2.33886 22.9794C1.76401 20.9707 2.2985 18.5042 3.8397 16.4211ZM8.18579 26.5928C7.32664 26.6866 6.51139 26.6228 5.77117 26.4115C7.74106 26.0395 9.66839 25.0696 11.2775 23.6062C11.6372 24.0361 11.9883 24.4709 12.3302 24.9103C11.0661 25.8476 9.63346 26.4345 8.18579 26.5928ZM20.3142 26.5928C18.5462 26.3995 16.8004 25.5674 15.3571 24.2378C15.7182 23.797 16.0446 23.333 16.331 22.8495C16.348 22.8209 16.3654 22.7927 16.3825 22.7643C16.5185 22.9143 16.6581 23.0615 16.8013 23.2047C18.4895 24.8929 20.5839 26.0067 22.7288 26.4116C21.9886 26.6229 21.1733 26.6866 20.3142 26.5928ZM26.1611 22.9794C25.7565 20.8343 24.6432 18.7395 22.9549 17.0512C22.8117 16.9079 22.6645 16.7683 22.5144 16.6323C22.5428 16.6153 22.571 16.5979 22.5996 16.581C23.083 16.2945 23.547 15.9682 23.9878 15.607C26.0388 17.8353 26.8129 20.7017 26.1611 22.9794Z" fill="#F65425"/>
</g>
<g clip-path="url(#clip1_1310_4389)">
<path d="M25.1632 14.5C26.7325 12.8013 27.7165 10.7267 27.9477 8.61126C28.2017 6.28823 27.5246 4.19198 26.0413 2.70868C24.5581 1.22544 22.462 0.548391 20.1388 0.802236C18.0234 1.03348 15.9487 2.01743 14.25 3.58673C12.5513 2.01743 10.4766 1.03348 8.36123 0.802236C6.03842 0.548445 3.94195 1.22538 2.4587 2.70868C0.975404 4.19198 0.29836 6.28818 0.552258 8.61126C0.783501 10.7266 1.76745 12.8013 3.33675 14.5C1.76751 16.1987 0.783501 18.2733 0.552258 20.3887C0.29836 22.7117 0.975351 24.808 2.45865 26.2913C3.73778 27.5705 5.47266 28.2499 7.41581 28.2499C7.72594 28.2499 8.04146 28.2327 8.36123 28.1977C10.4766 27.9664 12.5513 26.9824 14.25 25.4131C15.9486 26.9824 18.0233 27.9664 20.1387 28.1977C20.4586 28.2326 20.7739 28.2499 21.0841 28.2499C23.0271 28.2499 24.7622 27.5703 26.0412 26.2913C27.5245 24.808 28.2016 22.7117 27.9476 20.3887C27.7164 18.2733 26.7325 16.1986 25.1632 14.5ZM21.8133 18.1927C23.7216 20.101 24.7766 22.5886 24.7147 24.9648C22.3385 25.0266 19.8509 23.9712 17.9429 22.0632C17.7217 21.8419 17.51 21.6107 17.3099 21.3722C18.3803 19.9183 19.6683 18.6302 21.1223 17.5598C21.3609 17.76 21.5922 17.9716 21.8133 18.1927ZM14.9421 22.0265C14.5568 22.6769 14.0869 23.2872 13.546 23.8439C13.1752 23.3694 12.7939 22.9 12.403 22.4364C12.8521 21.9042 13.2528 21.3392 13.5978 20.7464C14.2914 19.5534 15.1123 18.4428 16.0408 17.4324L17.3717 18.7633C16.4526 19.7614 15.6362 20.8551 14.9421 22.0265ZM3.78535 24.9648C3.72696 22.7262 4.66065 20.3889 6.36464 18.5301C7.71701 19.7402 9.00964 21.0327 10.22 22.3848C8.36139 24.089 6.02432 25.023 3.78535 24.9648ZM6.72343 13.8078C7.89481 13.1137 8.98849 12.2974 9.98665 11.3782L11.3176 12.7092C10.3072 13.6378 9.19654 14.4588 8.00368 15.1526C7.41016 15.498 6.84489 15.8987 6.31303 16.3473C5.84931 15.9566 5.37983 15.5753 4.90529 15.2047C5.46227 14.6636 6.07286 14.1934 6.72343 13.8078ZM6.68689 10.8071C4.77883 8.89901 3.72362 6.41152 3.78519 4.03533C6.16149 3.97344 8.64903 5.02843 10.5573 6.9367C10.7784 7.15783 10.99 7.38907 11.1902 7.62774C10.1197 9.08171 8.83179 10.3697 7.37781 11.4401C7.13936 11.24 6.90817 11.0284 6.68689 10.8071ZM13.5578 6.97346C13.9433 6.32284 14.4135 5.71225 14.9547 5.15527C15.3254 5.62986 15.7066 6.09929 16.0973 6.56301C15.6487 7.09481 15.248 7.66014 14.9025 8.25377C14.2088 9.44657 13.3878 10.5572 12.4591 11.5676L11.1282 10.2366C12.0474 9.23853 12.8637 8.14485 13.5578 6.97346ZM24.7148 4.03527C24.7728 6.27408 23.8389 8.61131 22.1349 10.47C20.7828 9.25962 19.4904 7.96699 18.2802 6.61462C20.139 4.91057 22.4763 3.97688 24.7148 4.03527ZM20.9523 11.5782C20.5489 11.9026 20.1256 12.1957 19.6848 12.4521C18.3711 13.2159 17.1493 14.1221 16.0399 15.1484L13.6016 12.7101C14.6278 11.6008 15.534 10.3791 16.2981 9.06567C16.5549 8.62418 16.848 8.20065 17.1721 7.79736C18.3628 9.12024 19.6296 10.3872 20.9523 11.5782ZM7.54733 17.422C7.95062 17.0979 8.37414 16.8049 8.81553 16.5481C10.129 15.7841 11.3508 14.8778 12.46 13.8516L14.8983 16.2899C13.8721 17.3992 12.966 18.6209 12.2022 19.9346C11.9457 20.3755 11.6527 20.7988 11.3282 21.2023C10.1373 19.8795 8.87032 18.6128 7.54733 17.422ZM18.5133 17.6217L17.1823 16.2908C18.1928 15.3622 19.3036 14.5413 20.4966 13.8476C21.0893 13.5028 21.6543 13.1021 22.1863 12.653C22.65 13.0438 23.1194 13.4252 23.5939 13.7959C23.0371 14.3368 22.4268 14.8067 21.7765 15.1921C20.6051 15.8862 19.5115 16.7025 18.5133 17.6217ZM26.3428 8.43577C26.1846 9.88344 25.5976 11.3161 24.6604 12.5802C24.2208 12.2382 23.7858 11.887 23.3558 11.5272C24.8197 9.91767 25.7895 7.99007 26.1612 6.0197C26.3729 6.7603 26.4368 7.57608 26.3428 8.43577ZM20.3142 2.40716C20.5727 2.3789 20.8272 2.36491 21.0769 2.36491C21.6571 2.36491 22.2109 2.44111 22.7285 2.58884C20.7589 2.96059 18.8322 3.93023 17.2232 5.39345C16.8635 4.96347 16.5125 4.52843 16.1706 4.08898C17.4345 3.15201 18.8668 2.56537 20.3142 2.40716ZM8.18579 2.40716C9.95382 2.60041 11.6996 3.43255 13.1429 4.7622C12.7818 5.20306 12.4554 5.66694 12.1689 6.15047C12.152 6.17899 12.1346 6.20719 12.1176 6.2356C11.9816 6.08551 11.842 5.93838 11.6988 5.79518C10.0103 4.10658 7.9151 2.99331 5.76983 2.58873C6.51043 2.37702 7.32615 2.31314 8.18579 2.40716ZM2.33875 6.01975C2.74349 8.16513 3.85681 10.2603 5.54531 11.9488C5.68857 12.092 5.8357 12.2315 5.98573 12.3675C5.95726 12.3846 5.92901 12.402 5.90049 12.4189C5.41696 12.7054 4.95308 13.0318 4.51228 13.393C3.18262 11.9496 2.35054 10.2039 2.15723 8.43582C2.06322 7.57608 2.1271 6.76035 2.33875 6.01975ZM3.8397 16.4211C4.27894 16.7628 4.71376 17.1137 5.14353 17.4732C3.68009 19.0824 2.71056 21.0095 2.33886 22.9794C1.76401 20.9707 2.2985 18.5042 3.8397 16.4211ZM8.18579 26.5928C7.32664 26.6866 6.51139 26.6228 5.77117 26.4115C7.74107 26.0395 9.66839 25.0696 11.2775 23.6062C11.6372 24.0361 11.9883 24.4709 12.3302 24.9103C11.0661 25.8476 9.63346 26.4345 8.18579 26.5928ZM20.3142 26.5928C18.5462 26.3995 16.8004 25.5674 15.3571 24.2378C15.7182 23.797 16.0446 23.333 16.331 22.8495C16.348 22.8209 16.3654 22.7927 16.3825 22.7643C16.5185 22.9143 16.6581 23.0615 16.8013 23.2047C18.4895 24.8929 20.5839 26.0067 22.7288 26.4116C21.9886 26.6229 21.1733 26.6866 20.3142 26.5928ZM26.1611 22.9794C25.7565 20.8343 24.6432 18.7395 22.9549 17.0512C22.8117 16.9079 22.6645 16.7683 22.5144 16.6323C22.5428 16.6153 22.571 16.5979 22.5996 16.581C23.083 16.2945 23.547 15.9682 23.9878 15.607C26.0388 17.8353 26.8129 20.7017 26.1611 22.9794Z" fill="#F65425"/>
</g>
<path d="M39.2969 19.9109V8.64258H43.933C44.931 8.64258 45.7842 8.80355 46.4925 9.12551C47.2115 9.44746 47.7642 9.90892 48.1505 10.5099C48.5369 11.1109 48.73 11.8245 48.73 12.6509C48.73 13.4772 48.5369 14.1909 48.1505 14.7918C47.7642 15.3928 47.2115 15.8543 46.4925 16.1762C45.7842 16.4982 44.931 16.6592 43.933 16.6592H40.4559L41.3896 15.6772V19.9109H39.2969ZM41.3896 15.9026L40.4559 14.8884H43.8364C44.7593 14.8884 45.4515 14.6953 45.913 14.3089C46.3852 13.9118 46.6213 13.3592 46.6213 12.6509C46.6213 11.9318 46.3852 11.3792 45.913 10.9928C45.4515 10.6065 44.7593 10.4133 43.8364 10.4133H40.4559L41.3896 9.38307V15.9026Z" fill="#F65425"/>
<path d="M53.0735 13.327H58.6754V15.0494H53.0735V13.327ZM53.2345 18.1562H59.593V19.9109H51.1418V8.64258H59.3676V10.3972H53.2345V18.1562Z" fill="#F65425"/>
<path d="M60.6542 19.9109L65.7249 8.64258H67.7854L72.8722 19.9109H70.683L66.3205 9.75331H67.1576L62.8113 19.9109H60.6542ZM62.9883 17.3031L63.5517 15.6611H69.6366L70.2 17.3031H62.9883Z" fill="#F65425"/>
<path d="M74.6273 19.9109V8.64258H76.3497L83.4165 17.3192H82.5633V8.64258H84.6399V19.9109H82.9175L75.8507 11.2343H76.7038V19.9109H74.6273Z" fill="#F65425"/>
<path d="M92.8267 20.0718C91.2813 20.0718 90.0686 19.6372 89.1886 18.7679C88.3194 17.8987 87.8847 16.6431 87.8847 15.0011V8.64258H89.9774V14.9206C89.9774 16.0797 90.2242 16.9221 90.7179 17.4479C91.2223 17.9738 91.9306 18.2367 92.8428 18.2367C93.755 18.2367 94.4579 17.9738 94.9515 17.4479C95.4452 16.9221 95.692 16.0797 95.692 14.9206V8.64258H97.7525V15.0011C97.7525 16.6431 97.3125 17.8987 96.4325 18.7679C95.5633 19.6372 94.3613 20.0718 92.8267 20.0718Z" fill="#F65425"/>
<path d="M103.087 19.9109V10.4133H99.3521V8.64258H108.914V10.4133H105.179V19.9109H103.087Z" fill="#F65425"/>
<defs>
<clipPath id="clip0_1310_4389">
<rect width="27.5" height="27.5" fill="white" transform="translate(0.5 0.75)"/>
</clipPath>
<clipPath id="clip1_1310_4389">
<rect width="27.5" height="27.5" fill="white" transform="translate(0.5 0.75)"/>
</clipPath>
</defs>
</svg>
