<svg width="127" height="30" viewBox="0 0 127 30" fill="none" xmlns="http://www.w3.org/2000/svg">
<path d="M4.91813 18.2861C3.64648 18.2861 2.60532 17.9364 1.79465 17.237C0.983974 16.5217 0.578637 15.5282 0.578637 14.2566C0.578637 12.9532 1.03166 11.9517 1.93771 11.2523C2.84375 10.5529 4.07566 10.2032 5.63343 10.2032C6.76201 10.2032 7.79522 10.3701 8.73306 10.7039V10.4893C8.73306 9.09054 7.8747 8.39113 6.15798 8.39113C4.9976 8.39113 3.81338 8.62957 2.60532 9.10643L1.67543 5.91143C3.29678 5.24381 5.03734 4.91001 6.89712 4.91001C9.1225 4.91001 10.7597 5.43456 11.8089 6.48367C12.7308 7.38971 13.1918 8.75673 13.1918 10.5847V18H8.70922V16.6648C7.73959 17.7457 6.47589 18.2861 4.91813 18.2861ZM6.53947 15.4488C7.20709 15.4488 7.74754 15.258 8.16082 14.8765C8.5741 14.4791 8.78075 13.9625 8.78075 13.3267V12.7306C8.25619 12.5081 7.66806 12.3968 7.01634 12.3968C6.36462 12.3968 5.85596 12.5478 5.49037 12.8498C5.12477 13.136 4.94197 13.5333 4.94197 14.042C4.94197 14.4712 5.08503 14.8129 5.37115 15.0673C5.67316 15.3216 6.06261 15.4488 6.53947 15.4488ZM22.6727 18.31C20.7493 18.31 19.1438 17.6582 17.8563 16.3548C16.5688 15.0355 15.925 13.438 15.925 11.5623C15.925 9.70252 16.5767 8.12091 17.8801 6.81747C19.1836 5.49814 20.8367 4.83848 22.8396 4.83848C25.3034 4.83848 27.1393 5.80016 28.3474 7.72352L25.3193 9.91711C24.7152 9.07464 23.9364 8.65341 22.9826 8.65341C22.1719 8.65341 21.5282 8.93158 21.0513 9.48793C20.5744 10.0443 20.336 10.7357 20.336 11.5623C20.336 12.4048 20.5744 13.1042 21.0513 13.6605C21.5282 14.2169 22.1481 14.495 22.9111 14.495C23.4198 14.495 23.8489 14.3838 24.1986 14.1612C24.5642 13.9387 24.9457 13.5969 25.3431 13.136L28.4189 15.3534C27.0837 17.3244 25.1683 18.31 22.6727 18.31ZM37.0189 18.31C34.9843 18.31 33.3232 17.69 32.0356 16.4502C30.7481 15.2103 30.1043 13.581 30.1043 11.5623C30.1043 9.65483 30.7163 8.05733 31.9403 6.76979C33.1642 5.46635 34.722 4.81463 36.6136 4.81463C38.7277 4.81463 40.3411 5.48225 41.4538 6.81747C42.5664 8.1527 43.1228 9.83763 43.1228 11.8723C43.1228 12.2855 43.1148 12.5955 43.0989 12.8022H34.4677C34.8333 14.2169 35.7631 14.9242 37.2573 14.9242C38.2746 14.9242 39.2284 14.4871 40.1185 13.6128L42.6221 15.6872C41.2392 17.4357 39.3714 18.31 37.0189 18.31ZM34.3961 10.4893H38.8787C38.7992 9.77405 38.5608 9.20976 38.1634 8.79647C37.766 8.36729 37.2573 8.1527 36.6374 8.1527C36.0493 8.1527 35.5565 8.36729 35.1591 8.79647C34.7776 9.20976 34.5233 9.77405 34.3961 10.4893ZM54.4834 18.2861C52.9256 18.2861 51.6143 17.6662 50.5493 16.4263V18H46.019V0.594361H50.5493V6.81747C51.646 5.48225 52.9495 4.81463 54.4596 4.81463C56.0491 4.81463 57.4002 5.43456 58.5129 6.67441C59.6256 7.89837 60.182 9.51972 60.182 11.5385C60.182 13.5731 59.6256 15.2103 58.5129 16.4502C57.4161 17.6741 56.073 18.2861 54.4834 18.2861ZM53.0766 14.495C53.8237 14.495 54.4516 14.2169 54.9603 13.6605C55.4689 13.1042 55.7233 12.3889 55.7233 11.5146C55.7233 10.6721 55.4689 9.98069 54.9603 9.44024C54.4516 8.8839 53.8237 8.60572 53.0766 8.60572C52.3454 8.60572 51.7255 8.8839 51.2169 9.44024C50.7082 9.99659 50.4539 10.7039 50.4539 11.5623C50.4539 12.4048 50.7082 13.1042 51.2169 13.6605C51.7255 14.2169 52.3454 14.495 53.0766 14.495ZM67.3774 18.2861C66.0104 18.2861 64.9375 17.8649 64.1586 17.0224C63.3797 16.18 62.9903 15.0196 62.9903 13.5413V5.10075H67.5205V12.0869C67.5205 12.7704 67.6874 13.3029 68.0212 13.6844C68.355 14.0658 68.8001 14.2566 69.3564 14.2566C69.9128 14.2566 70.3658 14.0658 70.7155 13.6844C71.0652 13.3029 71.2401 12.7704 71.2401 12.0869V5.10075H75.7703V18H71.2401V16.2356C70.1751 17.6026 68.8875 18.2861 67.3774 18.2861ZM84.3727 18.2861C82.7831 18.2861 81.432 17.6741 80.3193 16.4502C79.2225 15.2103 78.6741 13.581 78.6741 11.5623C78.6741 9.52767 79.2225 7.89837 80.3193 6.67441C81.4161 5.43456 82.7593 4.81463 84.3489 4.81463C85.9066 4.81463 87.226 5.43456 88.3069 6.67441V0.594361H92.8371V18H88.3069V16.2833C87.2101 17.6185 85.8987 18.2861 84.3727 18.2861ZM83.872 13.6605C84.3965 14.2169 85.0244 14.495 85.7556 14.495C86.4868 14.495 87.1067 14.2169 87.6154 13.6605C88.1241 13.1042 88.3784 12.3889 88.3784 11.5146C88.3784 10.6721 88.1241 9.98069 87.6154 9.44024C87.1067 8.8839 86.4868 8.60572 85.7556 8.60572C85.0085 8.60572 84.3806 8.8839 83.872 9.44024C83.3633 9.99659 83.109 10.7039 83.109 11.5623C83.109 12.4048 83.3633 13.1042 83.872 13.6605ZM101.439 18.2861C99.8498 18.2861 98.4986 17.6741 97.386 16.4502C96.2892 15.2103 95.7408 13.581 95.7408 11.5623C95.7408 9.52767 96.2892 7.89837 97.386 6.67441C98.4827 5.43456 99.8259 4.81463 101.415 4.81463C102.973 4.81463 104.293 5.43456 105.373 6.67441V0.594361H109.904V18H105.373V16.2833C104.277 17.6185 102.965 18.2861 101.439 18.2861ZM100.939 13.6605C101.463 14.2169 102.091 14.495 102.822 14.495C103.553 14.495 104.173 14.2169 104.682 13.6605C105.191 13.1042 105.445 12.3889 105.445 11.5146C105.445 10.6721 105.191 9.98069 104.682 9.44024C104.173 8.8839 103.553 8.60572 102.822 8.60572C102.075 8.60572 101.447 8.8839 100.939 9.44024C100.43 9.99659 100.176 10.7039 100.176 11.5623C100.176 12.4048 100.43 13.1042 100.939 13.6605ZM117.099 21.8865C115.669 21.8865 114.286 21.5129 112.95 20.7658L114.357 17.5947C115.12 18.0556 115.78 18.2861 116.336 18.2861C116.781 18.2861 117.131 18.1113 117.385 17.7616L112.331 5.10075H117.075L119.65 12.8737L122.082 5.10075H126.732L122.011 17.69C121.439 19.216 120.795 20.2969 120.08 20.9327C119.364 21.5686 118.371 21.8865 117.099 21.8865Z" fill="black"/>
<path d="M34.1307 28.7618L32.1416 23.2409H32.5958L34.3186 28.1197L35.924 23.2252H36.2372L37.8426 28.1197L39.5655 23.2409H39.9883L37.9992 28.7618H37.6703L36.065 24.0005L34.4596 28.7618H34.1307ZM53.2418 27.9787C52.7249 28.5373 52.0619 28.8166 51.2527 28.8166C50.4435 28.8166 49.783 28.5399 49.2714 27.9865C48.7598 27.4279 48.504 26.7597 48.504 25.9818C48.504 25.2091 48.7624 24.5434 49.2792 23.9848C49.7961 23.4262 50.4591 23.1469 51.2684 23.1469C52.0776 23.1469 52.738 23.4262 53.2496 23.9848C53.7613 24.5382 54.0171 25.2039 54.0171 25.9818C54.0171 26.7544 53.7587 27.4201 53.2418 27.9787ZM49.5925 27.7281C50.0415 28.2084 50.6001 28.4486 51.2684 28.4486C51.9366 28.4486 52.49 28.211 52.9286 27.7359C53.3723 27.2608 53.5942 26.6761 53.5942 25.9818C53.5942 25.2978 53.3697 24.7157 52.9207 24.2354C52.477 23.7551 51.9209 23.515 51.2527 23.515C50.5844 23.515 50.0284 23.7525 49.5847 24.2276C49.1461 24.7027 48.9268 25.2874 48.9268 25.9818C48.9268 26.6657 49.1487 27.2478 49.5925 27.7281ZM63.2313 28.7227V23.2409H65.5336C66.2019 23.2409 66.7161 23.421 67.0763 23.7812C67.353 24.0579 67.4914 24.4025 67.4914 24.8149C67.4914 25.2587 67.3452 25.6137 67.0529 25.88C66.7605 26.1462 66.3715 26.3133 65.886 26.3811L67.695 28.7227H67.1781L65.4318 26.4516H63.6385V28.7227H63.2313ZM63.6385 26.0836H65.4866C65.9565 26.0836 66.3402 25.9713 66.6378 25.7468C66.9354 25.5171 67.0842 25.2065 67.0842 24.8149C67.0842 24.4442 66.9458 24.1519 66.6691 23.9378C66.3924 23.7238 66.0061 23.6168 65.5101 23.6168H63.6385V26.0836ZM76.7216 28.7227V23.2409H77.1288V28.3468H80.3474V28.7227H76.7216ZM89.4013 28.7227V23.2409H91.226C92.0822 23.2409 92.7817 23.5019 93.3247 24.024C93.8677 24.5408 94.1391 25.1934 94.1391 25.9818C94.1391 26.7649 93.865 27.4175 93.3169 27.9395C92.7739 28.4616 92.0769 28.7227 91.226 28.7227H89.4013ZM89.8085 28.3468H91.226C91.9725 28.3468 92.5729 28.1223 93.0271 27.6733C93.4865 27.2243 93.7163 26.6605 93.7163 25.9818C93.7163 25.3135 93.4865 24.7523 93.0271 24.2981C92.5729 23.8439 91.9725 23.6168 91.226 23.6168H89.8085V28.3468Z" fill="black"/>
</svg>
