<svg width="119" height="33" viewBox="0 0 119 33" fill="none" xmlns="http://www.w3.org/2000/svg">
<g clipPath="url(#clip0_1310_4404)">
<path d="M46.612 14.37C45.7807 14.3742 44.963 14.1596 44.2419 13.7479C43.5209 13.3363 42.922 12.7423 42.506 12.0262C42.0899 11.31 41.8716 10.4971 41.8731 9.66995C41.8745 8.84277 42.0957 8.03067 42.5143 7.31598C42.9328 6.60128 43.5338 6.00939 44.2563 5.60029C44.9789 5.1912 45.7973 4.97945 46.6285 4.9865C47.4598 4.99355 48.2745 5.21915 48.9899 5.64045C49.7053 6.06174 50.2961 6.66374 50.7023 7.38543C49.9085 7.8056 49.8423 7.83921 48.9569 8.26638C48.7175 7.85932 48.3749 7.52186 47.9634 7.28766C47.552 7.05346 47.086 6.93071 46.612 6.93165C45.8905 6.94786 45.2041 7.24441 44.6996 7.75785C44.1951 8.27128 43.9127 8.9608 43.9127 9.67885C43.9127 10.3969 44.1951 11.0864 44.6996 11.5999C45.2041 12.1133 45.8905 12.4098 46.612 12.426C47.1096 12.4302 47.5989 12.2983 48.0263 12.0446C48.4537 11.791 48.8029 11.4253 49.0358 10.9877C49.9211 11.4415 49.9465 11.4933 50.7797 11.8686C50.383 12.6263 49.7842 13.2606 49.049 13.7019C48.3137 14.1431 47.4706 14.3743 46.612 14.37Z" fill="#4B4A4B"/>
<path d="M62.0101 10.8453C62.0101 13.3467 60.5252 14.5652 58.0366 14.5652C55.5241 14.5652 54.0771 13.3733 54.0771 10.8453V5.0918H56.1223V10.8453C56.1223 11.8565 56.3827 12.8551 58.0366 12.8551C59.4962 12.8551 59.9649 12.2333 59.9649 10.8453V5.0918H62.0101V10.8453Z" fill="#4B4A4B"/>
<path d="M71.1602 10.9237L73.7656 14.3579H71.2644L68.9194 11.0274H67.9172V14.3579H65.8594V5.0918H70.0525C72.3975 5.0918 73.2899 6.55678 73.2899 8.05958C73.2899 9.32009 72.6255 10.5806 71.0758 10.9237H71.1602ZM67.9229 6.67303V9.45874H69.512C70.4888 9.45874 71.2954 9.23885 71.2954 8.05818C71.2954 6.8523 70.4888 6.67163 69.512 6.67163L67.9229 6.67303Z" fill="#4B4A4B"/>
<path d="M82.6641 10.9237L85.2695 14.3579H82.7683L80.4247 11.0274H79.4268V14.3579H77.3633V5.0918H81.5578C83.9014 5.0918 84.7952 6.55678 84.7952 8.05958C84.7952 9.32009 84.1308 10.5806 82.5811 10.9237H82.6641ZM79.4268 6.67303V9.45874H81.0159C81.9927 9.45874 82.7993 9.23885 82.7993 8.05818C82.7993 6.8523 81.9927 6.67163 81.0159 6.67163L79.4268 6.67303Z" fill="#4B4A4B"/>
<path d="M90.6255 12.6204H95.8743V14.3277H88.6465V5.05176H95.4323V6.76464H90.6255V8.84868H94.8721V10.6512H90.6255V12.6204Z" fill="#4B4A4B"/>
<path d="M101.06 7.95576V14.3577H99.2725V5.06641H101.617L105.771 10.8451V5.06641L107.507 5.06641V14.3577H105.774L101.06 7.95576Z" fill="#4B4A4B"/>
<path d="M113.579 6.80099H110.623V5.10352H118.559V6.815H115.624V14.3444H113.579V6.80099Z" fill="#4B4A4B"/>
<path d="M43.8777 25.0413C44.0874 26.2598 45.1811 26.4279 45.9355 26.4279C46.652 26.4279 47.7471 26.2206 47.7471 25.2752C47.7471 23.3046 42.2111 24.575 42.2111 21.1156C42.2111 19.2094 44.0086 18.3145 45.6892 18.3145C47.6288 18.3145 49.4136 19.1548 49.4136 21.2948L47.4346 21.0147C47.1868 19.9391 46.2353 19.9013 45.6048 19.9013C44.9742 19.9013 44.1972 20.173 44.1972 20.9503C44.1972 21.638 44.6392 21.7906 46.9701 22.3509C47.6612 22.5203 49.7317 22.9475 49.7317 25.0469C49.7317 26.7444 48.403 28.0147 45.8637 28.0147C43.7806 28.0147 41.9043 27.0035 41.9043 24.7234L43.8777 25.0413Z" fill="#4B4A4B"/>
<path d="M57.1022 28.0097C56.2709 28.0138 55.4533 27.7992 54.7322 27.3876C54.0111 26.976 53.4122 26.382 52.9962 25.6658C52.5802 24.9497 52.3618 24.1368 52.3633 23.3096C52.3648 22.4824 52.586 21.6703 53.0045 20.9556C53.4231 20.2409 54.0241 19.649 54.7466 19.2399C55.4691 18.8308 56.2875 18.6191 57.1188 18.6261C57.9501 18.6332 58.7647 18.8588 59.4801 19.2801C60.1955 19.7014 60.7863 20.3034 61.1926 21.0251C60.3973 21.4452 60.3325 21.4775 59.4472 21.906C59.2079 21.4988 58.8654 21.1612 58.4539 20.9269C58.0424 20.6927 57.5763 20.5701 57.1022 20.5713C56.3808 20.5875 55.6943 20.8841 55.1899 21.3975C54.6854 21.9109 54.4029 22.6005 54.4029 23.3185C54.4029 24.0365 54.6854 24.7261 55.1899 25.2395C55.6943 25.7529 56.3808 26.0495 57.1022 26.0657C57.5999 26.0699 58.0891 25.9379 58.5165 25.6843C58.944 25.4306 59.2932 25.065 59.526 24.6273C60.4114 25.0811 60.4367 25.1329 61.27 25.5083C60.873 26.2658 60.2741 26.8999 59.539 27.3411C58.8038 27.7823 57.9607 28.0136 57.1022 28.0097Z" fill="#4B4A4B"/>
<path d="M64.0547 18.7559H66.7122L68.8685 22.8385L70.9799 18.7559H73.6753V28.0094H71.7611V21.4701H71.7343L69.6554 25.6718H68.0803L66.0225 21.5248H65.9957V28.0052H64.0547V18.7559Z" fill="#4B4A4B"/>
<path d="M17.9341 0.322266C17.6948 0.462322 17.4541 0.589773 17.2177 0.721425C16.9812 0.853078 16.7476 0.990333 16.5139 1.12759C16.0579 1.4077 15.6131 1.68781 15.1936 2.00014C14.3705 2.59221 13.6223 3.28115 12.9655 4.05196C12.8866 4.1486 12.798 4.23543 12.7262 4.33207L12.5038 4.63039C12.3504 4.82227 12.2223 5.03235 12.0815 5.23683C11.9408 5.44132 11.8239 5.657 11.6972 5.86849C11.6367 5.97633 11.5663 6.07717 11.5129 6.19062L11.3454 6.52675C10.9058 7.42378 10.5391 8.35439 10.2489 9.30966C9.92836 10.4155 9.47266 11.4781 8.89199 12.4735C8.3 13.486 7.53832 14.3903 6.6399 15.1472C5.75524 15.8799 4.75699 16.465 3.68404 16.8797L3.48839 16.9581L3.28851 17.0268C3.1562 17.0716 3.0253 17.1178 2.89299 17.1668C2.62837 17.2522 2.35953 17.3237 2.09209 17.3951C1.82466 17.4665 1.553 17.5198 1.28416 17.5772C1.01531 17.6346 0.740839 17.6752 0.467773 17.7172C0.69439 17.5492 0.928044 17.4091 1.15888 17.2691L1.84718 16.8363C2.299 16.5436 2.7452 16.255 3.16746 15.9441C4.00042 15.3571 4.76395 14.6782 5.44348 13.9203C5.60944 13.7374 5.76588 13.5463 5.9122 13.3475C6.07266 13.1612 6.20215 12.9497 6.34291 12.7508C6.41541 12.6523 6.48169 12.5494 6.54137 12.4427C6.6019 12.3363 6.66805 12.2326 6.72999 12.1276C6.85736 11.918 6.97387 11.702 7.07906 11.4805C7.51723 10.5831 7.87792 9.65025 8.15725 8.69202C8.48979 7.5902 8.95235 6.53147 9.53524 5.53795C10.1257 4.53118 10.8741 3.62478 11.7521 2.85308C12.6224 2.09765 13.6146 1.49392 14.6869 1.06736L14.8825 0.988933L15.0838 0.920305C15.2175 0.875487 15.3499 0.829269 15.4836 0.787252C15.6173 0.745235 15.7524 0.70742 15.8875 0.671005C16.0227 0.634591 16.1578 0.602378 16.2929 0.568764C16.5632 0.505739 16.839 0.462322 17.1107 0.413302C17.3824 0.364282 17.6597 0.344675 17.9341 0.322266Z" fill="#7957D5"/>
<path d="M25.4627 2.81198C24.7927 3.04307 24.1325 3.28397 23.4921 3.54447C22.858 3.80063 22.2391 4.09242 21.6383 4.41842C20.4816 5.03852 19.4465 5.86068 18.5825 6.84559L18.4263 7.02627L18.2855 7.21534C18.1842 7.33859 18.0913 7.46884 18.004 7.5991C17.8154 7.8568 17.6423 8.12571 17.479 8.40022C17.1484 8.95375 16.8586 9.53042 16.612 10.1257C16.3646 10.7313 16.1522 11.3504 15.9757 11.98C15.9279 12.1369 15.8814 12.2952 15.835 12.4562L15.7055 12.9464L15.5647 13.48C15.5169 13.6579 15.4606 13.833 15.4043 14.0095C15.1775 14.713 14.9063 15.4016 14.5921 16.0711C14.2732 16.7405 13.9107 17.3884 13.5069 18.0109C13.1015 18.6301 12.6518 19.2194 12.1613 19.7742C11.676 20.3284 11.1525 20.8483 10.5947 21.3302C9.49113 22.2761 8.27249 23.0803 6.96738 23.7237C5.68995 24.357 4.34727 24.8505 2.96289 25.1957C3.55829 24.8106 4.14664 24.4268 4.72374 24.0375C5.30084 23.6481 5.86527 23.2462 6.41281 22.8288C7.49165 22.0134 8.49587 21.1046 9.41372 20.1131C9.86301 19.6261 10.2859 19.1155 10.6805 18.5837C11.0703 18.0558 11.4312 17.5074 11.7615 16.9408C12.0867 16.3737 12.3813 15.7898 12.6441 15.1915C12.9102 14.5932 13.1414 13.9802 13.3366 13.3554C13.383 13.1971 13.4393 13.0431 13.4773 12.8848L13.6181 12.41L13.7588 11.8918C13.8053 11.7153 13.8602 11.5403 13.9151 11.3652C14.1392 10.6592 14.4086 9.96827 14.7216 9.29657C15.3517 7.92089 16.2447 6.68029 17.3509 5.64391C18.4611 4.635 19.7792 3.87932 21.2133 3.42963C21.905 3.21287 22.6135 3.05314 23.3316 2.95204C24.0375 2.85314 24.7498 2.80633 25.4627 2.81198Z" fill="#7957D5"/>
<path d="M30.4731 7.80124C30.1367 7.92029 29.7989 8.00993 29.4695 8.12898L28.9811 8.31245L28.7376 8.40068C28.6559 8.4301 28.5785 8.46931 28.4997 8.50292C28.1858 8.64298 27.8663 8.76483 27.5707 8.9329L27.1189 9.16399C26.9781 9.24662 26.8374 9.33906 26.6882 9.42449C25.5607 10.1054 24.5579 10.9721 23.7224 11.9875L23.424 12.3741L23.2748 12.566L23.2002 12.6612L23.1327 12.7634C23.044 12.9035 22.9525 13.0337 22.861 13.1682C22.7695 13.3026 22.6738 13.4315 22.5964 13.5772L22.3543 13.9973L22.2318 14.2074L22.1699 14.3124L22.115 14.4231C21.9743 14.7172 21.818 15.0071 21.6787 15.3026C21.5393 15.5982 21.4183 15.9091 21.2874 16.2088C21.1565 16.5085 21.0565 16.8307 20.9411 17.1402L20.8553 17.3727L20.7792 17.6108L20.6272 18.0856L20.4752 18.5632L20.319 19.0898C20.098 19.776 19.8489 20.4637 19.5575 21.1416C19.2661 21.8195 18.9325 22.4651 18.5525 23.1024C18.178 23.7424 17.7575 24.3547 17.2941 24.9343C17.2389 25.0096 17.1792 25.0816 17.1154 25.15L16.931 25.3601C16.8071 25.5001 16.6861 25.6402 16.5594 25.7802L16.1568 26.171C16.0161 26.2998 15.8922 26.4315 15.7458 26.5491C14.634 27.5082 13.3771 28.2867 12.0214 28.8559C11.6907 28.9959 11.3613 29.136 11.0263 29.255C10.6913 29.3741 10.3577 29.4973 10.0199 29.6052C9.34568 29.8265 8.66583 30.0169 7.97754 30.192C8.56871 29.8027 9.16833 29.4287 9.76091 29.0576C10.0551 28.8685 10.3535 28.6878 10.642 28.4973C10.7828 28.4007 10.9348 28.3139 11.077 28.2172L11.4992 27.9259C12.6138 27.186 13.6354 26.3161 14.5424 25.3349C15.4146 24.3627 16.153 23.2795 16.7382 22.1136C16.8114 21.9665 16.8789 21.8195 16.9591 21.6738L17.0717 21.4539L17.1717 21.227C17.3026 20.9231 17.4448 20.622 17.5672 20.3181C17.8178 19.713 18.0359 19.0856 18.2358 18.4455L18.3878 17.9637L18.5581 17.4483L18.7313 16.9301L18.8185 16.6724C18.8495 16.5856 18.8861 16.5015 18.9199 16.4175C19.0606 16.0786 19.2014 15.7396 19.3421 15.4035C19.4829 15.0674 19.6602 14.7396 19.8263 14.4119C19.9924 14.0842 20.1951 13.7704 20.3795 13.4497C20.4668 13.2886 20.5822 13.1388 20.6849 12.9847L21.003 12.5267C21.1044 12.3727 21.2311 12.2326 21.3451 12.0856C21.4591 11.9385 21.5787 11.7942 21.6998 11.6514L21.7885 11.5449L21.887 11.4441L22.0812 11.241L22.4711 10.8265C23.5438 9.7916 24.82 8.98861 26.2194 8.46791C27.5792 7.96848 29.0249 7.7419 30.4731 7.80124Z" fill="#7957D5"/>
<path d="M32.9799 15.291C32.7406 15.4311 32.4999 15.5585 32.2621 15.6902C32.0242 15.8218 31.7933 15.9591 31.5583 16.0963C31.1022 16.3765 30.6574 16.6566 30.238 16.9689C29.4131 17.5603 28.6635 18.2493 28.0056 19.0207C27.9254 19.1173 27.8381 19.2042 27.7663 19.3008L27.5439 19.5991C27.3891 19.791 27.2624 19.9997 27.1217 20.2056C26.9809 20.4115 26.8641 20.6258 26.7374 20.8372C26.6769 20.9451 26.6065 21.0459 26.553 21.158L26.3869 21.4913C25.9474 22.3883 25.5807 23.3189 25.2904 24.2742C24.9693 25.3799 24.5136 26.4424 23.9336 27.4381C23.3412 28.4503 22.5796 29.3545 21.6815 30.1117C20.7964 30.8439 19.7982 31.4289 18.7256 31.8442L18.5299 31.9213L18.3315 31.9899C18.1992 32.0361 18.0683 32.0823 17.936 32.13C17.6699 32.2168 17.4025 32.2868 17.1351 32.3596C16.8676 32.4325 16.596 32.4843 16.3271 32.5417C16.0583 32.5991 15.7838 32.6398 15.5107 32.6818C15.7402 32.5277 15.9752 32.3863 16.2061 32.242L16.893 31.8092C17.3448 31.5165 17.791 31.2266 18.2147 30.9171C19.0471 30.3299 19.8101 29.651 20.4893 28.8933C20.6551 28.7113 20.8115 28.521 20.958 28.3232C21.1184 28.137 21.2395 27.9255 21.3887 27.7266C21.4607 27.6277 21.527 27.5249 21.5872 27.4185C21.6477 27.3106 21.7124 27.2084 21.7758 27.1033C21.9095 26.8989 22.0108 26.672 22.1248 26.4549C22.563 25.5575 22.9237 24.6246 23.203 23.6664C23.5358 22.5642 23.9983 21.505 24.581 20.5109C25.172 19.5053 25.9204 18.5999 26.7979 17.8288C27.6681 17.0734 28.6603 16.4697 29.7327 16.0431L29.9283 15.9647L30.1296 15.8961C30.2633 15.8498 30.3956 15.8036 30.5294 15.756C30.6631 15.7084 30.7982 15.6776 30.9333 15.6412C31.0684 15.6047 31.2036 15.5725 31.3387 15.5389C31.6089 15.4759 31.8848 15.4325 32.1565 15.3821C32.4281 15.3316 32.7054 15.3078 32.9799 15.291Z" fill="#7957D5"/>
</g>
<defs>
<clipPath id="clip0_1310_4404">
<rect width="118.088" height="32.3529" fill="white" transform="translate(0.455078 0.322266)"/>
</clipPath>
</defs>
</svg>
