<svg width="204" height="204" viewBox="0 0 204 204" fill="none" xmlns="http://www.w3.org/2000/svg">
<rect width="204" height="204" fill="#F8FBFF"/>
<g clip-path="url(#clip0_467_1021)">
<path d="M86.0665 99.3683C85.0387 99.3734 84.0279 99.108 83.1363 98.5991C82.2448 98.0902 81.5044 97.3558 80.99 96.4704C80.4757 95.585 80.2057 94.58 80.2075 93.5573C80.2093 92.5346 80.4828 91.5305 81.0003 90.6469C81.5178 89.7633 82.2608 89.0315 83.1541 88.5257C84.0475 88.0199 85.0593 87.7581 86.0871 87.7668C87.1148 87.7755 88.122 88.0545 89.0065 88.5753C89.891 89.0962 90.6214 89.8405 91.1237 90.7328C90.1422 91.2522 90.0604 91.2938 88.9658 91.8219C88.6697 91.3187 88.2462 90.9014 87.7375 90.6119C87.2287 90.3223 86.6526 90.1706 86.0665 90.1717C85.1746 90.1918 84.3259 90.5584 83.7022 91.1932C83.0785 91.828 82.7292 92.6805 82.7292 93.5683C82.7292 94.456 83.0785 95.3085 83.7022 95.9433C84.3259 96.5781 85.1746 96.9448 86.0665 96.9648C86.6818 96.97 87.2867 96.8068 87.8152 96.4932C88.3436 96.1796 88.7754 95.7276 89.0632 95.1864C90.1579 95.7475 90.1892 95.8116 91.2194 96.2756C90.7289 97.2124 89.9886 97.9966 89.0796 98.5422C88.1706 99.0877 87.1281 99.3736 86.0665 99.3683Z" fill="#4B4A4B"/>
<path d="M105.104 95.0099C105.104 98.1025 103.268 99.609 100.191 99.609C97.0849 99.609 95.2959 98.1354 95.2959 95.0099V87.8965H97.8245V95.0099C97.8245 96.2601 98.1464 97.4948 100.191 97.4948C101.996 97.4948 102.575 96.7259 102.575 95.0099V87.8965H105.104V95.0099Z" fill="#4B4A4B"/>
<path d="M116.418 95.1069L119.639 99.3528H116.547L113.647 95.235H112.408V99.3528H109.864V87.8965H115.048C117.947 87.8965 119.051 89.7077 119.051 91.5657C119.051 93.1242 118.229 94.6826 116.313 95.1069H116.418ZM112.415 89.8515V93.2956H114.38C115.588 93.2956 116.585 93.0238 116.585 91.564C116.585 90.0731 115.588 89.8497 114.38 89.8497L112.415 89.8515Z" fill="#4B4A4B"/>
<path d="M130.639 95.1069L133.861 99.3528H130.768L127.871 95.235H126.637V99.3528H124.086V87.8965H129.272C132.169 87.8965 133.274 89.7077 133.274 91.5657C133.274 93.1242 132.453 94.6826 130.537 95.1069H130.639ZM126.637 89.8515V93.2956H128.602C129.809 93.2956 130.807 93.0238 130.807 91.564C130.807 90.0731 129.809 89.8497 128.602 89.8497L126.637 89.8515Z" fill="#4B4A4B"/>
<path d="M140.483 97.2052H146.972V99.3161H138.036V87.8477H146.426V89.9654H140.483V92.542H145.733V94.7706H140.483V97.2052Z" fill="#4B4A4B"/>
<path d="M153.383 91.4375V99.3527H151.173V87.8652H154.072L159.208 95.0098V87.8652H161.354V99.3527H159.211L153.383 91.4375Z" fill="#4B4A4B"/>
<path d="M168.861 90.0108H165.207V87.9121H175.018V90.0281H171.39V99.3372H168.861V90.0108Z" fill="#4B4A4B"/>
<path d="M82.6847 112.563C82.944 114.069 84.2962 114.277 85.2289 114.277C86.1147 114.277 87.4686 114.021 87.4686 112.852C87.4686 110.416 80.6242 111.986 80.6242 107.709C80.6242 105.353 82.8465 104.246 84.9244 104.246C87.3225 104.246 89.5291 105.285 89.5291 107.931L87.0823 107.585C86.776 106.255 85.5996 106.208 84.82 106.208C84.0404 106.208 83.0797 106.544 83.0797 107.505C83.0797 108.355 83.6262 108.544 86.508 109.237C87.3625 109.446 89.9224 109.974 89.9224 112.57C89.9224 114.669 88.2796 116.239 85.1402 116.239C82.5646 116.239 80.2449 114.989 80.2449 112.17L82.6847 112.563Z" fill="#4B4A4B"/>
<path d="M99.0351 116.233C98.0073 116.238 96.9964 115.972 96.1048 115.463C95.2133 114.954 94.4729 114.22 93.9585 113.335C93.4442 112.449 93.1742 111.444 93.176 110.422C93.1778 109.399 93.4513 108.395 93.9688 107.511C94.4863 106.628 95.2293 105.896 96.1227 105.39C97.016 104.884 98.0278 104.622 99.0556 104.631C100.083 104.64 101.091 104.919 101.975 105.44C102.86 105.96 103.59 106.705 104.092 107.597C103.109 108.117 103.029 108.156 101.934 108.686C101.638 108.183 101.215 107.765 100.706 107.476C100.197 107.186 99.6212 107.034 99.0351 107.036C98.1431 107.056 97.2944 107.423 96.6707 108.057C96.047 108.692 95.6978 109.545 95.6978 110.433C95.6978 111.32 96.047 112.173 96.6707 112.808C97.2944 113.442 98.1431 113.809 99.0351 113.829C99.6503 113.834 100.255 113.671 100.784 113.357C101.312 113.044 101.744 112.592 102.032 112.051C103.126 112.612 103.158 112.676 104.188 113.14C103.697 114.076 102.957 114.86 102.048 115.406C101.139 115.951 100.097 116.237 99.0351 116.233Z" fill="#4B4A4B"/>
<path d="M107.631 104.792H110.917L113.583 109.84L116.193 104.792H119.526V116.233H117.159V108.148H117.126L114.556 113.343H112.608L110.064 108.215H110.031V116.228H107.631V104.792Z" fill="#4B4A4B"/>
<path d="M50.6097 82C50.3138 82.1732 50.0162 82.3307 49.7239 82.4935C49.4315 82.6563 49.1426 82.826 48.8537 82.9957C48.2899 83.342 47.74 83.6883 47.2214 84.0745C46.2037 84.8065 45.2787 85.6583 44.4666 86.6113C44.3691 86.7307 44.2595 86.8381 44.1707 86.9576L43.8958 87.3264C43.7061 87.5636 43.5477 87.8234 43.3737 88.0762C43.1997 88.329 43.0552 88.5957 42.8986 88.8571C42.8238 88.9905 42.7368 89.1152 42.6706 89.2554L42.4635 89.671C41.9201 90.78 41.4667 91.9306 41.1079 93.1117C40.7116 94.479 40.1482 95.7927 39.4303 97.0234C38.6984 98.2752 37.7567 99.3932 36.6459 100.329C35.5521 101.235 34.3179 101.958 32.9914 102.471L32.7495 102.568L32.5024 102.653C32.3388 102.708 32.1769 102.765 32.0133 102.826C31.6862 102.932 31.3538 103.02 31.0231 103.108C30.6925 103.197 30.3566 103.262 30.0242 103.333C29.6918 103.404 29.3525 103.455 29.0149 103.507C29.2951 103.299 29.584 103.126 29.8694 102.952L30.7203 102.417C31.279 102.055 31.8306 101.699 32.3527 101.314C33.3825 100.589 34.3265 99.7491 35.1667 98.8121C35.3719 98.586 35.5653 98.3497 35.7462 98.1039C35.9446 97.8736 36.1047 97.6121 36.2787 97.3662C36.3683 97.2444 36.4503 97.1172 36.5241 96.9853C36.5989 96.8537 36.6807 96.7255 36.7573 96.5957C36.9147 96.3365 37.0588 96.0695 37.1888 95.7957C37.7306 94.6861 38.1765 93.5328 38.5219 92.3481C38.933 90.9858 39.5049 89.6768 40.2256 88.4485C40.9556 87.2037 41.8809 86.0831 42.9665 85.129C44.0424 84.195 45.2691 83.4486 46.5949 82.9212L46.8368 82.8242L47.0857 82.7394C47.251 82.684 47.4146 82.6268 47.5799 82.5749C47.7452 82.5229 47.9123 82.4762 48.0793 82.4312C48.2464 82.3861 48.4135 82.3463 48.5805 82.3048C48.9147 82.2268 49.2557 82.1732 49.5916 82.1126C49.9275 82.0519 50.2703 82.0277 50.6097 82Z" fill="#7957D5"/>
<path d="M59.9178 85.0787C59.0894 85.3644 58.2732 85.6622 57.4814 85.9843C56.6975 86.301 55.9323 86.6618 55.1895 87.0648C53.7594 87.8315 52.4797 88.848 51.4114 90.0657L51.2182 90.2891L51.0442 90.5228C50.9189 90.6752 50.8041 90.8363 50.6962 90.9973C50.463 91.3159 50.2489 91.6484 50.0471 91.9878C49.6383 92.6721 49.28 93.3851 48.9751 94.1211C48.6693 94.8698 48.4067 95.6353 48.1885 96.4138C48.1293 96.6077 48.0719 96.8034 48.0144 97.0025L47.8543 97.6086L47.6803 98.2683C47.6211 98.4882 47.5515 98.7047 47.4819 98.9228C47.2016 99.7927 46.8662 100.644 46.4778 101.472C46.0835 102.299 45.6353 103.101 45.1361 103.87C44.6349 104.636 44.0789 105.364 43.4724 106.05C42.8724 106.735 42.2252 107.378 41.5355 107.974C40.1711 109.143 38.6644 110.138 37.0509 110.933C35.4715 111.716 33.8114 112.326 32.0999 112.753C32.836 112.277 33.5634 111.803 34.2769 111.321C34.9904 110.84 35.6882 110.343 36.3652 109.827C37.699 108.819 38.9406 107.695 40.0754 106.469C40.6309 105.867 41.1537 105.236 41.6416 104.578C42.1236 103.926 42.5697 103.248 42.9782 102.547C43.3802 101.846 43.7444 101.124 44.0693 100.384C44.3983 99.6446 44.6842 98.8866 44.9255 98.1142C44.9829 97.9185 45.0525 97.728 45.0995 97.5324L45.2735 96.9454L45.4476 96.3047C45.505 96.0865 45.5729 95.87 45.6407 95.6536C45.9179 94.7807 46.251 93.9265 46.6379 93.096C47.4169 91.3952 48.521 89.8613 49.8887 88.58C51.2613 87.3326 52.891 86.3983 54.6639 85.8423C55.5192 85.5743 56.3952 85.3768 57.283 85.2518C58.1558 85.1296 59.0364 85.0717 59.9178 85.0787Z" fill="#7957D5"/>
<path d="M66.112 91.2468C65.6961 91.394 65.2784 91.5048 64.8712 91.652L64.2673 91.8788L63.9663 91.9879C63.8653 92.0243 63.7696 92.0728 63.6721 92.1143C63.2841 92.2875 62.889 92.4381 62.5236 92.6459L61.965 92.9316C61.7909 93.0338 61.6169 93.1481 61.4325 93.2537C60.0385 94.0955 58.7986 95.1671 57.7657 96.4225L57.3968 96.9005L57.2123 97.1377L57.1201 97.2555L57.0366 97.3819C56.9269 97.555 56.8138 97.7161 56.7007 97.8823C56.5876 98.0485 56.4693 98.2078 56.3735 98.3879L56.0742 98.9074L55.9228 99.1671L55.8463 99.297L55.7784 99.4338C55.6044 99.7974 55.4112 100.156 55.2389 100.521C55.0666 100.887 54.917 101.271 54.7551 101.642C54.5933 102.012 54.4697 102.41 54.327 102.793L54.2209 103.081L54.1269 103.375L53.9389 103.962L53.751 104.552L53.5578 105.204C53.2846 106.052 52.9766 106.902 52.6163 107.74C52.2561 108.578 51.8437 109.377 51.3738 110.165C50.9108 110.956 50.3909 111.713 49.818 112.429C49.7497 112.523 49.6759 112.612 49.597 112.696L49.369 112.956C49.2159 113.129 49.0662 113.302 48.9096 113.475L48.4119 113.958C48.2379 114.118 48.0847 114.281 47.9038 114.426C46.5292 115.612 44.9751 116.574 43.2991 117.278C42.8901 117.451 42.4829 117.624 42.0687 117.771C41.6545 117.919 41.2421 118.071 40.8244 118.204C39.9908 118.478 39.1503 118.713 38.2993 118.93C39.0302 118.449 39.7716 117.986 40.5042 117.527C40.8679 117.294 41.2369 117.07 41.5936 116.835C41.7676 116.715 41.9556 116.608 42.1313 116.488L42.6534 116.128C44.0314 115.213 45.2945 114.138 46.4158 112.925C47.4943 111.723 48.4072 110.384 49.1306 108.942C49.2211 108.76 49.3047 108.578 49.4038 108.398L49.5431 108.126L49.6666 107.846C49.8285 107.47 50.0042 107.098 50.1556 106.722C50.4654 105.974 50.7351 105.198 50.9823 104.407L51.1702 103.811L51.3808 103.174L51.5948 102.533L51.7027 102.215C51.741 102.107 51.7862 102.004 51.828 101.9C52.002 101.481 52.1761 101.062 52.3501 100.646C52.5241 100.23 52.7434 99.8251 52.9487 99.42C53.1541 99.0148 53.4047 98.6269 53.6327 98.2303C53.7405 98.0312 53.8832 97.8459 54.0103 97.6555L54.4036 97.0892C54.5289 96.8987 54.6855 96.7256 54.8265 96.5438C54.9674 96.3619 55.1153 96.1836 55.265 96.007L55.3746 95.8754L55.4965 95.7507L55.7366 95.4996L56.2187 94.9871C57.5449 93.7076 59.1227 92.7148 60.8529 92.071C62.5341 91.4536 64.3215 91.1734 66.112 91.2468Z" fill="#7957D5"/>
<path d="M69.2113 100.507C68.9154 100.68 68.6179 100.838 68.3237 101C68.0296 101.163 67.7442 101.333 67.4536 101.503C66.8898 101.849 66.3399 102.195 65.8213 102.581C64.8014 103.313 63.8746 104.164 63.0612 105.118C62.962 105.238 62.8541 105.345 62.7654 105.464L62.4904 105.833C62.299 106.07 62.1424 106.328 61.9684 106.583C61.7943 106.838 61.6499 107.103 61.4933 107.364C61.4184 107.497 61.3314 107.622 61.2653 107.761L61.0599 108.173C60.5165 109.282 60.0631 110.432 59.7043 111.613C59.3073 112.98 58.7439 114.294 58.0267 115.525C57.2943 116.777 56.3527 117.894 55.2423 118.831C54.148 119.736 52.9139 120.459 51.5878 120.973L51.3459 121.068L51.1005 121.153C50.9369 121.21 50.7751 121.267 50.6115 121.326C50.2826 121.433 49.9519 121.52 49.6213 121.61C49.2906 121.7 48.9548 121.764 48.6224 121.835C48.29 121.906 47.9506 121.956 47.613 122.008C47.8967 121.818 48.1873 121.643 48.4727 121.464L49.322 120.929C49.8806 120.567 50.4322 120.209 50.9561 119.826C51.9852 119.1 52.9286 118.261 53.7683 117.324C53.9733 117.099 54.1667 116.864 54.3478 116.619C54.5462 116.389 54.6959 116.128 54.8803 115.882C54.9694 115.76 55.0513 115.632 55.1257 115.501C55.2005 115.367 55.2806 115.241 55.3589 115.111C55.5242 114.858 55.6495 114.578 55.7905 114.309C56.3322 113.2 56.7782 112.047 57.1235 110.862C57.5349 109.499 58.1068 108.19 58.8272 106.961C59.5579 105.717 60.4831 104.598 61.5681 103.645C62.644 102.711 63.8707 101.964 65.1965 101.437L65.4384 101.34L65.6873 101.255C65.8526 101.198 66.0162 101.141 66.1815 101.082C66.3468 101.023 66.5139 100.985 66.681 100.94C66.848 100.895 67.0151 100.855 67.1821 100.813C67.5163 100.735 67.8574 100.682 68.1932 100.619C68.5291 100.557 68.8719 100.528 69.2113 100.507Z" fill="#7957D5"/>
</g>
<defs>
<clipPath id="clip0_467_1021">
<rect width="146" height="40" fill="white" transform="translate(29 82)"/>
</clipPath>
</defs>
</svg>
