<svg width="103" height="25" viewBox="0 0 103 25" fill="none" xmlns="http://www.w3.org/2000/svg">
<path d="M25.2832 19.2913L28.4294 4.94824H40.3435L39.4875 8.82344H33.1719L32.8943 10.1153H38.3308L37.4517 14.1242H32.0152L31.7145 15.4158H38.0301L37.1974 19.2913H25.2832Z" fill="#121612"/>
<path d="M42.2869 19.2913L44.5773 8.82344H40.7832L41.6393 4.94824H54.8256L53.9696 8.82344H50.1756L47.8854 19.2913H42.2869Z" fill="#121612"/>
<path d="M53.6455 19.2913L56.7917 4.94824H68.7058L67.8498 8.82344H61.5342L61.2566 10.1153H66.6931L65.814 14.1242H60.3775L60.0768 15.4158H66.3924L65.5597 19.2913H53.6455Z" fill="#121612"/>
<path d="M74.9976 11.4293H76.3625C77.2723 11.4293 77.8043 11.0584 77.9586 10.3157C77.9738 10.2416 77.9854 10.1748 77.9933 10.1153C78.001 10.056 78.005 9.99647 78.005 9.93716C78.005 9.41752 77.65 9.15752 76.9408 9.15752H75.4834L74.9976 11.4293ZM67.6641 19.2913L70.8102 4.94824H79.1848C80.6344 4.94824 81.7643 5.33448 82.574 6.10627C83.3837 6.87852 83.7885 7.86575 83.7885 9.06844C83.7885 9.46933 83.7421 9.88523 83.6497 10.3157C83.4491 11.2811 83.0365 12.1236 82.412 12.8435C81.7874 13.564 81.0044 14.1687 80.0638 14.6588C80.3105 14.8518 80.4648 15.0969 80.5266 15.3937L81.4287 19.2913H75.5989L74.8356 16.1064C74.7738 15.7946 74.5888 15.6387 74.2803 15.6387H74.0491L73.2625 19.2913H67.6641Z" fill="#121612"/>
<path d="M92.0942 14.9484C92.9115 14.9484 93.5401 14.7367 93.9795 14.3137C94.4192 13.8905 94.7546 13.1593 94.986 12.1199C95.0473 11.8381 95.0976 11.5818 95.1362 11.3515C95.1747 11.1215 95.1942 10.9099 95.1942 10.7166C95.1942 10.1972 95.0553 9.82973 94.7778 9.61428C94.5002 9.39918 94.0219 9.29122 93.3435 9.29122C92.5257 9.29122 91.8976 9.50292 91.4579 9.92609C91.0185 10.3493 90.6829 11.0807 90.4517 12.1199C90.3898 12.402 90.3436 12.6581 90.3129 12.8883C90.2817 13.1186 90.2665 13.3302 90.2665 13.523C90.2665 14.0279 90.4054 14.3916 90.6829 14.6142C90.9605 14.837 91.4309 14.9484 92.0942 14.9484ZM91.0763 19.5142C89.7496 19.5142 88.5894 19.3432 87.5946 19.0018C86.5999 18.6604 85.8284 18.1149 85.2812 17.3648C84.7336 16.6153 84.46 15.6242 84.46 14.3916C84.46 13.7235 84.5525 12.9662 84.7376 12.1199C85.1384 10.3085 85.7591 8.86477 86.5999 7.78798C87.4402 6.71154 88.5084 5.93214 89.8038 5.44942C91.0994 4.96718 92.6184 4.72559 94.3613 4.72559C95.7183 4.72559 96.8905 4.89263 97.8777 5.2267C98.8645 5.56078 99.6279 6.09906 100.168 6.84142C100.708 7.58401 100.978 8.56398 100.978 9.78132C100.978 10.4644 100.885 11.2439 100.7 12.1199C100.299 13.9165 99.6821 15.3569 98.8492 16.4405C98.0165 17.5247 96.956 18.308 95.6683 18.7902C94.3805 19.273 92.8496 19.5142 91.0763 19.5142Z" fill="#121612"/>
<path d="M15.1572 8.58408L15.1682 8.57617C15.1641 8.57914 15.1603 8.58173 15.1572 8.58408Z" fill="#63C127"/>
<path d="M22.3819 2.48375L16.5305 6.6445C16.5305 6.6445 15.3358 7.49388 15.3355 7.49412C15.5344 7.35275 15.6951 7.15711 15.8137 6.94963C15.9091 6.78282 15.7751 6.57358 15.5799 6.57358H13.1271L12.5664 9.06218H13.1304L4.08118 15.4971L2.12695 16.8864C2.18917 16.8303 4.18601 15.0166 4.43318 13.8916L4.43342 13.8912L7.11673 1.65723H19.0124C20.3391 1.65723 21.4624 1.93281 22.3819 2.48375Z" fill="#63C127"/>
<path d="M15.9846 15.282C15.9846 15.342 15.9737 15.4019 15.9535 15.4619C15.7664 16.3214 15.1749 16.751 14.1785 16.751H11.3759L11.9364 14.2628H14.7387C15.569 14.2628 15.9846 14.5527 15.9846 15.1322V15.282ZM23.6292 10.2754C24.1169 9.59609 24.4647 8.77648 24.6723 7.81715C24.7552 7.47768 24.7968 7.10796 24.7968 6.708C24.7968 5.69287 24.4894 4.83024 23.8746 4.12012C23.7472 3.97289 23.7367 3.76248 23.8494 3.60458C24.1921 3.1248 24.736 2.60352 24.7484 2.5918L23.3334 3.59767L17.4596 7.77471C17.5141 7.88912 17.5414 8.0231 17.5414 8.1769C17.5414 8.29682 17.5305 8.39704 17.5105 8.47663C17.3236 9.33633 16.7319 9.76594 15.7355 9.76594H14.6592L4.23259 17.1802L3.24805 21.6677H10.9401L22.8155 13.2236L23.2365 12.9242L24.0143 12.3712C23.7909 12.53 23.594 12.6238 23.425 12.6756C23.2375 12.7332 23.0324 12.6888 22.8895 12.5587C22.6132 12.3072 22.2838 12.0857 21.9009 11.8944C22.565 11.4948 23.1414 10.9553 23.6292 10.2754Z" fill="#63C127"/>
<mask id="mask0_1310_4366" style="mask-type:alpha" maskUnits="userSpaceOnUse" x="10" y="13" width="16" height="11">
<path d="M10.9893 13.3447H25.161V23.4212H10.9893V13.3447Z" fill="white"/>
</mask>
<g mask="url(#mask0_1310_4366)">
<path d="M24.2575 14.3638C24.131 14.5419 24.0723 14.7561 24.0899 14.9712C24.0984 15.0755 24.1026 15.1836 24.1026 15.2953C24.1026 15.4751 24.0872 15.6699 24.056 15.8799C24.0247 16.0896 23.9883 16.3047 23.9469 16.5245C23.5522 18.3433 22.6859 19.7725 21.3468 20.8116C20.0077 21.8507 18.1027 22.3705 15.6326 22.3705H13.62C12.7123 22.3705 11.041 23.3896 10.9893 23.4213L12.4668 22.3705L23.9321 14.2177C23.9321 14.2179 23.9323 14.2181 23.9323 14.2184L25.161 13.3447C25.1485 13.3567 24.5999 13.8822 24.2575 14.3638Z" fill="#63C127"/>
</g>
</svg>
