<svg width="1000" height="1000" viewBox="0 0 1000 1000" fill="none" xmlns="http://www.w3.org/2000/svg">
<rect width="1000" height="1000" fill="#F8FBFF"/>
<path d="M210.383 516.11C204.149 516.11 199.046 514.396 195.072 510.967C191.098 507.461 189.111 502.591 189.111 496.357C189.111 489.968 191.332 485.059 195.773 481.631C200.214 478.202 206.253 476.488 213.889 476.488C219.421 476.488 224.486 477.306 229.084 478.942V477.891C229.084 471.034 224.876 467.605 216.461 467.605C210.772 467.605 204.967 468.774 199.046 471.112L194.487 455.45C202.435 452.177 210.967 450.541 220.084 450.541C230.993 450.541 239.018 453.112 244.161 458.255C248.68 462.696 250.94 469.397 250.94 478.358V514.707H228.967V508.162C224.214 513.461 218.019 516.11 210.383 516.11ZM218.331 502.201C221.603 502.201 224.252 501.266 226.278 499.396C228.304 497.448 229.317 494.916 229.317 491.799V488.877C226.746 487.786 223.863 487.241 220.668 487.241C217.474 487.241 214.98 487.981 213.188 489.462C211.396 490.864 210.5 492.812 210.5 495.306C210.5 497.409 211.201 499.085 212.604 500.331C214.084 501.578 215.993 502.201 218.331 502.201Z" fill="black"/>
<path d="M297.415 516.227C287.987 516.227 280.117 513.032 273.805 506.643C267.494 500.176 264.338 492.345 264.338 483.15C264.338 474.034 267.533 466.281 273.922 459.891C280.312 453.424 288.415 450.19 298.233 450.19C310.311 450.19 319.31 454.904 325.232 464.333L310.388 475.085C307.428 470.956 303.609 468.891 298.934 468.891C294.96 468.891 291.805 470.254 289.467 472.982C287.13 475.709 285.961 479.098 285.961 483.15C285.961 487.28 287.13 490.708 289.467 493.435C291.805 496.163 294.844 497.526 298.584 497.526C301.077 497.526 303.181 496.981 304.895 495.89C306.687 494.799 308.557 493.124 310.505 490.864L325.583 501.734C319.038 511.396 309.648 516.227 297.415 516.227Z" fill="black"/>
<path d="M367.74 516.227C357.766 516.227 349.623 513.188 343.312 507.11C337 501.033 333.845 493.046 333.845 483.15C333.845 473.8 336.845 465.969 342.844 459.657C348.844 453.268 356.48 450.073 365.753 450.073C376.116 450.073 384.025 453.346 389.479 459.891C394.933 466.436 397.661 474.696 397.661 484.67C397.661 486.695 397.622 488.215 397.544 489.228H355.234C357.026 496.163 361.584 499.63 368.908 499.63C373.895 499.63 378.57 497.487 382.934 493.202L395.206 503.37C388.427 511.941 379.272 516.227 367.74 516.227ZM354.883 477.891H376.856C376.467 474.384 375.298 471.618 373.35 469.592C371.402 467.488 368.908 466.436 365.869 466.436C362.986 466.436 360.571 467.488 358.623 469.592C356.753 471.618 355.506 474.384 354.883 477.891Z" fill="black"/>
<path d="M453.35 516.11C445.714 516.11 439.285 513.071 434.065 506.993V514.707H411.858V429.386H434.065V459.891C439.441 453.346 445.831 450.073 453.233 450.073C461.025 450.073 467.648 453.112 473.102 459.19C478.557 465.19 481.284 473.137 481.284 483.033C481.284 493.007 478.557 501.033 473.102 507.11C467.726 513.11 461.142 516.11 453.35 516.11ZM446.454 497.526C450.116 497.526 453.194 496.163 455.687 493.435C458.181 490.708 459.428 487.202 459.428 482.916C459.428 478.787 458.181 475.397 455.687 472.748C453.194 470.021 450.116 468.657 446.454 468.657C442.87 468.657 439.831 470.021 437.337 472.748C434.844 475.475 433.597 478.942 433.597 483.15C433.597 487.28 434.844 490.708 437.337 493.435C439.831 496.163 442.87 497.526 446.454 497.526Z" fill="black"/>
<path d="M516.556 516.11C509.855 516.11 504.595 514.045 500.777 509.915C496.959 505.786 495.05 500.098 495.05 492.851V451.476H517.257V485.721C517.257 489.072 518.075 491.682 519.712 493.552C521.348 495.422 523.53 496.357 526.257 496.357C528.984 496.357 531.205 495.422 532.919 493.552C534.633 491.682 535.49 489.072 535.49 485.721V451.476H557.697V514.707H535.49V506.058C530.27 512.76 523.958 516.11 516.556 516.11Z" fill="black"/>
<path d="M599.866 516.11C592.074 516.11 585.451 513.11 579.997 507.11C574.62 501.033 571.932 493.046 571.932 483.15C571.932 473.176 574.62 465.19 579.997 459.19C585.373 453.112 591.957 450.073 599.749 450.073C607.385 450.073 613.853 453.112 619.151 459.19V429.386H641.358V514.707H619.151V506.292C613.775 512.837 607.346 516.11 599.866 516.11ZM597.412 493.435C599.983 496.163 603.061 497.526 606.645 497.526C610.229 497.526 613.268 496.163 615.762 493.435C618.255 490.708 619.502 487.202 619.502 482.916C619.502 478.787 618.255 475.397 615.762 472.748C613.268 470.021 610.229 468.657 606.645 468.657C602.983 468.657 599.905 470.021 597.412 472.748C594.918 475.475 593.671 478.942 593.671 483.15C593.671 487.28 594.918 490.708 597.412 493.435Z" fill="black"/>
<path d="M683.526 516.11C675.734 516.11 669.111 513.11 663.656 507.11C658.28 501.033 655.592 493.046 655.592 483.15C655.592 473.176 658.28 465.19 663.656 459.19C669.033 453.112 675.617 450.073 683.409 450.073C691.045 450.073 697.512 453.112 702.811 459.19V429.386H725.018V514.707H702.811V506.292C697.435 512.837 691.006 516.11 683.526 516.11ZM681.071 493.435C683.643 496.163 686.721 497.526 690.305 497.526C693.889 497.526 696.928 496.163 699.422 493.435C701.915 490.708 703.162 487.202 703.162 482.916C703.162 478.787 701.915 475.397 699.422 472.748C696.928 470.021 693.889 468.657 690.305 468.657C686.643 468.657 683.565 470.021 681.071 472.748C678.578 475.475 677.331 478.942 677.331 483.15C677.331 487.28 678.578 490.708 681.071 493.435Z" fill="black"/>
<path d="M760.29 533.759C753.277 533.759 746.498 531.928 739.953 528.265L746.849 512.721C750.589 514.98 753.823 516.11 756.55 516.11C758.732 516.11 760.446 515.253 761.693 513.539L736.914 451.476H760.173L772.796 489.578L784.718 451.476H807.509L784.367 513.188C781.562 520.668 778.406 525.967 774.9 529.084C771.393 532.2 766.524 533.759 760.29 533.759Z" fill="black"/>
<path d="M353.582 567.463L343.831 540.399H346.058L354.503 564.315L362.372 540.322H363.908L371.777 564.315L380.223 540.399H382.296L372.545 567.463H370.933L363.063 544.123L355.194 567.463H353.582Z" fill="black"/>
<path d="M447.264 563.624C444.73 566.362 441.48 567.731 437.513 567.731C433.546 567.731 430.309 566.375 427.801 563.662C425.293 560.924 424.039 557.648 424.039 553.835C424.039 550.047 425.306 546.784 427.839 544.046C430.373 541.308 433.623 539.939 437.59 539.939C441.557 539.939 444.794 541.308 447.302 544.046C449.81 546.759 451.064 550.022 451.064 553.835C451.064 557.623 449.797 560.886 447.264 563.624ZM429.375 562.395C431.576 564.75 434.314 565.927 437.59 565.927C440.866 565.927 443.578 564.763 445.728 562.434C447.903 560.105 448.991 557.239 448.991 553.835C448.991 550.482 447.891 547.629 445.69 545.274C443.514 542.92 440.789 541.743 437.513 541.743C434.237 541.743 431.512 542.907 429.336 545.236C427.187 547.565 426.112 550.431 426.112 553.835C426.112 557.188 427.2 560.041 429.375 562.395Z" fill="black"/>
<path d="M496.232 567.271V540.399H507.518C510.793 540.399 513.314 541.282 515.08 543.048C516.436 544.404 517.115 546.093 517.115 548.115C517.115 550.291 516.398 552.031 514.965 553.336C513.532 554.641 511.625 555.46 509.245 555.793L518.113 567.271H515.579L507.019 556.138H498.228V567.271H496.232ZM498.228 554.334H507.287C509.591 554.334 511.472 553.784 512.93 552.683C514.389 551.557 515.118 550.035 515.118 548.115C515.118 546.298 514.44 544.865 513.084 543.816C511.727 542.766 509.834 542.242 507.402 542.242H498.228V554.334Z" fill="black"/>
<path d="M562.361 567.271V540.399H564.357V565.428H580.134V567.271H562.361Z" fill="black"/>
<path d="M624.516 567.271V540.399H633.46C637.658 540.399 641.087 541.679 643.748 544.238C646.41 546.772 647.741 549.971 647.741 553.835C647.741 557.674 646.397 560.873 643.71 563.432C641.048 565.991 637.632 567.271 633.46 567.271H624.516ZM626.512 565.428H633.46C637.12 565.428 640.063 564.328 642.29 562.127C644.542 559.926 645.668 557.162 645.668 553.835C645.668 550.559 644.542 547.808 642.29 545.582C640.063 543.355 637.12 542.242 633.46 542.242H626.512V565.428Z" fill="black"/>
</svg>
