<svg width="164" height="53" viewBox="0 0 164 53" fill="none" xmlns="http://www.w3.org/2000/svg">
<path d="M0 12.4911C0.168015 12.497 0.336033 12.3243 0.412942 12.5929C0.572675 13.4412 0.0094684 14.1228 0.169201 14.9711L0.440153 15.0327C0.321832 15.6893 0.17275 16.372 0.0461468 17.0713C0.085587 18.3563 0.150267 19.6357 0.240191 20.9096C0.33958 20.8765 0.430689 20.8611 0.467368 20.9877C0.539544 21.5178 0.444888 22.2514 0.416491 23.0122C0.431873 23.1234 0.448436 23.2358 0.462634 23.3471C0.515705 23.4125 0.592016 23.4549 0.675614 23.4654C0.666148 23.8097 0.640116 24.115 0.611719 24.3989C1.14535 28.1308 1.77363 31.9206 2.39481 36.0287C2.64447 36.8971 2.89413 37.7668 3.0089 38.6033C3.11302 39.8433 2.93554 41.4265 2.90477 42.6357C3.86317 42.4499 4.33291 45.3973 5.30195 44.8093C5.28184 45.615 5.24989 46.8207 5.52084 46.887C6.33371 47.0751 7.27199 47.6951 7.76184 49.8355C7.88016 50.6732 7.53467 51.9653 7.69913 52.2552C7.95944 52.7202 8.2718 51.169 8.53329 51.634C8.82673 45.408 8.47413 39.4126 8.48241 33.144C8.05764 31.0142 7.87069 16.6182 8.05882 12.9218C8.05882 12.8094 8.05172 12.697 8.04699 12.5858C8.09905 10.5684 8.02688 8.11917 7.66127 6.41298C7.43646 5.6297 7.16195 4.83458 6.89691 4.04657C6.73836 4.41455 6.581 4.75649 6.42363 5.05229C6.44493 4.24535 6.46504 3.4384 6.2923 3.1284C5.88172 1.41157 5.40252 2.38416 4.75413 3.04439C4.46897 3.51767 4.03 2.87756 3.73893 3.6218C3.75313 3.0858 3.75905 2.81603 3.77443 2.27767C3.50229 2.21615 3.91286 3.93417 3.46798 3.56027C3.5721 3.04321 3.40527 2.46344 3.41947 1.92744C3.05149 2.11321 3.28103 3.78745 2.91897 3.70225C2.83496 3.41237 3.41237 2.19367 2.96039 2.08955C2.87046 2.06943 2.85626 2.60661 2.84916 2.87519C2.71073 1.2187 2.28004 0.310001 1.78428 1.81977C1.79729 1.29561 1.98897 0.553741 1.92744 0L1.92035 0C1.90496 0.276871 1.81149 0.753703 1.80203 1.00928L1.82687 0.0627099C1.76298 0.112405 1.70145 0.169198 1.63874 0.228358C1.57844 0.462658 1.54236 0.702528 1.53107 0.944197C1.53107 0.735953 1.54172 0.526527 1.54764 0.317099C1.3925 0.483871 1.25086 0.662702 1.12405 0.851907C0.832978 1.59615 0.405839 2.30962 0.395191 2.71191C0.18103 5.97283 0.0295802 9.24085 0 12.4911Z" fill="url(#paint0_linear_570_1115)"/>
<path d="M12.043 12.4911C12.211 12.497 12.379 12.3243 12.4571 12.5929C12.6156 13.4412 12.0524 14.1228 12.2122 14.9711L12.4843 15.0327C12.366 15.6893 12.2169 16.372 12.0891 17.0713C12.1286 18.3563 12.1936 19.6357 12.2843 20.9096C12.3837 20.8765 12.4748 20.8611 12.5103 20.9877C12.5837 21.5178 12.4879 22.2514 12.4595 23.0122C12.476 23.1234 12.4914 23.2358 12.5068 23.3471C12.5594 23.4124 12.6353 23.4548 12.7186 23.4654C12.7103 23.8097 12.6843 24.115 12.6547 24.3989C13.1895 28.1308 13.8178 31.9206 14.4378 36.0287C14.6886 36.8971 14.9383 37.7668 15.0531 38.6033C15.1572 39.8433 14.9797 41.4265 14.9477 42.6357C15.9073 42.4499 16.3759 45.3973 17.3461 44.8093C17.3248 45.615 17.2929 46.8207 17.565 46.887C18.3779 47.0751 19.315 47.6951 19.8048 49.8355C19.9231 50.6732 19.5776 51.9653 19.7421 52.2552C20.0024 52.7202 20.316 51.169 20.5704 51.634C20.865 45.408 20.5124 39.4126 20.5195 33.144C20.0947 31.0142 19.9078 16.6182 20.0959 12.9218C20.0959 12.8094 20.0888 12.697 20.0841 12.5858C20.1373 10.5684 20.0639 8.11917 19.6995 6.41298C19.4735 5.6297 19.199 4.83458 18.934 4.04657C18.7766 4.41455 18.6181 4.75649 18.4607 5.05229C18.4808 4.24535 18.5021 3.4384 18.3282 3.1284C17.9188 1.41157 17.4384 2.38416 16.79 3.04439C16.5048 3.51767 16.0671 2.87756 15.776 3.6218C15.789 3.0858 15.7961 2.81603 15.8103 2.27767C15.5394 2.21615 15.9487 3.93417 15.5039 3.56027C15.608 3.04321 15.4423 2.46344 15.4565 1.92744C15.0874 2.11321 15.3169 3.78745 14.9548 3.70225C14.872 3.41237 15.4494 2.19367 14.9974 2.08955C14.9063 2.06943 14.8933 2.60661 14.8862 2.87519C14.7466 1.2187 14.3159 0.310001 13.8213 1.81977C13.8355 1.29561 14.0272 0.553741 13.9645 0L13.9574 0C13.942 0.276871 13.8485 0.753703 13.8391 1.00928C13.8474 0.695726 13.8556 0.37981 13.8639 0.0627099C13.8 0.112405 13.7373 0.169198 13.6746 0.228358C13.6141 0.462581 13.5784 0.702511 13.5681 0.944197C13.5681 0.735953 13.5788 0.526527 13.5835 0.317099C13.4288 0.483899 13.2875 0.662731 13.1611 0.851907C12.8688 1.59615 12.4417 2.30962 12.4311 2.71191C12.2252 5.97283 12.0737 9.24085 12.043 12.4911Z" fill="url(#paint1_linear_570_1115)"/>
<path d="M38.8153 34.8789V15.8803H49.2917C50.2326 15.8803 51.0649 16.0883 51.7886 16.5045C52.5305 16.9207 53.1095 17.4906 53.5257 18.2144C53.9599 18.9381 54.177 19.7795 54.177 20.7385C54.177 21.3718 54.0413 21.9779 53.7699 22.5569C53.5166 23.1359 53.1638 23.6426 52.7114 24.0768C52.2591 24.493 51.7343 24.8187 51.1372 25.0539C51.8248 25.2529 52.431 25.5877 52.9557 26.0581C53.4985 26.5285 53.9237 27.0895 54.2313 27.7408C54.5389 28.3922 54.6927 29.0888 54.6927 29.8307C54.6927 30.8078 54.4665 31.6763 54.0142 32.4362C53.5799 33.1962 52.9738 33.7933 52.1957 34.2275C51.4358 34.6618 50.5582 34.8789 49.5631 34.8789H38.8153ZM42.045 32.002H48.6946C49.2374 32.002 49.7169 31.8844 50.133 31.6491C50.5492 31.3958 50.8658 31.0611 51.083 30.6449C51.3182 30.2107 51.4358 29.7583 51.4358 29.2879C51.4358 28.7993 51.3182 28.356 51.083 27.958C50.8477 27.5418 50.5221 27.2071 50.1059 26.9538C49.6897 26.7004 49.2012 26.5738 48.6403 26.5738H42.045V32.002ZM42.045 23.8326H48.2875C48.7941 23.8326 49.2464 23.7149 49.6445 23.4797C50.0607 23.2445 50.3773 22.9369 50.5944 22.5569C50.8297 22.1589 50.9473 21.7337 50.9473 21.2813C50.9473 20.8109 50.8387 20.3857 50.6216 20.0057C50.4044 19.6257 50.0968 19.3181 49.6988 19.0829C49.3188 18.8477 48.8755 18.7301 48.3689 18.7301H42.045V23.8326ZM57.6841 34.8789V21.037H60.8054V34.8789H57.6841ZM59.2312 19.11C58.6884 19.11 58.2179 18.911 57.8199 18.5129C57.4218 18.1149 57.2228 17.6444 57.2228 17.1016C57.2228 16.5588 57.4218 16.0883 57.8199 15.6903C58.2179 15.2922 58.6884 15.0932 59.2312 15.0932C59.7921 15.0932 60.2625 15.2922 60.6425 15.6903C61.0406 16.0883 61.2396 16.5588 61.2396 17.1016C61.2396 17.6444 61.0406 18.1149 60.6425 18.5129C60.2625 18.911 59.7921 19.11 59.2312 19.11ZM66.6387 40.3885V37.7287H73.5868C74.0573 37.7287 74.4191 37.584 74.6725 37.2944C74.9439 37.0049 75.0796 36.6431 75.0796 36.2088V32.6262H75.0524C74.6544 33.1147 74.2292 33.54 73.7768 33.9018C73.3245 34.2456 72.8088 34.517 72.2298 34.7161C71.6689 34.897 71.0446 34.9875 70.357 34.9875C69.0905 34.9875 67.9596 34.6889 66.9644 34.0918C65.9693 33.4947 65.1822 32.6624 64.6032 31.5949C64.0423 30.5092 63.7618 29.2698 63.7618 27.8765C63.7618 26.5195 64.0423 25.3072 64.6032 24.2397C65.1822 23.154 66.0055 22.2946 67.073 21.6613C68.1405 21.028 69.4433 20.7113 70.9813 20.7113C72.4469 20.7113 73.7135 21.0189 74.781 21.6341C75.8667 22.2493 76.708 23.1178 77.3051 24.2397C77.9022 25.3434 78.2008 26.6371 78.2008 28.1208V36.3445C78.2008 37.593 77.8389 38.5791 77.1151 39.3029C76.3914 40.0266 75.4053 40.3885 74.1568 40.3885H66.6387ZM70.9541 32.3277C71.7865 32.3277 72.5012 32.1377 73.0983 31.7577C73.7135 31.3596 74.1839 30.8349 74.5096 30.1835C74.8534 29.5141 75.0253 28.7722 75.0253 27.958C75.0253 27.0895 74.8624 26.3114 74.5368 25.6239C74.2111 24.9363 73.7406 24.3935 73.1254 23.9954C72.5283 23.5792 71.8046 23.3712 70.9541 23.3712C70.1218 23.3712 69.3981 23.5792 68.7829 23.9954C68.1858 24.3935 67.7244 24.9363 67.3987 25.6239C67.073 26.2933 66.9102 27.0533 66.9102 27.9037C66.9102 28.7179 67.073 29.4598 67.3987 30.1292C67.7244 30.7987 68.1858 31.3325 68.7829 31.7306C69.3981 32.1286 70.1218 32.3277 70.9541 32.3277ZM89.0671 34.8789V32.0291H97.2365C97.7613 32.0291 98.2136 31.9025 98.5936 31.6491C98.9916 31.3958 99.2992 31.0701 99.5164 30.6721C99.7516 30.2559 99.8692 29.8216 99.8692 29.3693C99.8692 28.8808 99.7606 28.4375 99.5435 28.0394C99.3264 27.6413 99.0188 27.3247 98.6207 27.0895C98.2407 26.8542 97.7974 26.7366 97.2908 26.7366H93.8982C92.8307 26.7366 91.8717 26.5195 91.0213 26.0852C90.1889 25.6329 89.5285 25.0087 89.04 24.2125C88.5514 23.4164 88.3072 22.4755 88.3072 21.3899C88.3072 20.3042 88.5424 19.3543 89.0128 18.5401C89.4833 17.7077 90.1256 17.0564 90.9398 16.5859C91.7541 16.1155 92.6769 15.8803 93.7082 15.8803H101.878V18.7301H94.0068C93.5363 18.7301 93.1111 18.8477 92.7311 19.0829C92.3512 19.3181 92.0526 19.6257 91.8355 20.0057C91.6365 20.3857 91.5369 20.7928 91.5369 21.227C91.5369 21.6794 91.6365 22.0955 91.8355 22.4755C92.0526 22.8374 92.3421 23.1359 92.704 23.3712C93.084 23.5883 93.5092 23.6968 93.9796 23.6968H97.4537C98.6117 23.6968 99.6068 23.923 100.439 24.3754C101.29 24.8277 101.941 25.452 102.393 26.2481C102.864 27.0442 103.099 27.958 103.099 28.9893C103.099 30.2016 102.855 31.2511 102.366 32.1377C101.896 33.0062 101.244 33.6847 100.412 34.1732C99.5978 34.6437 98.675 34.8789 97.6436 34.8789H89.0671ZM106.029 34.8789V15.066H109.15V22.4212C109.711 21.8241 110.362 21.3899 111.104 21.1185C111.846 20.847 112.597 20.7113 113.357 20.7113C114.624 20.7113 115.7 20.9828 116.587 21.5256C117.491 22.0503 118.179 22.7831 118.649 23.724C119.12 24.6468 119.355 25.7053 119.355 26.8995V34.8789H116.261V26.9266C116.261 26.221 116.089 25.6058 115.745 25.081C115.42 24.5382 114.985 24.1221 114.443 23.8326C113.918 23.525 113.33 23.3712 112.678 23.3712C112.063 23.3712 111.484 23.5159 110.941 23.8054C110.399 24.0949 109.964 24.502 109.639 25.0268C109.313 25.5515 109.15 26.1486 109.15 26.8181V34.8789H106.029ZM128.716 35.2046C127.395 35.2046 126.255 34.8789 125.296 34.2275C124.337 33.5761 123.596 32.7076 123.071 31.622C122.564 30.5183 122.311 29.306 122.311 27.9851C122.311 26.61 122.6 25.3796 123.179 24.2939C123.777 23.1902 124.618 22.3217 125.704 21.6884C126.807 21.037 128.119 20.7113 129.639 20.7113C131.141 20.7113 132.416 21.037 133.466 21.6884C134.533 22.3217 135.348 23.1902 135.909 24.2939C136.488 25.3796 136.777 26.5919 136.777 27.9308V34.8789H133.656V32.3005H133.602C133.33 32.8071 132.977 33.2866 132.543 33.739C132.109 34.1732 131.575 34.5261 130.942 34.7975C130.308 35.0689 129.567 35.2046 128.716 35.2046ZM129.558 32.5448C130.372 32.5448 131.077 32.3458 131.675 31.9477C132.29 31.5315 132.769 30.9797 133.113 30.2921C133.457 29.5864 133.62 28.7993 133.602 27.9308C133.602 27.0623 133.439 26.2933 133.113 25.6239C132.787 24.9363 132.326 24.3935 131.729 23.9954C131.132 23.5792 130.417 23.3712 129.585 23.3712C128.716 23.3712 127.974 23.5792 127.359 23.9954C126.744 24.3935 126.273 24.9363 125.948 25.6239C125.622 26.3114 125.459 27.0895 125.459 27.958C125.459 28.8084 125.622 29.5864 125.948 30.2921C126.273 30.9797 126.735 31.5315 127.332 31.9477C127.947 32.3458 128.689 32.5448 129.558 32.5448ZM140.403 34.8789V24.9725C140.403 23.7421 140.747 22.7831 141.434 22.0955C142.14 21.3899 143.108 21.037 144.339 21.037H147.677V23.6968H144.908C144.474 23.6968 144.13 23.8235 143.877 24.0768C143.642 24.3301 143.524 24.6739 143.524 25.1082V34.8789H140.403ZM156.844 34.8789C155.288 34.8789 153.922 34.5894 152.745 34.0104C151.587 33.4133 150.683 32.5991 150.031 31.5677C149.38 30.5183 149.054 29.315 149.054 27.958C149.054 26.5285 149.344 25.271 149.923 24.1854C150.502 23.0997 151.298 22.2493 152.311 21.6341C153.324 21.0189 154.491 20.7113 155.812 20.7113C157.296 20.7113 158.517 21.028 159.476 21.6613C160.435 22.2946 161.141 23.145 161.593 24.2125C162.064 25.2801 162.299 26.4743 162.299 27.7951C162.299 27.9761 162.29 28.1841 162.272 28.4194C162.254 28.6546 162.227 28.8355 162.19 28.9622H152.365C152.474 29.6859 152.736 30.2921 153.153 30.7806C153.569 31.2511 154.093 31.6129 154.727 31.8663C155.36 32.1015 156.066 32.2191 156.844 32.2191H160.562V34.8789H156.844ZM152.338 26.8452H159.178C159.16 26.5014 159.105 26.1576 159.015 25.8138C158.943 25.4701 158.816 25.1444 158.635 24.8368C158.472 24.5292 158.255 24.2668 157.984 24.0497C157.73 23.8145 157.423 23.6335 157.061 23.5069C156.699 23.3621 156.283 23.2897 155.812 23.2897C155.27 23.2897 154.79 23.3983 154.374 23.6154C153.958 23.8145 153.605 24.0859 153.315 24.4297C153.026 24.7553 152.8 25.1353 152.637 25.5696C152.492 25.9857 152.393 26.4109 152.338 26.8452Z" fill="#111714"/>
<defs>
<linearGradient id="paint0_linear_570_1115" x1="4.32508" y1="0" x2="4.32508" y2="52.3432" gradientUnits="userSpaceOnUse">
<stop offset="0.25" stop-color="#4ACB8F"/>
<stop offset="1" stop-color="#338DDE"/>
</linearGradient>
<linearGradient id="paint1_linear_570_1115" x1="16.3655" y1="0" x2="16.3655" y2="52.3432" gradientUnits="userSpaceOnUse">
<stop offset="0.25" stop-color="#4ACB8F"/>
<stop offset="1" stop-color="#338DDE"/>
</linearGradient>
</defs>
</svg>
