<svg width="109" height="30" viewBox="0 0 109 30" fill="none" xmlns="http://www.w3.org/2000/svg">
<path d="M52.16 20H50.576L49.664 17.488H44.624L43.712 20H42.128L46.304 8.8H47.984L52.16 20ZM47.136 10.576L45.136 16.096H49.152L47.136 10.576ZM61.4493 20H59.8013L57.2893 15.712H54.6493V20H53.1613V8.8H57.6413C58.6013 8.8 59.4226 9.14133 60.1053 9.824C60.7879 10.496 61.1293 11.312 61.1293 12.272C61.1293 12.9973 60.9106 13.6587 60.4733 14.256C60.0253 14.864 59.4706 15.2853 58.8093 15.52L61.4493 20ZM57.6413 10.192H54.6493V14.368H57.6413C58.1959 14.368 58.6653 14.1653 59.0493 13.76C59.4439 13.3547 59.6413 12.8587 59.6413 12.272C59.6413 11.6853 59.4439 11.1947 59.0493 10.8C58.6653 10.3947 58.1959 10.192 57.6413 10.192ZM63.1304 18.352H64.7304L63.6904 22.24H62.4904L63.1304 18.352ZM73.8172 20.208C72.7719 20.208 71.8759 19.968 71.1292 19.488C70.3932 18.9973 69.8759 18.32 69.5772 17.456L70.8572 16.72C71.2839 18.0747 72.2812 18.752 73.8492 18.752C74.6066 18.752 75.1879 18.5973 75.5932 18.288C76.0092 17.9787 76.2172 17.5573 76.2172 17.024C76.2172 16.5013 76.0146 16.1013 75.6092 15.824C75.2466 15.5787 74.5692 15.296 73.5772 14.976L72.5052 14.624C72.2706 14.528 71.9612 14.3893 71.5772 14.208C71.2039 14.016 70.9319 13.824 70.7612 13.632C70.2919 13.12 70.0572 12.496 70.0572 11.76C70.0572 10.7787 70.3986 10.0107 71.0812 9.456C71.7639 8.88 72.5959 8.592 73.5772 8.592C74.4519 8.592 75.2199 8.81067 75.8812 9.248C76.5426 9.68533 77.0386 10.2827 77.3692 11.04L76.1212 11.76C75.6412 10.608 74.7932 10.032 73.5772 10.032C72.9692 10.032 72.4786 10.1813 72.1052 10.48C71.7319 10.7787 71.5452 11.184 71.5452 11.696C71.5452 12.1867 71.7212 12.56 72.0732 12.816C72.4359 13.0827 73.0439 13.3493 73.8972 13.616L74.5532 13.824C74.9159 13.9627 75.1132 14.0373 75.1452 14.048C75.4866 14.176 75.8599 14.352 76.2652 14.576C76.5532 14.736 76.8412 14.9813 77.1292 15.312C77.5026 15.6853 77.6892 16.2453 77.6892 16.992C77.6892 17.9733 77.3319 18.7573 76.6172 19.344C75.8919 19.92 74.9586 20.208 73.8172 20.208ZM83.4033 11.792C84.5233 11.792 85.4779 12.2027 86.2673 13.024C87.0566 13.8453 87.4513 14.8373 87.4513 16C87.4513 17.1733 87.0566 18.1707 86.2673 18.992C85.4886 19.8027 84.5339 20.208 83.4033 20.208C82.0806 20.208 81.0726 19.68 80.3793 18.624V23.2H78.9873V12H80.3793V13.376C81.0726 12.32 82.0806 11.792 83.4033 11.792ZM83.2273 18.864C84.0273 18.864 84.6993 18.592 85.2433 18.048C85.7873 17.4827 86.0593 16.8 86.0593 16C86.0593 15.1893 85.7873 14.512 85.2433 13.968C84.6993 13.4133 84.0273 13.136 83.2273 13.136C82.4166 13.136 81.7393 13.4133 81.1953 13.968C80.6513 14.512 80.3793 15.1893 80.3793 16C80.3793 16.8 80.6513 17.4827 81.1953 18.048C81.7393 18.592 82.4166 18.864 83.2273 18.864ZM95.5443 18.992C94.7336 19.8027 93.7363 20.208 92.5523 20.208C91.3683 20.208 90.3709 19.8027 89.5603 18.992C88.7496 18.1813 88.3443 17.184 88.3443 16C88.3443 14.816 88.7496 13.8187 89.5603 13.008C90.3709 12.1973 91.3683 11.792 92.5523 11.792C93.7363 11.792 94.7336 12.1973 95.5443 13.008C96.3656 13.8293 96.7763 14.8267 96.7763 16C96.7763 17.1733 96.3656 18.1707 95.5443 18.992ZM92.5523 18.848C93.3523 18.848 94.0243 18.576 94.5683 18.032C95.1123 17.488 95.3843 16.8107 95.3843 16C95.3843 15.1893 95.1123 14.512 94.5683 13.968C94.0243 13.424 93.3523 13.152 92.5523 13.152C91.7629 13.152 91.0963 13.424 90.5523 13.968C90.0083 14.512 89.7363 15.1893 89.7363 16C89.7363 16.8107 90.0083 17.488 90.5523 18.032C91.0963 18.576 91.7629 18.848 92.5523 18.848ZM99.4892 12V13.344C99.9479 12.352 100.78 11.856 101.985 11.856V13.312C101.303 13.28 100.716 13.4613 100.225 13.856C99.7346 14.2507 99.4892 14.8853 99.4892 15.76V20H98.0972V12H99.4892ZM107.567 12V13.344H105.439V17.68C105.439 18.0747 105.513 18.3573 105.663 18.528C105.823 18.688 106.063 18.7733 106.383 18.784C106.703 18.784 107.097 18.7733 107.567 18.752V20C106.34 20.16 105.444 20.0587 104.879 19.696C104.324 19.3333 104.047 18.6613 104.047 17.68V13.344H102.463V12H104.047V10.176L105.439 9.76V12H107.567Z" fill="#2A2A2A"/>
<path d="M52.16 20H50.576L49.664 17.488H44.624L43.712 20H42.128L46.304 8.8H47.984L52.16 20ZM47.136 10.576L45.136 16.096H49.152L47.136 10.576ZM61.4493 20H59.8013L57.2893 15.712H54.6493V20H53.1613V8.8H57.6413C58.6013 8.8 59.4226 9.14133 60.1053 9.824C60.7879 10.496 61.1293 11.312 61.1293 12.272C61.1293 12.9973 60.9106 13.6587 60.4733 14.256C60.0253 14.864 59.4706 15.2853 58.8093 15.52L61.4493 20ZM57.6413 10.192H54.6493V14.368H57.6413C58.1959 14.368 58.6653 14.1653 59.0493 13.76C59.4439 13.3547 59.6413 12.8587 59.6413 12.272C59.6413 11.6853 59.4439 11.1947 59.0493 10.8C58.6653 10.3947 58.1959 10.192 57.6413 10.192ZM63.1304 18.352H64.7304L63.6904 22.24H62.4904L63.1304 18.352ZM73.8172 20.208C72.7719 20.208 71.8759 19.968 71.1292 19.488C70.3932 18.9973 69.8759 18.32 69.5772 17.456L70.8572 16.72C71.2839 18.0747 72.2812 18.752 73.8492 18.752C74.6066 18.752 75.1879 18.5973 75.5932 18.288C76.0092 17.9787 76.2172 17.5573 76.2172 17.024C76.2172 16.5013 76.0146 16.1013 75.6092 15.824C75.2466 15.5787 74.5692 15.296 73.5772 14.976L72.5052 14.624C72.2706 14.528 71.9612 14.3893 71.5772 14.208C71.2039 14.016 70.9319 13.824 70.7612 13.632C70.2919 13.12 70.0572 12.496 70.0572 11.76C70.0572 10.7787 70.3986 10.0107 71.0812 9.456C71.7639 8.88 72.5959 8.592 73.5772 8.592C74.4519 8.592 75.2199 8.81067 75.8812 9.248C76.5426 9.68533 77.0386 10.2827 77.3692 11.04L76.1212 11.76C75.6412 10.608 74.7932 10.032 73.5772 10.032C72.9692 10.032 72.4786 10.1813 72.1052 10.48C71.7319 10.7787 71.5452 11.184 71.5452 11.696C71.5452 12.1867 71.7212 12.56 72.0732 12.816C72.4359 13.0827 73.0439 13.3493 73.8972 13.616L74.5532 13.824C74.9159 13.9627 75.1132 14.0373 75.1452 14.048C75.4866 14.176 75.8599 14.352 76.2652 14.576C76.5532 14.736 76.8412 14.9813 77.1292 15.312C77.5026 15.6853 77.6892 16.2453 77.6892 16.992C77.6892 17.9733 77.3319 18.7573 76.6172 19.344C75.8919 19.92 74.9586 20.208 73.8172 20.208ZM83.4033 11.792C84.5233 11.792 85.4779 12.2027 86.2673 13.024C87.0566 13.8453 87.4513 14.8373 87.4513 16C87.4513 17.1733 87.0566 18.1707 86.2673 18.992C85.4886 19.8027 84.5339 20.208 83.4033 20.208C82.0806 20.208 81.0726 19.68 80.3793 18.624V23.2H78.9873V12H80.3793V13.376C81.0726 12.32 82.0806 11.792 83.4033 11.792ZM83.2273 18.864C84.0273 18.864 84.6993 18.592 85.2433 18.048C85.7873 17.4827 86.0593 16.8 86.0593 16C86.0593 15.1893 85.7873 14.512 85.2433 13.968C84.6993 13.4133 84.0273 13.136 83.2273 13.136C82.4166 13.136 81.7393 13.4133 81.1953 13.968C80.6513 14.512 80.3793 15.1893 80.3793 16C80.3793 16.8 80.6513 17.4827 81.1953 18.048C81.7393 18.592 82.4166 18.864 83.2273 18.864ZM95.5443 18.992C94.7336 19.8027 93.7363 20.208 92.5523 20.208C91.3683 20.208 90.3709 19.8027 89.5603 18.992C88.7496 18.1813 88.3443 17.184 88.3443 16C88.3443 14.816 88.7496 13.8187 89.5603 13.008C90.3709 12.1973 91.3683 11.792 92.5523 11.792C93.7363 11.792 94.7336 12.1973 95.5443 13.008C96.3656 13.8293 96.7763 14.8267 96.7763 16C96.7763 17.1733 96.3656 18.1707 95.5443 18.992ZM92.5523 18.848C93.3523 18.848 94.0243 18.576 94.5683 18.032C95.1123 17.488 95.3843 16.8107 95.3843 16C95.3843 15.1893 95.1123 14.512 94.5683 13.968C94.0243 13.424 93.3523 13.152 92.5523 13.152C91.7629 13.152 91.0963 13.424 90.5523 13.968C90.0083 14.512 89.7363 15.1893 89.7363 16C89.7363 16.8107 90.0083 17.488 90.5523 18.032C91.0963 18.576 91.7629 18.848 92.5523 18.848ZM99.4892 12V13.344C99.9479 12.352 100.78 11.856 101.985 11.856V13.312C101.303 13.28 100.716 13.4613 100.225 13.856C99.7346 14.2507 99.4892 14.8853 99.4892 15.76V20H98.0972V12H99.4892ZM107.567 12V13.344H105.439V17.68C105.439 18.0747 105.513 18.3573 105.663 18.528C105.823 18.688 106.063 18.7733 106.383 18.784C106.703 18.784 107.097 18.7733 107.567 18.752V20C106.34 20.16 105.444 20.0587 104.879 19.696C104.324 19.3333 104.047 18.6613 104.047 17.68V13.344H102.463V12H104.047V10.176L105.439 9.76V12H107.567Z" fill="url(#paint0_linear_1251_4050)"/>
<path d="M23.8374 23.8371C28.7249 18.9496 28.7249 11.0371 23.8374 6.16211" stroke="#A26BF7" stroke-width="0.888487" stroke-linecap="round" stroke-linejoin="round"/>
<path d="M6.16245 6.16211C1.27495 11.0496 1.27495 18.9621 6.16245 23.8371" stroke="#A26BF7" stroke-width="0.888487" stroke-linecap="round" stroke-linejoin="round"/>
<path d="M10.875 26.7627C12.2125 27.2252 13.6 27.4503 15 27.4503C16.4 27.4378 17.7875 27.2252 19.125 26.7627" stroke="#A26BF7" stroke-width="0.888487" stroke-linecap="round" stroke-linejoin="round"/>
<path d="M10.875 3.23737C12.2125 2.77487 13.6 2.5498 15 2.5498C16.4 2.5498 17.7875 2.77487 19.125 3.23737" stroke="#A26BF7" stroke-width="0.888487" stroke-linecap="round" stroke-linejoin="round"/>
<path d="M10.925 15.0002V12.9127C10.925 10.3127 12.7626 9.25018 15.0126 10.5502L16.8251 11.6002L18.6376 12.6502C20.8876 13.9502 20.8876 16.0752 18.6376 17.3752L16.8251 18.4252L15.0126 19.4752C12.7626 20.7752 10.925 19.7127 10.925 17.1127V15.0002Z" stroke="#A26BF7" stroke-width="0.888487" stroke-miterlimit="10" stroke-linecap="round" stroke-linejoin="round"/>
<defs>
<linearGradient id="paint0_linear_1251_4050" x1="42" y1="18" x2="109" y2="17.5" gradientUnits="userSpaceOnUse">
<stop stop-color="#9D6DF8"/>
<stop offset="1" stop-color="#8F73F8"/>
</linearGradient>
</defs>
</svg>
