<svg width="88" height="30" viewBox="0 0 88 30" fill="none" xmlns="http://www.w3.org/2000/svg">
<path d="M44.9359 20.208C43.2292 20.208 41.8265 19.648 40.7279 18.528C39.6292 17.4187 39.0799 16.0427 39.0799 14.4C39.0799 12.7573 39.6292 11.3813 40.7279 10.272C41.8265 9.152 43.2292 8.592 44.9359 8.592C45.9492 8.592 46.8879 8.83733 47.7519 9.328C48.6159 9.81867 49.2879 10.48 49.7679 11.312L48.4719 12.064C48.1519 11.4453 47.6719 10.9547 47.0319 10.592C46.4025 10.2187 45.7039 10.032 44.9359 10.032C43.6345 10.032 42.5785 10.448 41.7679 11.28C40.9572 12.1013 40.5519 13.1413 40.5519 14.4C40.5519 15.648 40.9572 16.6827 41.7679 17.504C42.5785 18.336 43.6345 18.752 44.9359 18.752C45.7039 18.752 46.4025 18.5707 47.0319 18.208C47.6719 17.8347 48.1519 17.344 48.4719 16.736L49.7679 17.472C49.2985 18.304 48.6319 18.9707 47.7679 19.472C46.9145 19.9627 45.9705 20.208 44.9359 20.208ZM52.428 12V13.344C52.8867 12.352 53.7187 11.856 54.924 11.856V13.312C54.2413 13.28 53.6547 13.4613 53.164 13.856C52.6733 14.2507 52.428 14.8853 52.428 15.76V20H51.036V12H52.428ZM59.4179 18.272L61.7219 12H63.2099L59.9459 20.496C59.5939 21.4027 59.1085 22.0907 58.4899 22.56C57.8819 23.04 57.1832 23.2533 56.3939 23.2V21.904C57.3752 21.9787 58.0952 21.4347 58.5539 20.272L58.6979 19.968L55.2099 12H56.6979L59.4179 18.272ZM68.4683 11.792C69.5883 11.792 70.5429 12.2027 71.3323 13.024C72.1216 13.8453 72.5163 14.8373 72.5163 16C72.5163 17.1733 72.1216 18.1707 71.3323 18.992C70.5536 19.8027 69.5989 20.208 68.4683 20.208C67.1456 20.208 66.1376 19.68 65.4443 18.624V23.2H64.0523V12H65.4443V13.376C66.1376 12.32 67.1456 11.792 68.4683 11.792ZM68.2923 18.864C69.0923 18.864 69.7643 18.592 70.3083 18.048C70.8523 17.4827 71.1243 16.8 71.1243 16C71.1243 15.1893 70.8523 14.512 70.3083 13.968C69.7643 13.4133 69.0923 13.136 68.2923 13.136C67.4816 13.136 66.8043 13.4133 66.2603 13.968C65.7163 14.512 65.4443 15.1893 65.4443 16C65.4443 16.8 65.7163 17.4827 66.2603 18.048C66.8043 18.592 67.4816 18.864 68.2923 18.864ZM78.0374 12V13.344H75.9094V17.68C75.9094 18.0747 75.984 18.3573 76.1334 18.528C76.2934 18.688 76.5334 18.7733 76.8534 18.784C77.1734 18.784 77.568 18.7733 78.0374 18.752V20C76.8107 20.16 75.9147 20.0587 75.3494 19.696C74.7947 19.3333 74.5174 18.6613 74.5174 17.68V13.344H72.9334V12H74.5174V10.176L75.9094 9.76V12H78.0374ZM85.7111 18.992C84.9005 19.8027 83.9031 20.208 82.7191 20.208C81.5351 20.208 80.5378 19.8027 79.7271 18.992C78.9165 18.1813 78.5111 17.184 78.5111 16C78.5111 14.816 78.9165 13.8187 79.7271 13.008C80.5378 12.1973 81.5351 11.792 82.7191 11.792C83.9031 11.792 84.9005 12.1973 85.7111 13.008C86.5325 13.8293 86.9431 14.8267 86.9431 16C86.9431 17.1733 86.5325 18.1707 85.7111 18.992ZM82.7191 18.848C83.5191 18.848 84.1911 18.576 84.7351 18.032C85.2791 17.488 85.5511 16.8107 85.5511 16C85.5511 15.1893 85.2791 14.512 84.7351 13.968C84.1911 13.424 83.5191 13.152 82.7191 13.152C81.9298 13.152 81.2631 13.424 80.7191 13.968C80.1751 14.512 79.9031 15.1893 79.9031 16C79.9031 16.8107 80.1751 17.488 80.7191 18.032C81.2631 18.576 81.9298 18.848 82.7191 18.848Z" fill="#2A2A2A"/>
<path d="M44.9359 20.208C43.2292 20.208 41.8265 19.648 40.7279 18.528C39.6292 17.4187 39.0799 16.0427 39.0799 14.4C39.0799 12.7573 39.6292 11.3813 40.7279 10.272C41.8265 9.152 43.2292 8.592 44.9359 8.592C45.9492 8.592 46.8879 8.83733 47.7519 9.328C48.6159 9.81867 49.2879 10.48 49.7679 11.312L48.4719 12.064C48.1519 11.4453 47.6719 10.9547 47.0319 10.592C46.4025 10.2187 45.7039 10.032 44.9359 10.032C43.6345 10.032 42.5785 10.448 41.7679 11.28C40.9572 12.1013 40.5519 13.1413 40.5519 14.4C40.5519 15.648 40.9572 16.6827 41.7679 17.504C42.5785 18.336 43.6345 18.752 44.9359 18.752C45.7039 18.752 46.4025 18.5707 47.0319 18.208C47.6719 17.8347 48.1519 17.344 48.4719 16.736L49.7679 17.472C49.2985 18.304 48.6319 18.9707 47.7679 19.472C46.9145 19.9627 45.9705 20.208 44.9359 20.208ZM52.428 12V13.344C52.8867 12.352 53.7187 11.856 54.924 11.856V13.312C54.2413 13.28 53.6547 13.4613 53.164 13.856C52.6733 14.2507 52.428 14.8853 52.428 15.76V20H51.036V12H52.428ZM59.4179 18.272L61.7219 12H63.2099L59.9459 20.496C59.5939 21.4027 59.1085 22.0907 58.4899 22.56C57.8819 23.04 57.1832 23.2533 56.3939 23.2V21.904C57.3752 21.9787 58.0952 21.4347 58.5539 20.272L58.6979 19.968L55.2099 12H56.6979L59.4179 18.272ZM68.4683 11.792C69.5883 11.792 70.5429 12.2027 71.3323 13.024C72.1216 13.8453 72.5163 14.8373 72.5163 16C72.5163 17.1733 72.1216 18.1707 71.3323 18.992C70.5536 19.8027 69.5989 20.208 68.4683 20.208C67.1456 20.208 66.1376 19.68 65.4443 18.624V23.2H64.0523V12H65.4443V13.376C66.1376 12.32 67.1456 11.792 68.4683 11.792ZM68.2923 18.864C69.0923 18.864 69.7643 18.592 70.3083 18.048C70.8523 17.4827 71.1243 16.8 71.1243 16C71.1243 15.1893 70.8523 14.512 70.3083 13.968C69.7643 13.4133 69.0923 13.136 68.2923 13.136C67.4816 13.136 66.8043 13.4133 66.2603 13.968C65.7163 14.512 65.4443 15.1893 65.4443 16C65.4443 16.8 65.7163 17.4827 66.2603 18.048C66.8043 18.592 67.4816 18.864 68.2923 18.864ZM78.0374 12V13.344H75.9094V17.68C75.9094 18.0747 75.984 18.3573 76.1334 18.528C76.2934 18.688 76.5334 18.7733 76.8534 18.784C77.1734 18.784 77.568 18.7733 78.0374 18.752V20C76.8107 20.16 75.9147 20.0587 75.3494 19.696C74.7947 19.3333 74.5174 18.6613 74.5174 17.68V13.344H72.9334V12H74.5174V10.176L75.9094 9.76V12H78.0374ZM85.7111 18.992C84.9005 19.8027 83.9031 20.208 82.7191 20.208C81.5351 20.208 80.5378 19.8027 79.7271 18.992C78.9165 18.1813 78.5111 17.184 78.5111 16C78.5111 14.816 78.9165 13.8187 79.7271 13.008C80.5378 12.1973 81.5351 11.792 82.7191 11.792C83.9031 11.792 84.9005 12.1973 85.7111 13.008C86.5325 13.8293 86.9431 14.8267 86.9431 16C86.9431 17.1733 86.5325 18.1707 85.7111 18.992ZM82.7191 18.848C83.5191 18.848 84.1911 18.576 84.7351 18.032C85.2791 17.488 85.5511 16.8107 85.5511 16C85.5511 15.1893 85.2791 14.512 84.7351 13.968C84.1911 13.424 83.5191 13.152 82.7191 13.152C81.9298 13.152 81.2631 13.424 80.7191 13.968C80.1751 14.512 79.9031 15.1893 79.9031 16C79.9031 16.8107 80.1751 17.488 80.7191 18.032C81.2631 18.576 81.9298 18.848 82.7191 18.848Z" fill="#8D38D2"/>
<path d="M15 27.5C21.9036 27.5 27.5 21.9036 27.5 15C27.5 8.09644 21.9036 2.5 15 2.5C8.09644 2.5 2.5 8.09644 2.5 15C2.5 21.9036 8.09644 27.5 15 27.5Z" stroke="#8439DA" stroke-miterlimit="10"/>
<path d="M10.9751 9.58789H17.7501C19.2501 9.58789 20.4626 10.9379 20.4626 12.3004C20.4626 13.8004 19.2501 15.0129 17.7501 15.0129H10.9751V9.58789Z" stroke="#8439DA" stroke-miterlimit="10" stroke-linecap="round" stroke-linejoin="round"/>
<path d="M10.9751 15H18.7126C20.4251 15 21.8126 16.2125 21.8126 17.7125C21.8126 19.2125 20.4251 20.425 18.7126 20.425H10.9751V15Z" stroke="#8439DA" stroke-miterlimit="10" stroke-linecap="round" stroke-linejoin="round"/>
<path d="M15.7126 20.4121V23.1246" stroke="#8439DA" stroke-miterlimit="10" stroke-linecap="round" stroke-linejoin="round"/>
<path d="M12.3376 20.4121V23.1246" stroke="#8439DA" stroke-miterlimit="10" stroke-linecap="round" stroke-linejoin="round"/>
<path d="M15.7126 6.875V9.5875" stroke="#8439DA" stroke-miterlimit="10" stroke-linecap="round" stroke-linejoin="round"/>
<path d="M12.3376 6.875V9.5875" stroke="#8439DA" stroke-miterlimit="10" stroke-linecap="round" stroke-linejoin="round"/>
<path d="M13.55 9.58789H8.8125" stroke="#8439DA" stroke-miterlimit="10" stroke-linecap="round" stroke-linejoin="round"/>
<path d="M13.55 20.4121H8.8125" stroke="#8439DA" stroke-miterlimit="10" stroke-linecap="round" stroke-linejoin="round"/>
</svg>
