<svg width="81" height="30" viewBox="0 0 81 30" fill="none" xmlns="http://www.w3.org/2000/svg">
<path d="M12 25H18C23 25 25 23 25 18V12C25 7 23 5 18 5H12C7 5 5 7 5 12V18C5 23 7 25 12 25Z" stroke="#26AE62" stroke-linecap="round" stroke-linejoin="round"/>
<path d="M13.125 21.25H16.875C20 21.25 21.25 20 21.25 16.875V13.125C21.25 10 20 8.75 16.875 8.75H13.125C10 8.75 8.75 10 8.75 13.125V16.875C8.75 20 10 21.25 13.125 21.25Z" stroke="#26AE62" stroke-linecap="round" stroke-linejoin="round"/>
<path d="M10.0125 5V2.5" stroke="#26AE62" stroke-linecap="round" stroke-linejoin="round"/>
<path d="M15 5V2.5" stroke="#26AE62" stroke-linecap="round" stroke-linejoin="round"/>
<path d="M20 5V2.5" stroke="#26AE62" stroke-linecap="round" stroke-linejoin="round"/>
<path d="M25 10H27.5" stroke="#26AE62" stroke-linecap="round" stroke-linejoin="round"/>
<path d="M25 15H27.5" stroke="#26AE62" stroke-linecap="round" stroke-linejoin="round"/>
<path d="M25 20H27.5" stroke="#26AE62" stroke-linecap="round" stroke-linejoin="round"/>
<path d="M20 25V27.5" stroke="#26AE62" stroke-linecap="round" stroke-linejoin="round"/>
<path d="M15.0125 25V27.5" stroke="#26AE62" stroke-linecap="round" stroke-linejoin="round"/>
<path d="M10.0125 25V27.5" stroke="#26AE62" stroke-linecap="round" stroke-linejoin="round"/>
<path d="M2.5 10H5" stroke="#26AE62" stroke-linecap="round" stroke-linejoin="round"/>
<path d="M2.5 15H5" stroke="#26AE62" stroke-linecap="round" stroke-linejoin="round"/>
<path d="M2.5 20H5" stroke="#26AE62" stroke-linecap="round" stroke-linejoin="round"/>
<path d="M43.7927 20H42.0647L38.8487 8.8H40.4167L42.9767 18.016L45.6967 8.8H47.2008L49.9207 18.016L52.4808 8.8H54.0487L50.8328 20H49.1047L46.4487 11.056L43.7927 20ZM61.9116 16.64H55.2076C55.3463 17.344 55.6716 17.8987 56.1836 18.304C56.6956 18.6987 57.3356 18.896 58.1036 18.896C59.1596 18.896 59.9276 18.5067 60.4076 17.728L61.5916 18.4C60.8023 19.6053 59.629 20.208 58.0716 20.208C56.813 20.208 55.7783 19.8133 54.9676 19.024C54.1783 18.2133 53.7836 17.2053 53.7836 16C53.7836 14.784 54.173 13.7813 54.9516 12.992C55.7303 12.192 56.7383 11.792 57.9756 11.792C59.149 11.792 60.1036 12.208 60.8396 13.04C61.5863 13.8507 61.9596 14.8427 61.9596 16.016C61.9596 16.2187 61.9436 16.4267 61.9116 16.64ZM57.9756 13.104C57.2396 13.104 56.621 13.312 56.1196 13.728C55.629 14.144 55.325 14.7093 55.2076 15.424H60.5516C60.4343 14.688 60.141 14.1173 59.6716 13.712C59.2023 13.3067 58.637 13.104 57.9756 13.104ZM67.6558 11.792C68.7758 11.792 69.7304 12.2027 70.5198 13.024C71.3091 13.8453 71.7038 14.8373 71.7038 16C71.7038 17.1733 71.3091 18.1707 70.5198 18.992C69.7411 19.8027 68.7864 20.208 67.6558 20.208C66.3331 20.208 65.3251 19.68 64.6318 18.624V20H63.2398V8.8H64.6318V13.376C65.3251 12.32 66.3331 11.792 67.6558 11.792ZM67.4798 18.864C68.2798 18.864 68.9518 18.592 69.4958 18.048C70.0398 17.4827 70.3118 16.8 70.3118 16C70.3118 15.1893 70.0398 14.512 69.4958 13.968C68.9518 13.4133 68.2798 13.136 67.4798 13.136C66.6691 13.136 65.9918 13.4133 65.4478 13.968C64.9038 14.512 64.6318 15.1893 64.6318 16C64.6318 16.8 64.9038 17.4827 65.4478 18.048C65.9918 18.592 66.6691 18.864 67.4798 18.864ZM79.4768 10.112L77.0448 13.392C77.9194 13.552 78.6234 13.9253 79.1568 14.512C79.6901 15.0987 79.9568 15.824 79.9568 16.688C79.9568 17.7867 79.5834 18.6453 78.8368 19.264C78.0794 19.8933 77.1728 20.208 76.1168 20.208C75.2421 20.208 74.4794 20.0107 73.8288 19.616C73.1781 19.2213 72.7141 18.6613 72.4368 17.936L73.6848 17.2C74.0154 18.2347 74.8261 18.752 76.1168 18.752C76.8208 18.752 77.3861 18.5707 77.8128 18.208C78.2501 17.8347 78.4688 17.328 78.4688 16.688C78.4688 16.048 78.2501 15.5413 77.8128 15.168C77.3861 14.7947 76.8208 14.608 76.1168 14.608H75.7328L75.1408 13.696L77.7328 10.192H72.7568V8.8H79.4768V10.112Z" fill="#26AE62"/>
</svg>
