<svg width="117" height="30" viewBox="0 0 117 30" fill="none" xmlns="http://www.w3.org/2000/svg">
<path d="M24.825 10.1125C24.825 10.6375 24.7875 11.15 24.725 11.6375C24.15 11.3875 23.525 11.25 22.8625 11.25C21.3375 11.25 19.9875 11.9875 19.15 13.1125C18.3 11.9875 16.95 11.25 15.425 11.25C12.8625 11.25 10.7875 13.3375 10.7875 15.925C10.7875 19.275 12.5625 21.8375 14.5375 23.575C14.475 23.6125 14.4125 23.625 14.35 23.65C13.975 23.7875 13.35 23.7875 12.975 23.65C9.73751 22.5375 2.5 17.9375 2.5 10.1125C2.5 6.66249 5.27499 3.875 8.69999 3.875C10.7375 3.875 12.5375 4.84999 13.6625 6.36249C14.8 4.84999 16.6 3.875 18.625 3.875C22.05 3.875 24.825 6.66249 24.825 10.1125Z" stroke="#4AC0D8" stroke-linecap="round" stroke-linejoin="round"/>
<path d="M27.5001 15.925C27.5001 21.775 22.0876 25.225 19.6626 26.05C19.3751 26.15 18.9126 26.15 18.6251 26.05C17.5876 25.7 16.0001 24.8625 14.5376 23.575C12.5626 21.8375 10.7876 19.275 10.7876 15.925C10.7876 13.3375 12.8626 11.25 15.4251 11.25C16.9501 11.25 18.3001 11.9875 19.1501 13.1125C19.9876 11.9875 21.3376 11.25 22.8626 11.25C23.5251 11.25 24.1501 11.3875 24.7251 11.6375C26.3626 12.3625 27.5001 14 27.5001 15.925Z" stroke="#4AC0D8" stroke-linecap="round" stroke-linejoin="round"/>
<path d="M46.2321 13.552V8.8H47.7041V20H46.2321V14.96H40.7921V20H39.3041V8.8H40.7921V13.552H46.2321ZM57.3169 16.64H50.6129C50.7516 17.344 51.0769 17.8987 51.5889 18.304C52.1009 18.6987 52.7409 18.896 53.5089 18.896C54.5649 18.896 55.3329 18.5067 55.8129 17.728L56.9969 18.4C56.2076 19.6053 55.0343 20.208 53.4769 20.208C52.2183 20.208 51.1836 19.8133 50.3729 19.024C49.5836 18.2133 49.1889 17.2053 49.1889 16C49.1889 14.784 49.5783 13.7813 50.3569 12.992C51.1356 12.192 52.1436 11.792 53.3809 11.792C54.5543 11.792 55.5089 12.208 56.2449 13.04C56.9916 13.8507 57.3649 14.8427 57.3649 16.016C57.3649 16.2187 57.3489 16.4267 57.3169 16.64ZM53.3809 13.104C52.6449 13.104 52.0263 13.312 51.5249 13.728C51.0343 14.144 50.7303 14.7093 50.6129 15.424H55.9569C55.8396 14.688 55.5463 14.1173 55.0769 13.712C54.6076 13.3067 54.0423 13.104 53.3809 13.104ZM65.2534 13.376V12H66.6454V20H65.2534V18.624C64.5708 19.68 63.5628 20.208 62.2294 20.208C61.0988 20.208 60.1441 19.8027 59.3654 18.992C58.5761 18.1707 58.1814 17.1733 58.1814 16C58.1814 14.8373 58.5761 13.8453 59.3654 13.024C60.1548 12.2027 61.1094 11.792 62.2294 11.792C63.5628 11.792 64.5708 12.32 65.2534 13.376ZM62.4054 18.864C63.2161 18.864 63.8934 18.592 64.4374 18.048C64.9814 17.4827 65.2534 16.8 65.2534 16C65.2534 15.1893 64.9814 14.512 64.4374 13.968C63.8934 13.4133 63.2161 13.136 62.4054 13.136C61.6054 13.136 60.9334 13.4133 60.3894 13.968C59.8454 14.512 59.5734 15.1893 59.5734 16C59.5734 16.8 59.8454 17.4827 60.3894 18.048C60.9334 18.592 61.6054 18.864 62.4054 18.864ZM69.8264 20H68.4344V8.32H69.8264V20ZM75.9821 12V13.344H73.8541V17.68C73.8541 18.0747 73.9287 18.3573 74.0781 18.528C74.2381 18.688 74.4781 18.7733 74.7981 18.784C75.1181 18.784 75.5127 18.7733 75.9821 18.752V20C74.7554 20.16 73.8594 20.0587 73.2941 19.696C72.7394 19.3333 72.4621 18.6613 72.4621 17.68V13.344H70.8781V12H72.4621V10.176L73.8541 9.76V12H75.9821ZM81.2941 11.792C82.2327 11.792 82.9847 12.0907 83.5501 12.688C84.1154 13.2747 84.3981 14.0747 84.3981 15.088V20H83.0061V15.168C83.0061 14.528 82.8301 14.0267 82.4781 13.664C82.1261 13.3013 81.6407 13.12 81.0221 13.12C80.3074 13.12 79.7421 13.344 79.3261 13.792C78.9101 14.2293 78.7021 14.8853 78.7021 15.76V20H77.3101V8.8H78.7021V13.152C79.2567 12.2453 80.1207 11.792 81.2941 11.792ZM89.7813 20.208C88.576 20.208 87.5733 19.808 86.7733 19.008C85.9733 18.1973 85.5733 17.1947 85.5733 16C85.5733 14.8053 85.9733 13.808 86.7733 13.008C87.5733 12.1973 88.576 11.792 89.7813 11.792C90.5706 11.792 91.28 11.984 91.9093 12.368C92.5386 12.7413 93.008 13.248 93.3173 13.888L92.1493 14.56C91.9466 14.1333 91.632 13.792 91.2053 13.536C90.7893 13.28 90.3146 13.152 89.7813 13.152C88.9813 13.152 88.3093 13.424 87.7653 13.968C87.232 14.5227 86.9653 15.2 86.9653 16C86.9653 16.7893 87.232 17.4613 87.7653 18.016C88.3093 18.56 88.9813 18.832 89.7813 18.832C90.3146 18.832 90.7946 18.7093 91.2213 18.464C91.648 18.208 91.9733 17.8667 92.1973 17.44L93.3813 18.128C93.0293 18.768 92.5333 19.2747 91.8933 19.648C91.2533 20.0213 90.5493 20.208 89.7813 20.208ZM100.95 13.376V12H102.342V20H100.95V18.624C100.268 19.68 99.2596 20.208 97.9263 20.208C96.7956 20.208 95.841 19.8027 95.0623 18.992C94.273 18.1707 93.8783 17.1733 93.8783 16C93.8783 14.8373 94.273 13.8453 95.0623 13.024C95.8516 12.2027 96.8063 11.792 97.9263 11.792C99.2596 11.792 100.268 12.32 100.95 13.376ZM98.1023 18.864C98.913 18.864 99.5903 18.592 100.134 18.048C100.678 17.4827 100.95 16.8 100.95 16C100.95 15.1893 100.678 14.512 100.134 13.968C99.5903 13.4133 98.913 13.136 98.1023 13.136C97.3023 13.136 96.6303 13.4133 96.0863 13.968C95.5423 14.512 95.2703 15.1893 95.2703 16C95.2703 16.8 95.5423 17.4827 96.0863 18.048C96.6303 18.592 97.3023 18.864 98.1023 18.864ZM105.523 12V13.344C105.982 12.352 106.814 11.856 108.019 11.856V13.312C107.337 13.28 106.75 13.4613 106.259 13.856C105.769 14.2507 105.523 14.8853 105.523 15.76V20H104.131V12H105.523ZM116.304 16.64H109.6C109.738 17.344 110.064 17.8987 110.576 18.304C111.088 18.6987 111.728 18.896 112.496 18.896C113.552 18.896 114.32 18.5067 114.8 17.728L115.984 18.4C115.194 19.6053 114.021 20.208 112.464 20.208C111.205 20.208 110.17 19.8133 109.36 19.024C108.57 18.2133 108.176 17.2053 108.176 16C108.176 14.784 108.565 13.7813 109.344 12.992C110.122 12.192 111.13 11.792 112.368 11.792C113.541 11.792 114.496 12.208 115.232 13.04C115.978 13.8507 116.352 14.8427 116.352 16.016C116.352 16.2187 116.336 16.4267 116.304 16.64ZM112.368 13.104C111.632 13.104 111.013 13.312 110.512 13.728C110.021 14.144 109.717 14.7093 109.6 15.424H114.944C114.826 14.688 114.533 14.1173 114.064 13.712C113.594 13.3067 113.029 13.104 112.368 13.104Z" fill="#2A2A2A"/>
<path d="M46.2321 13.552V8.8H47.7041V20H46.2321V14.96H40.7921V20H39.3041V8.8H40.7921V13.552H46.2321ZM57.3169 16.64H50.6129C50.7516 17.344 51.0769 17.8987 51.5889 18.304C52.1009 18.6987 52.7409 18.896 53.5089 18.896C54.5649 18.896 55.3329 18.5067 55.8129 17.728L56.9969 18.4C56.2076 19.6053 55.0343 20.208 53.4769 20.208C52.2183 20.208 51.1836 19.8133 50.3729 19.024C49.5836 18.2133 49.1889 17.2053 49.1889 16C49.1889 14.784 49.5783 13.7813 50.3569 12.992C51.1356 12.192 52.1436 11.792 53.3809 11.792C54.5543 11.792 55.5089 12.208 56.2449 13.04C56.9916 13.8507 57.3649 14.8427 57.3649 16.016C57.3649 16.2187 57.3489 16.4267 57.3169 16.64ZM53.3809 13.104C52.6449 13.104 52.0263 13.312 51.5249 13.728C51.0343 14.144 50.7303 14.7093 50.6129 15.424H55.9569C55.8396 14.688 55.5463 14.1173 55.0769 13.712C54.6076 13.3067 54.0423 13.104 53.3809 13.104ZM65.2534 13.376V12H66.6454V20H65.2534V18.624C64.5708 19.68 63.5628 20.208 62.2294 20.208C61.0988 20.208 60.1441 19.8027 59.3654 18.992C58.5761 18.1707 58.1814 17.1733 58.1814 16C58.1814 14.8373 58.5761 13.8453 59.3654 13.024C60.1548 12.2027 61.1094 11.792 62.2294 11.792C63.5628 11.792 64.5708 12.32 65.2534 13.376ZM62.4054 18.864C63.2161 18.864 63.8934 18.592 64.4374 18.048C64.9814 17.4827 65.2534 16.8 65.2534 16C65.2534 15.1893 64.9814 14.512 64.4374 13.968C63.8934 13.4133 63.2161 13.136 62.4054 13.136C61.6054 13.136 60.9334 13.4133 60.3894 13.968C59.8454 14.512 59.5734 15.1893 59.5734 16C59.5734 16.8 59.8454 17.4827 60.3894 18.048C60.9334 18.592 61.6054 18.864 62.4054 18.864ZM69.8264 20H68.4344V8.32H69.8264V20ZM75.9821 12V13.344H73.8541V17.68C73.8541 18.0747 73.9287 18.3573 74.0781 18.528C74.2381 18.688 74.4781 18.7733 74.7981 18.784C75.1181 18.784 75.5127 18.7733 75.9821 18.752V20C74.7554 20.16 73.8594 20.0587 73.2941 19.696C72.7394 19.3333 72.4621 18.6613 72.4621 17.68V13.344H70.8781V12H72.4621V10.176L73.8541 9.76V12H75.9821ZM81.2941 11.792C82.2327 11.792 82.9847 12.0907 83.5501 12.688C84.1154 13.2747 84.3981 14.0747 84.3981 15.088V20H83.0061V15.168C83.0061 14.528 82.8301 14.0267 82.4781 13.664C82.1261 13.3013 81.6407 13.12 81.0221 13.12C80.3074 13.12 79.7421 13.344 79.3261 13.792C78.9101 14.2293 78.7021 14.8853 78.7021 15.76V20H77.3101V8.8H78.7021V13.152C79.2567 12.2453 80.1207 11.792 81.2941 11.792ZM89.7813 20.208C88.576 20.208 87.5733 19.808 86.7733 19.008C85.9733 18.1973 85.5733 17.1947 85.5733 16C85.5733 14.8053 85.9733 13.808 86.7733 13.008C87.5733 12.1973 88.576 11.792 89.7813 11.792C90.5706 11.792 91.28 11.984 91.9093 12.368C92.5386 12.7413 93.008 13.248 93.3173 13.888L92.1493 14.56C91.9466 14.1333 91.632 13.792 91.2053 13.536C90.7893 13.28 90.3146 13.152 89.7813 13.152C88.9813 13.152 88.3093 13.424 87.7653 13.968C87.232 14.5227 86.9653 15.2 86.9653 16C86.9653 16.7893 87.232 17.4613 87.7653 18.016C88.3093 18.56 88.9813 18.832 89.7813 18.832C90.3146 18.832 90.7946 18.7093 91.2213 18.464C91.648 18.208 91.9733 17.8667 92.1973 17.44L93.3813 18.128C93.0293 18.768 92.5333 19.2747 91.8933 19.648C91.2533 20.0213 90.5493 20.208 89.7813 20.208ZM100.95 13.376V12H102.342V20H100.95V18.624C100.268 19.68 99.2596 20.208 97.9263 20.208C96.7956 20.208 95.841 19.8027 95.0623 18.992C94.273 18.1707 93.8783 17.1733 93.8783 16C93.8783 14.8373 94.273 13.8453 95.0623 13.024C95.8516 12.2027 96.8063 11.792 97.9263 11.792C99.2596 11.792 100.268 12.32 100.95 13.376ZM98.1023 18.864C98.913 18.864 99.5903 18.592 100.134 18.048C100.678 17.4827 100.95 16.8 100.95 16C100.95 15.1893 100.678 14.512 100.134 13.968C99.5903 13.4133 98.913 13.136 98.1023 13.136C97.3023 13.136 96.6303 13.4133 96.0863 13.968C95.5423 14.512 95.2703 15.1893 95.2703 16C95.2703 16.8 95.5423 17.4827 96.0863 18.048C96.6303 18.592 97.3023 18.864 98.1023 18.864ZM105.523 12V13.344C105.982 12.352 106.814 11.856 108.019 11.856V13.312C107.337 13.28 106.75 13.4613 106.259 13.856C105.769 14.2507 105.523 14.8853 105.523 15.76V20H104.131V12H105.523ZM116.304 16.64H109.6C109.738 17.344 110.064 17.8987 110.576 18.304C111.088 18.6987 111.728 18.896 112.496 18.896C113.552 18.896 114.32 18.5067 114.8 17.728L115.984 18.4C115.194 19.6053 114.021 20.208 112.464 20.208C111.205 20.208 110.17 19.8133 109.36 19.024C108.57 18.2133 108.176 17.2053 108.176 16C108.176 14.784 108.565 13.7813 109.344 12.992C110.122 12.192 111.13 11.792 112.368 11.792C113.541 11.792 114.496 12.208 115.232 13.04C115.978 13.8507 116.352 14.8427 116.352 16.016C116.352 16.2187 116.336 16.4267 116.304 16.64ZM112.368 13.104C111.632 13.104 111.013 13.312 110.512 13.728C110.021 14.144 109.717 14.7093 109.6 15.424H114.944C114.826 14.688 114.533 14.1173 114.064 13.712C113.594 13.3067 113.029 13.104 112.368 13.104Z" fill="#4AC0D8"/>
</svg>
