<svg width="140" height="140" viewBox="0 0 140 140" fill="none" xmlns="http://www.w3.org/2000/svg">
<g clip-path="url(#clip0_1251_4135)">
<rect width="140" height="140" rx="15.2174" fill="white"/>
<path d="M152.873 112.258L124.716 74.2457C123.866 73.0982 122.333 72.696 121.029 73.2785L88.5474 87.7916C87.8724 88.0932 87.3302 88.6302 87.0222 89.3022L71.3992 123.389C70.9977 124.265 71.0348 125.279 71.4992 126.123L86.6329 153.639C87.1678 154.612 88.1897 155.216 89.2996 155.216H142.114C143.545 155.216 144.783 154.219 145.088 152.821L153.401 114.718C153.588 113.86 153.396 112.963 152.873 112.258Z" fill="#F6F6F6"/>
<g clip-path="url(#clip1_1251_4135)">
<path d="M86.7388 50.9777L85.7769 36.612C84.6589 19.9176 60.296 19.4188 58.4957 36.0535L56.7071 52.5794C56.4728 54.7445 54.7418 56.4427 52.5726 56.6355L36.4873 58.0653C19.8636 59.543 19.834 83.8279 36.454 85.3461L43.3693 85.9777" stroke="#4AC0D8" stroke-width="12.1739"/>
<path d="M54.7826 91.3035L55.7446 105.669C56.8626 122.364 81.2255 122.862 83.0258 106.228L84.8143 89.7018C85.0487 87.5367 86.7797 85.8386 88.9489 85.6457L105.034 84.2159C121.658 82.7383 121.687 58.4534 105.067 56.9352L98.1522 56.3035" stroke="#4AC0D8" stroke-width="12.1739"/>
</g>
</g>
<defs>
<clipPath id="clip0_1251_4135">
<rect width="140" height="140" rx="15.2174" fill="white"/>
</clipPath>
<clipPath id="clip1_1251_4135">
<rect width="108.043" height="109.565" fill="white" transform="translate(16.739 15.2178)"/>
</clipPath>
</defs>
</svg>
