<svg width="236" height="86" viewBox="0 0 236 86" fill="none" xmlns="http://www.w3.org/2000/svg">
<path d="M106.012 18.4335L112.683 1.79297H156.005L149.407 18.4335H106.012Z" fill="white"/>
<path d="M92.312 53.7949L98.2457 37.1543H136.782L130.913 53.7949H92.312Z" fill="white"/>
<path d="M34.7874 1.64941L0 85.9999H18.5055L40.5255 33.2091L59.031 85.9999H77.1778L110.387 1.64941H91.2362L70.292 52.9339L51.93 1.64941H34.7874Z" fill="white"/>
<path d="M177.523 9.08373V2.95828H179.503V13H177.997L173.693 6.86021V13H171.713V2.95828H173.22L177.523 9.08373ZM188.251 10.174H182.843C183.082 11.0729 183.757 11.5224 184.866 11.5224C185.574 11.5224 186.109 11.2833 186.473 10.8052L187.965 11.6659C187.257 12.6892 186.214 13.2008 184.837 13.2008C183.651 13.2008 182.7 12.8422 181.983 12.1249C181.265 11.4077 180.907 10.5039 180.907 9.41367C180.907 8.34256 181.261 7.44358 181.968 6.71675C182.666 5.98992 183.575 5.62651 184.694 5.62651C185.755 5.62651 186.621 5.98992 187.29 6.71675C187.979 7.44358 188.323 8.34256 188.323 9.41367C188.323 9.61451 188.299 9.86794 188.251 10.174ZM182.815 8.73944H186.473C186.367 8.27083 186.152 7.9122 185.827 7.66354C185.512 7.41489 185.134 7.29057 184.694 7.29057C184.197 7.29057 183.785 7.41967 183.46 7.67789C183.135 7.92654 182.92 8.28039 182.815 8.73944ZM196.192 10.2457L197.411 5.82734H199.377L197.096 13H195.331L194.011 8.65337L192.692 13H190.927L188.646 5.82734H190.612L191.831 10.2314L193.136 5.82734H194.887L196.192 10.2457Z" fill="white"/>
<path d="M209.341 1.95828V3.22067H204.894V6.47705H209.155V7.73944H204.894V12H203.56V1.95828H209.341ZM216.767 6.06104V4.82734H218.015V12H216.767V10.7663C216.155 11.7131 215.251 12.1865 214.055 12.1865C213.042 12.1865 212.186 11.8231 211.488 11.0962C210.78 10.3599 210.426 9.46566 210.426 8.41367C210.426 7.37125 210.78 6.48184 211.488 5.74544C212.195 5.00905 213.051 4.64085 214.055 4.64085C215.251 4.64085 216.155 5.11425 216.767 6.06104ZM214.213 10.9815C214.94 10.9815 215.547 10.7376 216.035 10.2499C216.523 9.743 216.767 9.13094 216.767 8.41367C216.767 7.68684 216.523 7.07956 216.035 6.59182C215.547 6.09451 214.94 5.84586 214.213 5.84586C213.496 5.84586 212.893 6.09451 212.406 6.59182C211.918 7.07956 211.674 7.68684 211.674 8.41367C211.674 9.13094 211.918 9.743 212.406 10.2499C212.893 10.7376 213.496 10.9815 214.213 10.9815ZM223.277 12.1865C222.196 12.1865 221.297 11.8279 220.58 11.1106C219.863 10.3838 219.504 9.48479 219.504 8.41367C219.504 7.34256 219.863 6.44836 220.58 5.7311C221.297 5.00427 222.196 4.64085 223.277 4.64085C223.984 4.64085 224.62 4.813 225.185 5.15729C225.749 5.49201 226.17 5.94628 226.447 6.52009L225.4 7.12259C225.218 6.74005 224.936 6.43402 224.553 6.20449C224.181 5.97497 223.755 5.86021 223.277 5.86021C222.559 5.86021 221.957 6.10408 221.469 6.59182C220.991 7.08912 220.752 7.69641 220.752 8.41367C220.752 9.12137 220.991 9.72388 221.469 10.2212C221.957 10.7089 222.559 10.9528 223.277 10.9528C223.755 10.9528 224.185 10.8428 224.568 10.6229C224.95 10.3933 225.242 10.0873 225.443 9.70475L226.504 10.3216C226.189 10.8954 225.744 11.3497 225.17 11.6844C224.597 12.0191 223.965 12.1865 223.277 12.1865ZM234.524 8.98748H228.514C228.638 9.61868 228.93 10.116 229.389 10.4794C229.848 10.8332 230.422 11.0102 231.11 11.0102C232.057 11.0102 232.746 10.6611 233.176 9.96297L234.237 10.5655C233.53 11.6461 232.478 12.1865 231.082 12.1865C229.953 12.1865 229.025 11.8326 228.299 11.1249C227.591 10.3981 227.237 9.49435 227.237 8.41367C227.237 7.32343 227.586 6.42446 228.284 5.71675C228.982 4.99949 229.886 4.64085 230.995 4.64085C232.047 4.64085 232.903 5.01383 233.563 5.75979C234.233 6.48662 234.567 7.37603 234.567 8.42802C234.567 8.60972 234.553 8.79621 234.524 8.98748ZM230.995 5.81717C230.336 5.81717 229.781 6.00366 229.331 6.37664C228.891 6.74962 228.619 7.25648 228.514 7.89724H233.305C233.2 7.23736 232.937 6.72571 232.516 6.36229C232.095 5.99888 231.588 5.81717 230.995 5.81717Z" fill="white"/>
</svg>
