<svg width="245" height="61" viewBox="0 0 245 61" fill="none" xmlns="http://www.w3.org/2000/svg">
<path d="M9.78305 35.5505C7.33629 35.5505 5.333 34.8777 3.77319 33.5319C2.21338 32.1556 1.43347 30.2441 1.43347 27.7973C1.43347 25.2894 2.30513 23.3626 4.04845 22.0169C5.79177 20.6711 8.16207 19.9983 11.1594 19.9983C13.3309 19.9983 15.3188 20.3194 17.1233 20.9617V20.5488C17.1233 17.8574 15.4718 16.5117 12.1686 16.5117C9.93597 16.5117 7.65742 16.9704 5.333 17.888L3.5438 11.7405C6.66343 10.4559 10.0124 9.81364 13.5908 9.81364C17.8727 9.81364 21.0229 10.8229 23.0414 12.8415C24.8153 14.5848 25.7023 17.2151 25.7023 20.7323V35H17.0775V32.4309C15.2118 34.5106 12.7803 35.5505 9.78305 35.5505ZM12.9027 30.0912C14.1872 30.0912 15.2271 29.7242 16.0223 28.9901C16.8175 28.2255 17.2151 27.2315 17.2151 26.0081V24.8612C16.2058 24.433 15.0742 24.219 13.8202 24.219C12.5662 24.219 11.5875 24.5095 10.8841 25.0906C10.1806 25.6411 9.82892 26.4057 9.82892 27.3845C9.82892 28.2102 10.1042 28.8678 10.6547 29.3572C11.2358 29.8465 11.9851 30.0912 12.9027 30.0912ZM43.9444 35.5964C40.2437 35.5964 37.1546 34.3424 34.6773 31.8345C32.2 29.296 30.9613 26.2222 30.9613 22.6133C30.9613 19.0349 32.2152 15.9917 34.7232 13.4838C37.2311 10.9453 40.4119 9.67601 44.2656 9.67601C49.0062 9.67601 52.5387 11.5264 54.8631 15.2271L49.0367 19.4478C47.8745 17.8268 46.3759 17.0163 44.5408 17.0163C42.981 17.0163 41.7423 17.5515 40.8248 18.622C39.9073 19.6924 39.4485 21.0229 39.4485 22.6133C39.4485 24.2342 39.9073 25.58 40.8248 26.6504C41.7423 27.7209 42.9351 28.2561 44.4032 28.2561C45.3819 28.2561 46.2077 28.042 46.8805 27.6138C47.584 27.1857 48.318 26.5281 49.0826 25.6411L55.0007 29.9077C52.4316 33.7002 48.7462 35.5964 43.9444 35.5964ZM71.5479 35.5964C67.6331 35.5964 64.437 34.4036 61.9597 32.018C59.4823 29.6324 58.2436 26.4975 58.2436 22.6133C58.2436 18.9431 59.4211 15.8694 61.7761 13.392C64.1312 10.8841 67.1284 9.63013 70.768 9.63013C74.8357 9.63013 77.9401 10.9147 80.081 13.4838C82.2219 16.0529 83.2924 19.2948 83.2924 23.2097C83.2924 24.0049 83.2771 24.6013 83.2465 24.9989H66.6391C67.3425 27.7209 69.1317 29.0819 72.0067 29.0819C73.9641 29.0819 75.7992 28.2408 77.5119 26.5587L82.329 30.55C79.6681 33.9142 76.0744 35.5964 71.5479 35.5964ZM66.5015 20.5488H75.1263C74.9734 19.1725 74.5146 18.0868 73.75 17.2916C72.9854 16.4658 72.0067 16.0529 70.8139 16.0529C69.6822 16.0529 68.7341 16.4658 67.9695 17.2916C67.2355 18.0868 66.7461 19.1725 66.5015 20.5488ZM105.151 35.5505C102.154 35.5505 99.6307 34.3577 97.5816 31.9721V35H88.865V1.50994H97.5816V13.4838C99.6919 10.9147 102.2 9.63013 105.105 9.63013C108.164 9.63013 110.763 10.8229 112.904 13.2085C115.045 15.5635 116.116 18.6832 116.116 22.5674C116.116 26.4822 115.045 29.6324 112.904 32.018C110.794 34.373 108.21 35.5505 105.151 35.5505ZM102.444 28.2561C103.882 28.2561 105.09 27.7209 106.069 26.6504C107.047 25.58 107.537 24.2037 107.537 22.5215C107.537 20.9005 107.047 19.5701 106.069 18.5302C105.09 17.4598 103.882 16.9245 102.444 16.9245C101.038 16.9245 99.8448 17.4598 98.8661 18.5302C97.8874 19.6007 97.398 20.9617 97.398 22.6133C97.398 24.2342 97.8874 25.58 98.8661 26.6504C99.8448 27.7209 101.038 28.2561 102.444 28.2561ZM129.961 35.5505C127.33 35.5505 125.266 34.74 123.767 33.1191C122.269 31.4981 121.519 29.2654 121.519 26.421V10.1807H130.236V23.6226C130.236 24.9377 130.557 25.9623 131.199 26.6963C131.841 27.4303 132.698 27.7973 133.768 27.7973C134.839 27.7973 135.71 27.4303 136.383 26.6963C137.056 25.9623 137.393 24.9377 137.393 23.6226V10.1807H146.109V35H137.393V31.6051C135.343 34.2354 132.866 35.5505 129.961 35.5505ZM162.661 35.5505C159.603 35.5505 157.003 34.373 154.862 32.018C152.752 29.6324 151.696 26.4975 151.696 22.6133C151.696 18.6984 152.752 15.5635 154.862 13.2085C156.972 10.8229 159.557 9.63013 162.615 9.63013C165.612 9.63013 168.151 10.8229 170.231 13.2085V1.50994H178.947V35H170.231V31.6969C168.12 34.266 165.597 35.5505 162.661 35.5505ZM161.698 26.6504C162.707 27.7209 163.915 28.2561 165.322 28.2561C166.729 28.2561 167.922 27.7209 168.9 26.6504C169.879 25.58 170.368 24.2037 170.368 22.5215C170.368 20.9005 169.879 19.5701 168.9 18.5302C167.922 17.4598 166.729 16.9245 165.322 16.9245C163.884 16.9245 162.676 17.4598 161.698 18.5302C160.719 19.6007 160.23 20.9617 160.23 22.6133C160.23 24.2342 160.719 25.58 161.698 26.6504ZM195.499 35.5505C192.44 35.5505 189.841 34.373 187.7 32.018C185.589 29.6324 184.534 26.4975 184.534 22.6133C184.534 18.6984 185.589 15.5635 187.7 13.2085C189.81 10.8229 192.394 9.63013 195.453 9.63013C198.45 9.63013 200.989 10.8229 203.068 13.2085V1.50994H211.785V35H203.068V31.6969C200.958 34.266 198.435 35.5505 195.499 35.5505ZM194.535 26.6504C195.545 27.7209 196.753 28.2561 198.16 28.2561C199.566 28.2561 200.759 27.7209 201.738 26.6504C202.717 25.58 203.206 24.2037 203.206 22.5215C203.206 20.9005 202.717 19.5701 201.738 18.5302C200.759 17.4598 199.566 16.9245 198.16 16.9245C196.722 16.9245 195.514 17.4598 194.535 18.5302C193.557 19.6007 193.067 20.9617 193.067 22.6133C193.067 24.2342 193.557 25.58 194.535 26.6504ZM225.63 42.4779C222.877 42.4779 220.216 41.7592 217.647 40.3217L220.354 34.2201C221.822 35.107 223.091 35.5505 224.162 35.5505C225.018 35.5505 225.691 35.2141 226.18 34.5412L216.454 10.1807H225.584L230.539 25.1365L235.218 10.1807H244.164L235.08 34.4036C233.979 37.3397 232.741 39.4195 231.364 40.6428C229.988 41.8662 228.077 42.4779 225.63 42.4779Z" fill="white"/>
<path d="M65.6707 57.7912L61.8435 47.1683H62.7174L66.0323 56.5556L69.1212 47.1382H69.7239L72.8129 56.5556L76.1278 47.1683H76.9414L73.1142 57.7912H72.4814L69.3925 48.6299L66.3036 57.7912H65.6707ZM102.442 56.2844C101.448 57.3592 100.172 57.8966 98.6151 57.8966C97.0581 57.8966 95.7873 57.3642 94.8029 56.2994C93.8185 55.2246 93.3263 53.9388 93.3263 52.4421C93.3263 50.9554 93.8235 49.6746 94.818 48.5998C95.8125 47.525 97.0882 46.9875 98.6452 46.9875C100.202 46.9875 101.473 47.525 102.457 48.5998C103.442 49.6646 103.934 50.9453 103.934 52.4421C103.934 53.9288 103.437 55.2095 102.442 56.2844ZM95.4207 55.8022C96.2846 56.7264 97.3594 57.1884 98.6452 57.1884C99.931 57.1884 100.996 56.7314 101.84 55.8173C102.693 54.9032 103.12 53.7781 103.12 52.4421C103.12 51.1262 102.688 50.0061 101.825 49.082C100.971 48.1578 99.9009 47.6957 98.6151 47.6957C97.3293 47.6957 96.2595 48.1528 95.4056 49.0669C94.5618 49.981 94.1399 51.1061 94.1399 52.4421C94.1399 53.758 94.5669 54.878 95.4207 55.8022ZM121.663 57.7158V47.1683H126.093C127.379 47.1683 128.368 47.5149 129.061 48.208C129.594 48.7404 129.86 49.4034 129.86 50.197C129.86 51.0508 129.579 51.7339 129.016 52.2462C128.454 52.7585 127.705 53.08 126.771 53.2105L130.252 57.7158H129.257L125.897 53.3462H122.446V57.7158H121.663ZM122.446 52.638H126.002C126.907 52.638 127.645 52.422 128.217 51.99C128.79 51.5481 129.076 50.9504 129.076 50.197C129.076 49.4838 128.81 48.9212 128.278 48.5094C127.745 48.0975 127.002 47.8916 126.048 47.8916H122.446V52.638ZM147.62 57.7158V47.1683H148.403V56.9926H154.596V57.7158H147.62ZM172.017 57.7158V47.1683H175.527C177.175 47.1683 178.521 47.6706 179.566 48.6751C180.61 49.6696 181.133 50.9253 181.133 52.4421C181.133 53.9489 180.605 55.2045 179.55 56.209C178.506 57.2136 177.165 57.7158 175.527 57.7158H172.017ZM172.8 56.9926H175.527C176.964 56.9926 178.119 56.5606 178.993 55.6967C179.877 54.8328 180.319 53.748 180.319 52.4421C180.319 51.1563 179.877 50.0764 178.993 49.2025C178.119 48.3286 176.964 47.8916 175.527 47.8916H172.8V56.9926Z" fill="white"/>
</svg>
